<?xml version="1.0" standalone="no"?>
<!DOCTYPE svg PUBLIC "-//W3C//DTD SVG 20010904//EN"
 "http://www.w3.org/TR/2001/REC-SVG-20010904/DTD/svg10.dtd">
<svg version="1.0" xmlns="http://www.w3.org/2000/svg"
 width="700.000000pt" height="700.000000pt" viewBox="0 0 700.000000 700.000000"
 preserveAspectRatio="xMidYMid meet">
<metadata>
Created by potrace 1.11, written by Peter Selinger 2001-2013
</metadata>
<g transform="translate(0.000000,700.000000) scale(0.100000,-0.100000)"
fill="#000000" stroke="none">
<path d="M3475 6986 c-116 -29 -127 -51 -131 -270 -4 -186 -9 -260 -29 -421
-12 -91 -16 -159 -21 -302 -2 -87 -7 -166 -10 -176 -3 -10 -7 -68 -9 -130 -2
-62 -6 -122 -9 -133 -2 -12 -7 -69 -11 -128 -3 -59 -10 -117 -14 -129 -5 -12
-5 -34 -1 -49 5 -14 6 -29 3 -31 -2 -3 -6 -72 -8 -153 -2 -82 -7 -192 -10
-244 -3 -52 -8 -131 -10 -175 -3 -44 -7 -129 -11 -190 -8 -154 -12 -188 -25
-195 -7 -5 -7 -19 1 -51 9 -31 11 -93 6 -204 -3 -88 -8 -233 -10 -322 -2 -89
-7 -166 -10 -172 -10 -16 -33 -2 -45 27 -18 47 -108 341 -165 537 -60 208
-194 708 -221 825 -1 8 -12 53 -23 100 -27 115 -40 206 -47 325 -5 99 -14 206
-21 275 -2 19 -6 87 -10 150 -4 63 -8 122 -10 130 -1 8 -3 18 -3 21 -1 4 -30
28 -66 55 -39 28 -85 74 -111 111 l-45 63 -77 1 c-42 0 -104 6 -137 13 -33 7
-71 11 -85 9 -30 -5 -70 -32 -84 -59 -6 -10 -19 -32 -30 -48 -14 -21 -19 -49
-21 -100 0 -42 -10 -97 -23 -136 -12 -36 -28 -101 -36 -145 -35 -188 -48 -240
-67 -255 -14 -11 -18 -25 -15 -52 2 -20 -8 -85 -21 -145 -14 -59 -27 -140 -28
-179 -3 -96 -14 -163 -32 -197 -8 -16 -12 -35 -9 -42 3 -8 1 -15 -3 -17 -5 -2
-5 -23 -2 -48 4 -25 4 -61 0 -80 -4 -19 -10 -69 -14 -110 -4 -41 -8 -77 -10
-80 -1 -3 -6 -36 -10 -75 -4 -38 -8 -72 -10 -75 -2 -3 -6 -29 -10 -59 -4 -30
-8 -61 -10 -70 -1 -9 -6 -36 -9 -61 -3 -25 -8 -54 -10 -65 -2 -11 -7 -42 -10
-70 -4 -27 -15 -102 -26 -165 -23 -140 -30 -186 -35 -225 -5 -34 -16 -100 -21
-130 -2 -11 -7 -40 -10 -65 -3 -25 -14 -85 -25 -135 -10 -49 -19 -90 -19 -91
0 -1 -21 -9 -47 -19 -27 -10 -52 -23 -58 -30 -5 -6 -13 -12 -18 -13 -4 0 -33
-3 -65 -6 -31 -4 -84 -9 -117 -11 -33 -3 -82 -7 -110 -10 -27 -2 -86 -7 -130
-10 -44 -3 -96 -8 -115 -10 -19 -2 -62 -7 -95 -10 -33 -3 -80 -8 -105 -10 -25
-2 -74 -7 -110 -10 -36 -4 -74 -8 -86 -10 -11 -2 -52 -6 -90 -10 -38 -4 -76
-9 -84 -11 -8 -1 -20 -3 -27 -3 -33 -2 -49 -100 -31 -189 5 -26 12 -60 15 -77
9 -53 61 -151 86 -162 25 -11 310 -9 328 3 17 10 67 16 269 29 52 3 113 8 135
10 22 2 87 7 145 10 58 3 120 8 138 11 18 2 44 1 57 -2 29 -7 28 -22 -11 -189
-14 -60 -28 -123 -31 -140 -3 -16 -11 -49 -19 -73 -8 -23 -17 -59 -20 -80 -2
-20 -11 -57 -18 -82 -29 -92 -49 -166 -51 -190 -1 -14 -6 -41 -10 -60 -4 -19
-9 -49 -10 -66 -2 -17 -8 -41 -15 -53 -8 -15 -10 -47 -6 -94 16 -199 185 -329
369 -282 69 17 109 61 121 131 7 40 15 88 21 127 3 17 16 75 30 127 24 97 53
244 61 315 8 63 44 235 61 288 8 27 13 51 10 54 -3 3 -2 15 3 28 5 13 16 58
25 102 9 43 18 83 20 88 1 6 6 29 10 52 4 24 13 47 19 52 16 13 143 21 451 28
343 8 420 8 525 -1 114 -9 162 -23 201 -55 l32 -27 4 -110 c2 -60 5 -147 7
-194 8 -156 2 -824 -8 -990 -5 -83 -12 -235 -21 -475 -13 -324 -23 -413 -52
-469 -9 -17 -29 -46 -44 -64 -34 -38 -33 -65 4 -114 14 -18 36 -56 50 -83 14
-28 37 -62 52 -77 35 -36 111 -60 167 -54 59 6 150 15 231 21 84 7 108 22 140
88 48 100 65 190 72 390 2 67 7 216 12 332 10 266 10 1091 0 1210 -5 58 -4
109 3 143 10 43 9 55 -4 74 -22 31 -20 48 4 48 19 0 20 5 15 87 -3 49 -7 99
-10 113 -17 75 -18 93 -5 85 9 -6 11 0 5 23 -3 17 -2 39 4 49 5 10 12 29 15
43 12 59 117 85 426 105 41 2 93 6 115 9 22 3 76 7 120 11 44 3 94 8 110 11
17 2 71 6 120 8 50 3 137 7 195 11 246 13 340 14 346 3 4 -6 6 -64 5 -127 -3
-138 -3 -150 0 -311 1 -69 2 -197 2 -285 0 -88 2 -286 4 -440 6 -320 6 -415 4
-790 -1 -148 0 -279 3 -290 2 -11 5 -28 5 -37 2 -43 183 -191 249 -204 33 -7
122 31 122 52 0 22 21 27 35 8 18 -25 32 -11 50 49 14 45 14 93 1 277 -13 177
-18 320 -19 457 0 112 -3 143 -14 143 -7 0 -13 -5 -13 -11 0 -5 -5 -7 -11 -3
-7 4 -10 60 -8 168 1 88 1 196 1 239 -1 65 2 81 18 97 21 21 23 35 21 140 -1
45 -5 68 -16 76 -14 10 -14 13 0 24 21 17 19 42 -2 38 -24 -4 -30 48 -9 71 19
21 25 230 7 274 -8 20 -8 35 0 50 9 19 8 20 -3 5 -13 -15 -15 -15 -25 0 -10
15 -12 14 -21 -8 -6 -14 -11 -20 -12 -15 -6 70 -11 320 -6 339 13 54 26 25 21
-49 -4 -73 3 -97 23 -72 23 27 32 168 12 192 -10 12 -10 15 1 16 8 0 25 3 39
6 54 12 577 7 691 -6 249 -30 344 14 356 162 9 102 -1 132 -61 192 -29 29 -66
60 -83 69 -27 13 -145 43 -237 60 -103 18 -442 26 -597 13 -81 -7 -98 -6 -109
8 -11 14 -14 14 -25 -2 -22 -30 -45 -9 -46 44 -4 151 4 209 31 223 34 18 40
83 34 401 -10 534 -11 582 -19 679 -10 116 -10 170 0 375 5 88 8 171 8 185 -1
14 -3 187 -6 385 -5 357 -12 558 -22 625 -3 19 -7 66 -10 105 -5 81 -15 94
-98 120 -28 10 -72 28 -97 42 -25 13 -98 37 -163 53 -65 16 -121 30 -123 33
-3 3 -32 -1 -65 -9 -33 -8 -71 -12 -85 -10 -46 9 -120 -77 -129 -150 -3 -22
-10 -77 -16 -124 -6 -47 -13 -96 -15 -110 -6 -44 -113 -572 -135 -665 -11 -49
-22 -94 -23 -100 -1 -5 -6 -26 -10 -45 -14 -59 -143 -519 -179 -635 -37 -121
-94 -262 -108 -271 -5 -3 -9 -33 -9 -67 0 -37 -6 -71 -14 -82 -7 -11 -24 -49
-37 -85 -12 -36 -31 -76 -41 -90 -10 -14 -20 -42 -22 -62 -3 -20 -12 -51 -21
-68 -44 -85 -336 -399 -390 -420 -44 -17 -59 3 -52 70 6 61 8 67 32 159 11 45
13 67 6 74 -6 6 -11 17 -11 25 0 12 3 12 15 2 13 -10 18 -11 28 -1 9 10 7 17
-12 32 -23 19 -23 20 -16 171 3 84 8 172 10 194 2 23 6 86 10 140 14 213 16
238 30 414 3 36 10 99 15 140 14 118 19 160 25 235 3 39 8 77 10 85 3 8 7 66
10 128 3 61 10 124 16 139 6 16 13 51 15 78 2 28 8 88 14 135 5 47 12 114 15
150 4 36 8 76 10 90 3 14 7 63 11 110 4 47 8 87 10 90 6 12 18 233 18 340 0
132 -6 162 -36 190 -26 24 -109 56 -169 65 -24 4 -47 9 -51 11 -19 12 -246 11
-293 0z m1673 -1950 c34 -50 61 -142 70 -241 10 -127 3 -1377 -9 -1389 -3 -3
-56 -8 -119 -11 -212 -10 -285 -15 -305 -19 -11 -2 -49 -7 -85 -11 -36 -4 -74
-9 -85 -10 -11 -2 -47 -6 -80 -9 -33 -4 -83 -9 -112 -12 -52 -5 -52 -5 -47 21
7 37 58 163 109 269 25 51 45 101 45 112 0 11 14 55 31 99 39 102 79 222 79
239 0 8 15 50 34 93 18 44 37 94 41 112 4 19 33 99 64 180 32 80 63 169 70
196 48 191 101 319 159 382 56 62 97 62 140 -1z m-2878 -329 c45 -37 113 -165
190 -357 41 -104 176 -501 210 -620 12 -41 48 -154 81 -250 32 -96 59 -178 59
-182 0 -15 -191 -50 -355 -64 -33 -3 -76 -7 -95 -9 -71 -9 -217 -19 -273 -19
-61 0 -83 14 -67 43 15 30 26 134 55 526 20 271 25 337 30 355 2 8 7 44 10 80
3 36 8 72 11 81 3 10 6 30 8 46 10 80 70 341 82 361 16 25 32 27 54 9z m-1760
-2085 c0 -13 -12 -22 -22 -16 -10 6 -1 24 13 24 5 0 9 -4 9 -8z m5105 -363
c-2 -12 -5 -41 -6 -65 -4 -66 -22 -37 -21 35 0 32 4 70 8 83 7 23 7 23 15 -5
4 -16 6 -37 4 -48z m7 -847 c-8 -22 -21 6 -14 31 5 20 6 20 12 1 4 -10 5 -25
2 -32z m21 -97 c1 -5 -6 -11 -15 -13 -11 -2 -18 3 -18 13 0 17 30 18 33 0z"/>
<path d="M1888 5863 c7 -3 16 -2 19 1 4 3 -2 6 -13 5 -11 0 -14 -3 -6 -6z"/>
<path d="M5605 3500 c3 -5 8 -10 11 -10 2 0 4 5 4 10 0 6 -5 10 -11 10 -5 0
-7 -4 -4 -10z"/>
<path d="M5600 3460 c0 -5 5 -10 11 -10 5 0 7 5 4 10 -3 6 -8 10 -11 10 -2 0
-4 -4 -4 -10z"/>
<path d="M5670 1740 c0 -5 5 -10 11 -10 5 0 7 5 4 10 -3 6 -8 10 -11 10 -2 0
-4 -4 -4 -10z"/>
</g>
</svg>
