<?xml version="1.0" standalone="no"?>
<!DOCTYPE svg PUBLIC "-//W3C//DTD SVG 20010904//EN"
 "http://www.w3.org/TR/2001/REC-SVG-20010904/DTD/svg10.dtd">
<svg version="1.0" xmlns="http://www.w3.org/2000/svg"
 width="700.000000pt" height="700.000000pt" viewBox="0 0 700.000000 700.000000"
 preserveAspectRatio="xMidYMid meet">
<metadata>
Created by potrace 1.11, written by Peter Selinger 2001-2013
</metadata>
<g transform="translate(0.000000,700.000000) scale(0.100000,-0.100000)"
fill="#000000" stroke="none">
<path d="M2847 6993 c-2 -5 -4 -102 -3 -218 l1 -210 75 -1 c295 -6 343 -36
356 -224 2 -33 6 -2674 4 -3016 l0 -42 -637 -1 c-351 0 -646 0 -655 -1 -17 0
-18 -17 -18 -218 l0 -218 651 0 c358 1 653 -2 655 -6 5 -9 5 -2121 0 -2183
-15 -186 -57 -211 -366 -218 l-65 -2 -1 -218 0 -217 655 2 656 3 0 212 c1 242
11 220 -100 222 -233 2 -301 32 -319 141 -3 19 -8 49 -11 65 -4 23 -8 1550 -5
2125 l0 75 655 0 655 0 0 217 0 218 -67 0 c-38 1 -332 1 -655 1 l-588 0 0 127
c-2 922 2 2902 5 2950 12 169 65 199 360 205 l70 2 0 218 0 217 -652 0 c-358
0 -654 -3 -656 -7z"/>
<path d="M881 6115 c-4 -5 -7 -104 -7 -219 l1 -208 120 -2 c240 -5 281 -29
310 -181 4 -22 9 -1898 5 -2187 l0 -37 -602 0 c-332 0 -627 0 -656 -1 l-52 0
2 -437 3 -437 205 -1 c113 0 210 1 217 3 7 2 12 35 12 95 3 246 23 294 137
324 47 12 127 15 392 17 184 0 336 -3 339 -8 11 -18 4 -1309 -8 -1365 -28
-140 -60 -152 -414 -161 -7 0 -10 -77 -10 -217 l0 -218 655 0 655 0 2 217 3
218 -23 1 c-12 0 -62 2 -112 3 -210 6 -263 32 -292 141 -4 17 -9 828 -10 1803
l-3 1774 655 -656 c389 -389 655 -648 656 -638 1 21 1 625 0 633 -1 3 -394
399 -875 880 l-875 874 -211 0 c-133 0 -214 -3 -219 -10z"/>
<path d="M4813 5250 l-875 -875 0 -305 c0 -168 1 -315 1 -327 1 -16 165 142
656 634 l655 655 0 -1753 c-1 -1526 -3 -1762 -16 -1819 -30 -130 -59 -140
-411 -150 -10 0 -12 -51 -10 -217 l2 -218 648 0 c357 0 652 2 656 5 4 3 7 101
7 218 l0 212 -31 1 c-329 5 -378 28 -401 189 -5 39 -6 1328 -1 1337 6 9 624 8
682 -1 149 -24 178 -65 184 -261 2 -49 4 -108 5 -129 l1 -40 205 -1 c113 0
211 1 218 3 9 3 12 100 12 438 l0 434 -32 1 c-18 0 -313 0 -655 0 l-623 0 0
67 c-1 172 -1 1845 0 1982 2 187 17 270 57 305 37 32 114 47 251 50 62 2 116
6 120 10 8 8 10 424 2 426 -3 1 -101 2 -218 3 l-213 1 -876 -875z"/>
</g>
</svg>
