<svg xmlns="http://www.w3.org/2000/svg" viewBox="0 0 16 16" height="16px" width="16px">
    <path d="M13 1a1 1 0 1 0 0 2 1 1 0 0 0 0-2zM5.95 3.635c-.86 0-1.628.492-1.886 1.277H4V3.717H2V10h2V6.334c0-.548.505-.883.965-.883.46 0 1.023.335 1.035.883V10h2V6.334c0-.548.562-.883 1.021-.883.46 0 .979.335.979.883V10h4V3.719h-2v2.043c0-1.289-1.239-2.127-2.424-2.127-.919 0-1.66.508-1.869 1.277h-.064c-.13-.769-.823-1.277-1.694-1.277zM2.5 11c-.806 0-1.5.633-1.5 1.44v.12c0 .807.694 1.44 1.5 1.44h11c.806 0 1.5-.633 1.5-1.44v-.12c0-.807-.694-1.44-1.5-1.44zm0 1h11c.302 0 .5.204.5.44v.12c0 .236-.198.44-.5.44h-11c-.302 0-.5-.204-.5-.44v-.12c0-.236.198-.44.5-.44z" id="path-0" fill="#2f3033"/>
    <path d="M2.5 12c-.302 0-.5.203-.5.44v.12c0 .237.198.44.5.44H6v-1z" id="path-1" fill="#fcb4d9"/>
    <path d="M6 12h4v1H6z" id="path-2" fill="#c7b1ff"/>
    <path d="M10 12v1h3.5c.302 0 .5-.203.5-.44v-.12c0-.237-.198-.44-.5-.44z" id="path-3" fill="#70f8e4"/>

    <style>
      @media (prefers-color-scheme: dark) {
        #path-0 { fill: #fdfdff; }
        #path-1 { fill: #c8107c; }
        #path-2 { fill: #8439d1; }
        #path-3 { fill: #00a099; }
      }
    </style>
</svg>
