<?xml version="1.0" standalone="no"?>
<!DOCTYPE svg PUBLIC "-//W3C//DTD SVG 20010904//EN"
 "http://www.w3.org/TR/2001/REC-SVG-20010904/DTD/svg10.dtd">
<svg version="1.0" xmlns="http://www.w3.org/2000/svg"
 width="700.000000pt" height="700.000000pt" viewBox="0 0 700.000000 700.000000"
 preserveAspectRatio="xMidYMid meet">
<metadata>
Created by potrace 1.11, written by Peter Selinger 2001-2013
</metadata>
<g transform="translate(0.000000,700.000000) scale(0.100000,-0.100000)"
fill="#000000" stroke="none">
<path d="M3281 5193 c0 -995 0 -1831 -1 -1859 l0 -52 -632 -1 c-348 0 -643 0
-655 -1 l-23 0 0 -218 0 -217 648 0 c356 0 652 -1 657 -2 7 -2 9 -484 8 -1423
l-2 -1420 217 2 217 3 2 1360 c2 748 3 1387 3 1420 l0 60 655 0 655 0 0 217 0
218 -67 0 c-38 1 -332 1 -655 1 l-588 0 0 142 c0 78 0 915 -1 1860 l0 1717
-218 0 -219 0 -1 -1807z"/>
<path d="M1312 4738 c0 -761 -1 -1400 -1 -1420 l-1 -37 -602 0 c-332 0 -627 0
-655 -1 l-53 0 0 -218 0 -218 651 1 c369 0 653 -4 656 -9 3 -5 6 -447 6 -982
-1 -715 2 -974 11 -976 6 -3 103 -4 216 -4 l205 1 3 2078 2 2079 645 -645
c354 -354 650 -649 657 -655 11 -8 13 49 11 306 -1 175 -2 322 -2 328 -1 8
-1526 1541 -1714 1722 l-35 34 0 -1384z"/>
<path d="M4811 5248 l-873 -873 0 -300 c0 -165 1 -312 1 -326 1 -22 102 75
656 628 l655 655 2 -2079 3 -2078 205 -1 c113 0 210 1 217 4 9 3 11 239 11
977 0 536 2 978 5 982 3 4 298 8 656 8 l651 -1 0 218 0 218 -32 1 c-18 0 -313
0 -655 0 l-623 0 0 87 c-1 48 -1 687 -1 1420 0 732 -2 1332 -3 1332 -2 0 -395
-393 -875 -872z"/>
</g>
</svg>
