<svg xmlns="http://www.w3.org/2000/svg" viewBox="0 0 18 18" fill="currentColor" height="18px" width="18px">
    <path d="M17.5 9A8.5 8.5 0 0 1 9 17.5 8.5 8.5 0 0 1 .5 9 8.5 8.5 0 0 1 9 .5 8.5 8.5 0 0 1 17.5 9Z" opacity=".2"/>
    <path d="M9 0C4.035 0 0 4.035 0 9s4.035 9 9 9 9-4.035 9-9-4.035-9-9-9Zm0 1a7.992 7.992 0 0 1 7.861 6.518C13.757 11.685 10.858 13 8.812 13c-.892 0-1.53-.324-2.078-.691 1.465-.348 2.802-.897 4.079-1.918l.023-.02.023-.023c1.761-1.812 2.359-3.493 2.112-4.85-.247-1.357-1.356-2.27-2.645-2.492-1.289-.221-2.786.215-3.931 1.437S4.469 7.651 4.5 10.5v.002c0 .376.12.735.262 1.084-1.006.142-1.968.284-3.186.402A7.991 7.991 0 0 1 1 9c0-4.424 3.576-8 8-8Zm.605 2.951c.19-.004.376.01.553.041.948.163 1.661.759 1.83 1.686.168.922-.228 2.29-1.83 3.949-1.267 1.006-2.638 1.496-4.178 1.805-.178-.316-.48-.61-.48-.932v-.006c-.03-2.666.691-4.371 1.623-5.365.757-.808 1.661-1.161 2.482-1.178ZM17 8.98V9c0 4.424-3.576 8-8 8a7.989 7.989 0 0 1-6.96-4.053 58.948 58.948 0 0 0 3.325-.44C6.123 13.376 7.305 14 8.812 14 11.11 14 14.01 12.658 17 8.979Z"/>
</svg>
