<svg xmlns="http://www.w3.org/2000/svg" viewBox="0 0 18 18" fill="currentColor" height="18px" width="18px">
    <path d="M4 1C2.347 1 1 2.346 1 4v10c0 1.653 1.347 3 3 3h10c1.653 0 3-1.347 3-3V4c0-1.654-1.347-3-3-3Zm0 1h10c1.117 0 2 .883 2 2v10c0 1.116-.883 2-2 2h-3v-4h3V9h-3v-.9c0-.6.6-1.1 1.2-1.1H14V4h-3C9 4 8.157 5.701 8.1 6.9L8 9H6v3h2v4H4c-1.117 0-2-.884-2-2V4c0-1.117.883-2 2-2Z"/>
    <path d="M4 2h10c1.108 0 2 .892 2 2v10c0 1.108-.892 2-2 2H4c-1.108 0-2-.892-2-2V4c0-1.108.892-2 2-2Z" opacity=".2"/>
</svg>
