<svg xmlns="http://www.w3.org/2000/svg" viewBox="0 0 18 18" fill="currentColor" height="18px" width="18px">
    <path d="M9 1.5A7.5 7.5 0 0 0 1.5 9v5c0 1.385 1.115 2.5 2.5 2.5h5A7.5 7.5 0 0 0 16.5 9 7.5 7.5 0 0 0 9 1.5Z" opacity=".2"/>
    <path d="M9 1C4.588 1 1 4.588 1 9v5c0 1.653 1.347 3 3 3h5c4.412 0 8-3.588 8-8s-3.588-8-8-8Zm0 1c3.872 0 7 3.128 7 7s-3.128 7-7 7H4c-1.117 0-2-.883-2-2V9c0-3.872 3.128-7 7-7Zm1.5 2c-.861 0-1.562.327-1.969.896C8.124 5.466 8 6.194 8 7v2H6c-1.65 0-3 1.35-3 3s1.35 3 3 3 3-1.35 3-3v-2h1.5a.5.5 0 0 0 0-1H9V7c0-.694.126-1.216.344-1.521C9.562 5.173 9.86 5 10.5 5 12 5 12 6 12 7.5a.5.5 0 0 0 1 0c.016-2-.5-3.5-2.5-3.5ZM6 10h2v2c0 1.11-.89 2-2 2-1.11 0-2-.89-2-2 0-1.11.89-2 2-2Z"/>
</svg>
