<svg xmlns="http://www.w3.org/2000/svg" viewBox="0 0 18 18" fill="currentColor" height="18px" width="18px">
    <path d="M5.516 1c-.033 0-.066.002-.098.004h-.025l-.016.002h-.004c-.085.007-.158.03-.234.049h-.055l-.08.027a1.502 1.502 0 0 0-.957 1.055l-.624 2.2c-.15.301-.424.942-.424 1.663 0 1.662 1.123 2.915 2.566 3.506-.2.334-.435.668-.496 1.004-.029.174-.048 1.312-.056 1.489-1.002-.002-1.88-.166-2.207-.373-.414-.262-.545-.598-.627-1.062-.081-.464-.055-1.007-.206-1.543-.078-.27-.217-.555-.478-.76-.26-.206-.609-.299-.996-.299-.666 0-.666 1 0 1 .238 0 .328.047.378.086.049.039.093.1.135.246.083.292.078.845.183 1.443.106.6.382 1.293 1.076 1.733.547.346 1.61.528 2.729.53v2.5c0 .357.226.645.467.817.24.172.52.282.836.37 1.507.382 3.95.241 5.394 0 .316-.088.596-.198.836-.37s.467-.46.467-.816V11c0-.583-.316-1.027-.604-1.47C13.861 8.948 15 7.677 15 6c0-.722-.276-1.362-.423-1.663l-.622-2.2a1.504 1.504 0 0 0-.959-1.055l-.08-.027h-.053c-.076-.02-.149-.042-.234-.05h-.006l-.016-.001h-.025a1.49 1.49 0 0 0-.996.307L10.689 2H7.311l-.897-.69c-.26-.2-.576-.307-.898-.31ZM5.45 2.002h.008a.501.501 0 0 1 .345.102L6.97 3h4.058l1.166-.896a.501.501 0 0 1 .346-.102h.006c.04.004.08.012.117.025h.002c.158.058.276.19.318.352l.44 1.81.059.165.003.007c.31.473.514 1.03.514 1.639 0 1.408-.987 2.526-2.31 2.85l-.82.2.57.624c.342.373.56.823.56 1.326v4.47l-.049.034a1.85 1.85 0 0 1-.521.22c-1.327.317-3.55.214-4.859 0a1.857 1.857 0 0 1-.523-.22L6 15.47v-3.44c0-.553-.01-.985.055-1.342.065-.356.186-.651.513-1.025l.542-.62-.798-.194C4.987 8.526 3.999 7.408 3.999 6c0-.616.204-1.177.52-1.65l.056-.162.44-1.81a.509.509 0 0 1 .319-.35h.002a.5.5 0 0 1 .114-.026Z"/>
    <path d="M5.414 1.503a1 1 0 0 0-.238.051H5.17a1.006 1.006 0 0 0-.639.703l-.474 1.9.074-.165A3.488 3.488 0 0 0 3.5 5.999c0 1.644 1.162 2.962 2.691 3.336-.718.967-.691 1.56-.691 2.696v2.968c0 1.5 7 1.5 7 0v-4c0-.648-.283-1.218-.691-1.664C13.339 8.961 14.5 7.643 14.5 6c0-.744-.234-1.44-.63-2.007l.074.166-.475-1.9a1.004 1.004 0 0 0-.639-.704h-.006a1 1 0 0 0-.238-.05h-.004a1 1 0 0 0-.691.203L10.86 2.5H7.14l-1.03-.792a1 1 0 0 0-.692-.204Z" opacity=".2"/>
</svg>
