<svg xmlns="http://www.w3.org/2000/svg" viewBox="0 0 18 18" fill="currentColor" height="18px" width="18px">
    <path d="M5.04 2C3.5 2 2 3.913 2 5.02v7.011C2 15 3 16 5.997 16h6.524C14.5 16 16 14.5 16 12.939v-7.88c0-1.06-1.5-3.06-3.015-3.06zm3.956 4A3 3 0 0 1 12 8.994V9a3 3 0 1 1-3.004-3Z" opacity=".2"/>
    <path d="M5.5 1A4.501 4.501 0 0 0 1 5.5v7C1 14.984 3.016 17 5.5 17h7c2.484 0 4.5-2.016 4.5-4.5v-7C17 3.015 14.984 1 12.5 1Zm0 1h7C14.448 2 16 3.552 16 5.5v7c0 1.947-1.552 3.5-3.5 3.5h-7A3.481 3.481 0 0 1 2 12.5v-7C2 3.552 3.552 2 5.5 2Zm7.498 1A1 1 0 1 0 14 4v-.002A1 1 0 0 0 12.998 3ZM8.994 5A4.008 4.008 0 0 0 5 9.004 4.008 4.008 0 0 0 9.002 13c2.137-.001 3.86-1.704 3.96-3.817v-.002C12.966 9.118 13 9.064 13 9v-.008c0-.049-.026-.09-.027-.137-.001-.017-.01-.03-.01-.047v-.002c-.107-2.112-1.832-3.81-3.969-3.807Zm.002 1A2.992 2.992 0 0 1 12 8.994l.002.002L12 9a2.992 2.992 0 0 1-2.998 3c-1.662 0-3-1.334-3.002-2.996A2.994 2.994 0 0 1 8.996 6Z"/>
</svg>
