<svg xmlns="http://www.w3.org/2000/svg" viewBox="0 0 18 18" fill="currentColor" height="18px" width="18px">
    <path d="M10.635.096c-.23.344-1.004.27-1.536.25a8.386 8.43 0 0 0-3.504.708c-1.016-.057-1.77.944-2.387 1.655-.464.508-.992 1.039-1.049 1.727-.073.345-.974.934-.485.228-.226-1.007-.913.634-1.01 1.016C.218 6.98.134 8.372.199 9.735c-.593.664.556.592.698.746.203.336.707.208.627.823.034.71.894 1.625.774 2.064-.799.023.35 1.172.612 1.493.137.128-.443-.176-.056.297-.037.261.772.5.276.472 1.075 1.436 2.924 1.98 4.62 2.228 2.672.25 5.501-.501 7.528-2.31.65-1.078 1.33-2.148 1.935-3.247.372-.723.954-1.54.69-2.389-.2-1.046.059-2.171-.404-3.173-.3-1.146-.462-2.418-1.36-3.282-.553-.663-1.446-1.002-1.873-1.76-.45-1.08-1.74-.443-2.517-1.043-.367-.192-.715-.443-1.114-.558ZM3.13 15.629l-.106-.161c-.087.056.096.158.106.162zM9.44 1.125c2.078.023 4.14.888 5.528 2.463.287.186 1.231 1.742.823.76-.372-.946.8.992.657 1.521.308.803.661.669.75 1.57.41 1.464.158 3-.285 4.42-.659.383-.879 1.231-1.22 1.857.01.684-.902 1.474-1.581 1.742-1.05.402-2.03.986-3.1 1.324a8.906 8.954 0 0 1-2.495.154c-1.293.05-2.704-.181-3.602-1.21C4 14.65 3.104 13.54 2.374 12.33c-.88-1.598-1.093-3.53-.8-5.317.217-1.348 1.311-2.231 2.094-3.253.352-1.006 1.204-1.655 2.228-1.898 2.347-.628 4.84-.045 7.03.88.782.372-.3-.796-.7-.81-1.011-.453-2.112-.667-3.204-.8.14-.007.278-.008.417-.007zm-3.36.707-.171.04c-.877.17-.114.446.171-.04Zm3.27.695a6.632 6.668 0 0 0-6.633 6.667c.007 2.394 1.348 4.896 3.628 5.937-2.564-4.168-1.324-7.62 3.337-9.024.829-.207-.35-.939-.404-1.671-.043-.612 1.728-1.388.834-1.863a6.612 6.647 0 0 0-.763-.045Zm-6.737 1.48c-.13.345-.857 1.5-.797 1.168.234-.41.5-.803.797-1.169Zm11.69 1.026c-.576.028-2.214 1.337-2.725 2.842-.898 2.021-.22 4.53-1.866 6.25-1.243.937-1.576 1.264-3.138 1.122a6.63 6.666 0 0 0 8.12-9.998c-.14-.136-.271-.221-.392-.216Zm-.17 1.61c.072.173.2.37.316.43.248.12.449.491.416.769a.643.646 0 0 1-.298.44c-.064.028-.006-.226-.132-.4-.09-.125-.165-.12-.259-.24a.646.65 0 0 1-.13-.34.652.655 0 0 1-.27.247c-.136.064-.227-.019-.416.084-.196.106-.282.378-.3.3-.096-.16-.042-.34.012-.516.091-.265.437-.506.713-.502.171.016.222-.158.35-.272zm-.174 1.053c.087.371.223.51.262.87.04.36-.122.74-.467.617-.146-.05-.22-.3-.12-.597-.122.286-.402.422-.536.345-.39-.226-.023-.673.237-.77.257-.098.444-.26.624-.465zm-2.954 1.08c-.99.74-3.24.657-2.755 3.543 1.17-1.176 2.582-.575 2.756-3.543ZM1.81 13.874c-.695.207.065.958 0 0zm14.367 1.1c-.634.11.334.217 0 0zm-11.893.733c.389.121 1.434.802.43.3a64.972 65.323 0 0 0-.43-.3Zm8.863.873c-.409.263-1.103.595-.298.172.101-.054.198-.116.298-.172zm-6.229.713c.582.11 1.962.08 2.024.128-.676.122-1.378.142-2.024-.128z"/>
    <path d="M9.787 18c.134-.392.9-.522 1.419-.64a8.386 8.43 0 0 0 3.203-1.596c.995-.208 1.466-1.372 1.88-2.219.316-.612.69-1.263.568-1.942-.018-.351.701-1.156.41-.346.479.914.718-.85.714-1.245.095-1.372-.18-2.737-.594-4.037.401-.796-.691-.429-.868-.54-.282-.272-.736-.017-.818-.632-.214-.676-1.281-1.336-1.278-1.792.765-.23-.64-1.04-.975-1.283-.166-.088.471.054-.023-.302-.032-.26-.875-.28-.389-.383C11.63-.065 9.703-.107 8.002.093 5.358.548 2.818 2.01 1.326 4.285.974 5.494.593 6.704.29 7.923c-.173.796-.527 1.735-.052 2.486.462.96.504 2.112 1.206 2.96.588 1.029 1.072 2.216 2.16 2.818.705.496 1.657.59 2.263 1.213.714.927 1.793-.026 2.699.352.404.09.805.241 1.221.248Zm3.25-16.957.144.13c.07-.078-.133-.129-.145-.13zM11.078 16.58c-2.116.672-4.512.41-6.375-.825-.326-.105-1.638-1.363-.992-.52.605.817-1.027-.749-1.026-1.296-.504-.695-.809-.476-1.127-1.323C.786 11.308.635 9.758.697 8.272c.538-.542.53-1.417.699-2.111-.185-.658.492-1.657 1.08-2.092.908-.662 1.707-1.482 2.653-2.086a8.902 8.95 0 0 1 2.369-.8c1.236-.384 2.66-.527 3.791.233 1.162.8 2.312 1.637 3.327 2.619C15.88 5.35 16.582 7.159 16.76 8.96c.136 1.36-.693 2.5-1.185 3.688-.082 1.064-.738 1.914-1.665 2.415-2.104 1.217-4.662 1.303-7.014.979-.853-.157.491.69.884.6 1.091.173 2.21.095 3.3-.062zm2.66-1.442c.153-.544.96-.474.159-.082zm2.789-3.002c.038-.368.443-1.672.471-1.336a8.397 8.442 0 0 1-.471 1.336zm-1.765-9.74c.618-.38-.31-.906 0 0zM.603 5.075c.584-.27-.378-.123 0 0zm11.751-3.651c-.033.004-.142-.057 0 0zm-.451-.153c-.408-.016-1.594-.4-.496-.177ZM3.118 2.735c.326-.361.909-.864.24-.245-.082.079-.158.164-.24.245Zm.82-.771.078-.063ZM8.95.422c-.59.045-1.917.432-1.988.402C7.585.53 8.254.33 8.95.423Z" opacity=".2"/>
</svg>
