<svg xmlns="http://www.w3.org/2000/svg" viewBox="0 0 18 18" fill="currentColor" height="18px" width="18px">
    <path d="M8.975.5C6.92.517 4.442.738 3.29 1.265c0 0-2.8 1.517-2.8 4.988 0 .795-.016 1.745.01 2.753.083 3.394 1.14 7.24 4.294 8.07 1.454.383 2.703.463 3.709.408 1.497 0 2.997.016 2.997.016v-2H8.523c-2.523 0-4.023-2-4.023-3 0 0 2.522.997 4.523.997 2.477 0 3.477-.229 4.477-.497 4.007-1.201 3.989-2.879 3.989-6.747s-2.775-4.988-2.775-4.988C13.56.738 11.08.517 9.024.5z" opacity=".2"/>
    <path d="M8.97 0C3.837-.027.128 1.654-.01 6.254c0 .788-.016 1.744.01 2.766.043 1.743.33 3.608 1.04 5.187.708 1.58 1.878 2.892 3.626 3.352 1.506.396 2.808.481 3.863.423l-.025.002c1.493 0 2.99.016 2.99.016a.5.5 0 0 0 .506-.5v-2a.5.5 0 0 0-.5-.5H8.523a3.857 3.857 0 0 1-2.623-.996c-.258-.234-.234-.395-.38-.637.938.3 2.182.631 3.503.631 2.508 0 3.594-.244 4.606-.516a.336.336 0 0 0 .014-.003c2.065-.62 3.237-1.432 3.806-2.64.57-1.206.54-2.652.54-4.585 0-2.054-.754-3.44-1.518-4.281-.76-.836-1.55-1.16-1.56-1.164C13.555.194 11.11.017 9.026 0a.5.5 0 0 0-.004 0h-.048a.5.5 0 0 0-.004 0zm.005 1h.048c2.023.017 4.528.285 5.483.72a.496.496 0 0 0 .021.009s.58.23 1.203.916c.624.685 1.258 1.794 1.258 3.609 0 1.935-.02 3.261-.443 4.16-.423.897-1.246 1.522-3.18 2.104-.987.264-1.899.48-4.342.48-1.834 0-4.34-.963-4.34-.963A.5.5 0 0 0 4 12.5c0 .75.46 1.548 1.23 2.246A4.877 4.877 0 0 0 8.523 16H11v.998c-.385-.004-1.248-.014-2.496-.014a.5.5 0 0 0-.027 0c-.958.053-2.153-.023-3.555-.392-1.407-.37-2.342-1.395-2.97-2.795-.63-1.4-.912-3.153-.952-4.803v-.002C.974 7.998.99 7.056.99 6.254 1.103 1.43 5.48 1.045 8.975 1zM6.75 4A2.744 2.744 0 0 0 4 6.75V10h2V7c0-.554.446-1 1-1s1 .446 1 1v2h2l.008-2c0-1.333 2-1.333 2 0v3H14c0-2-.003-2-.004-3.25A2.744 2.744 0 0 0 11.246 4a2.74 2.74 0 0 0-2.248 1.166A2.74 2.74 0 0 0 6.75 4z"/>
</svg>
