<svg xmlns="http://www.w3.org/2000/svg" viewBox="0 0 18 18" fill="currentColor" height="18px" width="18px">
    <path d="M6.302 2.5c-.83 0-1.645.669-1.825 1.5l-.326 1.5L2.523 13c-.18.83.344 1.5 1.175 1.5h1c.83 0 1.645-.67 1.825-1.5L7.5 8.5h2c1.662 0 3.548-1.338 3.908-3 .361-1.662-.944-3-2.606-3h-3c-.101 0-.201.006-.302.015a1.41 1.41 0 0 0-.198-.015Z" opacity=".2"/>
    <path d="M13.5 4.5c.042.313.031.649-.045 1-.36 1.662-2.293 3-3.955 3h-2L6.523 13c-.103.477-.416.9-.82 1.174l-.18.826c-.18.831.343 1.5 1.174 1.5h1c.831 0 1.646-.669 1.826-1.5l.977-4.5h2c1.662 0 3.587-1.338 3.948-3 .36-1.662-.679-3-2.34-3z" opacity=".4"/>
    <path d="M6.303 2c-1.1 0-2.08.813-2.315 1.895l-.326 1.5-1.627 7.5c-.117.54-.007 1.078.303 1.474.31.396.81.631 1.36.631h1c.109 0 .217-.01.323-.025-.09.513.022 1.018.317 1.394.31.396.81.631 1.36.631h1c1.099 0 2.079-.813 2.314-1.895l.89-4.105H12.5c.965 0 1.948-.375 2.76-.975.811-.6 1.462-1.436 1.676-2.42.207-.955.014-1.867-.506-2.535C15.91 4.403 15.073 4 14.107 4h-.306a2.836 2.836 0 0 0-.567-.957C12.646 2.39 11.768 2 10.803 2h-3a3.52 3.52 0 0 0-.307.016C7.436 2.009 7.376 2 7.303 2Zm0 1h1c.036 0 .076.005.127.012a.5.5 0 0 0 .117.002A2.86 2.86 0 0 1 7.803 3h3c.697 0 1.3.28 1.69.71.388.432.575 1.003.427 1.685-.148.681-.631 1.344-1.277 1.828a4.08 4.08 0 0 1-1.325.658 3.488 3.488 0 0 1-.552.105c-.09.01-.179.014-.266.014h-2a.5.5 0 0 0-.488.395l-.977 4.5a1.048 1.048 0 0 1-.03.107L6 13.02c-.01.03-.022.06-.035.09l-.006.011a1.29 1.29 0 0 1-.045.092c-.244.441-.76.787-1.217.787h-1c-.281 0-.457-.1-.572-.246-.115-.147-.176-.358-.113-.649l1.629-7.5.324-1.5C5.09 3.525 5.74 3 6.303 3Zm7.668 2h.136c.697 0 1.209.267 1.534.684.324.417.471 1.004.318 1.71-.147.679-.638 1.342-1.295 1.827-.656.485-1.467.779-2.164.779h-2a.5.5 0 0 0-.488.395l-.977 4.5C8.91 15.475 8.26 16 7.697 16h-1c-.281 0-.457-.1-.572-.246-.115-.146-.176-.358-.113-.649l.134-.62c.429-.34.745-.825.866-1.38L7.902 9H9.5a4.09 4.09 0 0 0 1.084-.15 5.14 5.14 0 0 0 1.678-.825c.813-.599 1.468-1.435 1.681-2.42.046-.21.02-.403.028-.605Z"/>
</svg>
