<svg xmlns="http://www.w3.org/2000/svg" viewBox="0 0 18 18" fill="currentColor" height="18px" width="18px">
    <path d="M2 5C.9 5 0 5.9 0 7v2c0 1.367.495 2.432 1.26 3.115.765.683 1.77.983 2.758.947.987-.035 1.973-.401 2.726-1.091C7.497 11.28 8 10.255 8 9v-.514a.386.386 0 0 1 .086-.18c.09-.12.274-.298.914-.298s.823.179.914.299c.068.09.083.153.086.18V9c0 1.255.503 2.28 1.256 2.97.753.69 1.739 1.057 2.726 1.092.988.036 1.991-.264 2.756-.947C17.503 11.432 18 10.367 18 9V7c0-1.1-.9-2-2-2Zm0 1h4c.563 0 1 .437 1 1v2c0 .995-.372 1.72-.932 2.232-.56.514-1.323.803-2.086.83-.762.028-1.507-.204-2.054-.693C1.38 10.88 1 10.133 1 9V7c0-.563.437-1 1-1Zm5.729 0h2.542A1.98 1.98 0 0 0 10 7v.186a2.672 2.672 0 0 0-1-.178c-.395 0-.728.068-1 .178V7c0-.364-.1-.705-.271-1ZM12 6h4c.563 0 1 .437 1 1v2c0 1.133-.378 1.88-.926 2.37-.547.488-1.294.72-2.056.693-.763-.028-1.527-.317-2.086-.83C11.372 10.718 11 9.994 11 9V7c0-.563.437-1 1-1z"/>
    <path d="M2 6c-.563 0-1 .437-1 1v2c0 .334.035.634.096.904L5 6Zm10 0c-.563 0-1 .437-1 1v2c0 .324.04.618.113.887L15 6Zm-5.29.29-4.93 4.93c.048.052.096.103.148.15.547.488 1.292.72 2.054.693.763-.028 1.527-.317 2.086-.83C6.628 10.718 7 9.994 7 9V7a.997.997 0 0 0-.29-.71Zm10 0-4.86 4.86c.027.028.053.056.082.082.56.514 1.323.803 2.086.83.762.028 1.509-.204 2.056-.693C16.622 10.88 17 10.133 17 9V7a.997.997 0 0 0-.29-.71Z" opacity=".2"/>
</svg>
