<svg xmlns="http://www.w3.org/2000/svg" xml:space="preserve" viewBox="0 0 18 18" fill="currentColor" height="18px" width="18px">
    <path d="M14.5 6.5v-2c-2 0-3-1-3-3h-2V12c0 1.471-1.274 2.5-2.5 2.5-1.5 0-2.5-.953-2.5-2.453s1-2.547 3-2.547V7.486c-3.5 0-5 1.91-5 4.56 0 2.493 1.95 4.45 4.5 4.454 2 0 4.5-1.5 4.5-4.5V5.5c.5.866 2 1 3 1z" opacity="0.2"/>
    <path d="M9.5 1a.5.5 0 0 0-.5.5V12c0 1.182-1.054 2-2 2-.644 0-1.13-.199-1.463-.523-.334-.325-.537-.791-.537-1.43 0-.639.197-1.117.584-1.465C5.971 10.234 6.587 10 7.5 10a.5.5 0 0 0 .5-.5V7.486a.5.5 0 0 0-.5-.5c-1.841 0-3.242.512-4.166 1.432C2.41 9.338 2 10.628 2 12.047 2 14.8 4.195 16.996 7 17a5.191 5.191 0 0 0 3.326-1.246C11.3 14.92 12 13.639 12 12V6.36c.249.129.422.383.69.45.629.16 1.288.19 1.81.19a.5.5 0 0 0 .5-.5v-2a.5.5 0 0 0-.5-.5c-.917 0-1.514-.221-1.896-.604C12.22 3.014 12 2.416 12 1.5a.5.5 0 0 0-.5-.5Zm.5 1h1.074c.08.846.31 1.59.822 2.104.514.513 1.258.742 2.104.822v1.023c-.36-.019-.727-.024-1.064-.11-.496-.124-.855-.334-1.002-.589A.5.5 0 0 0 11 5.5V12c0 1.361-.55 2.33-1.326 2.996C8.897 15.662 7.875 16 7 16c-2.295-.004-4-1.722-4-3.953 0-1.23.34-2.223 1.041-2.92.617-.614 1.614-.975 2.959-1.066v1.011c-.843.081-1.575.31-2.084.768-.613.55-.916 1.346-.916 2.207 0 .861.297 1.62.838 2.146C5.379 14.72 6.144 15 7 15c1.506 0 3-1.24 3-3z"/>
</svg>
