<svg xmlns="http://www.w3.org/2000/svg" viewBox="0 0 18 18" fill="currentColor" height="18px" width="18px">
    <path d="M13.016 2.5C11.074 2.5 9.5 4.048 9.5 5.957c.002.16 0 .543 0 .543s-.32-.004-.5 0c-2.5 0-4.873-1.03-6.5-4-.373.97-1 2-1 3.473.003 3 2 5.527 5 6.527-1 1-2.5 2-5 2 1.5.855 3.832.997 5.5 1 5.123-.003 9.27-2.5 9.488-9.037a3.41 3.41 0 0 0 .043-.506c0-.24.016-.23-.031-.457 1-1 1-2 1-3-1.5 1-1.5 1-2 1h-.014a3.532 3.532 0 0 0-2.47-1z" opacity=".2"/>
    <path d="M13.016 2C10.808 2 9 3.774 9 5.958a.5.5 0 0 0 0 .006v.037c-2.363 0-4.509-.908-6.06-3.74a.5.5 0 0 0-.907.06C1.685 3.226 1 4.358 1 5.973c.003 2.927 1.837 5.374 4.545 6.604-.909.754-2.076 1.424-4.045 1.424a.5.5 0 0 0-.248.933c1.673.954 4.052 1.064 5.748 1.067 2.643-.002 5.086-.646 6.906-2.186 1.82-1.54 2.967-3.96 3.08-7.33l.002-.004c.025-.172.042-.344.043-.517a.5.5 0 0 0 0-.006c0-.143-.016-.252-.027-.366.886-1.047.996-2.167.996-3.091a.5.5 0 0 0-.777-.416c-.75.5-1.13.748-1.32.843-.148.074-.199.06-.311.057-.726-.61-1.622-.986-2.576-.984Zm0 1a.5.5 0 0 0 .002 0 3.028 3.028 0 0 1 2.119.86.5.5 0 0 0 .35.14h.013c.25 0 .538-.022.848-.177.127-.063.417-.265.586-.371-.062.573-.212 1.12-.788 1.695a.5.5 0 0 0-.136.455c.042.206.022.1.021.352-.001.144-.014.29-.037.431a.5.5 0 0 0-.006.063c-.105 3.165-1.14 5.26-2.728 6.603-1.588 1.344-3.78 1.948-6.26 1.95-1.07-.002-2.334-.15-3.508-.412 1.443-.39 2.625-.999 3.361-1.735a.5.5 0 0 0-.195-.828C3.835 11.085 2.003 8.752 2 5.973c0-.968.306-1.718.623-2.457C4.309 5.979 6.621 7.001 9 7.001a.5.5 0 0 0 .012 0c.16-.004.482 0 .482 0A.5.5 0 0 0 10 6.503s.002-.369 0-.545c0-1.634 1.34-2.957 3.016-2.957z"/>
</svg>
