<svg xmlns="http://www.w3.org/2000/svg" viewBox="0 0 18 18" fill="currentColor" height="18px" width="18px">
    <path d="M4 1C2.347 1 1 2.347 1 4v10c0 1.653 1.347 3 3 3h10c1.653 0 3-1.347 3-3V4c0-1.653-1.347-3-3-3Zm0 1h10c1.117 0 2 .883 2 2v10c0 1.117-.883 2-2 2H4c-1.117 0-2-.883-2-2V4c0-1.117.883-2 2-2Zm9.496 2-3 .012a.5.5 0 0 0-.498.5c0 1.71.127 3.287-.785 4.79-.568-1.919-.809-3.236-1.23-4.923a.5.5 0 0 0-.504-.348l.019-.02h-.049a.5.5 0 0 0-.02 0h-2.93a.5.5 0 0 0-.486.618c.864 3.582 1.403 6.573 2 8.99a.5.5 0 0 0 .486.381h4a.5.5 0 0 0 .28-.086c.93-.628 1.652-1.898 2.228-3.3.576-1.403.968-2.927.992-4.104a.5.5 0 0 0 0-.002c.01-.72 0-1.011 0-2.008a.5.5 0 0 0-.502-.5Zm-.498 1.002c.002.533.007.962 0 1.492-.02.964-.379 2.432-.916 3.74-.522 1.27-1.244 2.349-1.807 2.766H6.898c-.517-2.151-1.04-4.85-1.777-7.988h1.99c.406 1.742.467 2.894 1.414 5.65a.5.5 0 0 0 .838.18c1.776-1.898 1.648-3.994 1.62-5.832z"/>
    <path d="M4 2c-1.108 0-2 .892-2 2v10c0 1.108.892 2 2 2h10c1.108 0 2-.892 2-2V4c0-1.108-.892-2-2-2Zm3.498 2.5c.5 2 .5 3.09 1.5 6 1.787-1.91 1.5-4 1.5-5.988l3-.012c0 1 .01 1.286 0 2-.044 2.141-1.5 5.988-3 7h-4c-.59-2.391-1.132-5.39-2-8.988h3z" opacity=".2"/>
</svg>
