<svg xmlns="http://www.w3.org/2000/svg" viewBox="0 0 18 18" fill="currentColor" height="18px" width="18px">
    <path d="M9 2.5C5 2.536.5 3 .5 6v6c0 3 3.5 3.569 8.5 3.5 5 0 8.5-.5 8.5-3.5V6c0-3-4.5-3.446-8.5-3.5ZM6.502 5c.086 0 .173.023.25.068l6 3.5a.5.5 0 0 1 0 .864l-6 3.5A.5.5 0 0 1 6 12.5v-7a.5.5 0 0 1 .502-.5Z" opacity=".2"/>
    <path d="M8.996 2c-2.018.018-4.174.136-5.892.66-.86.262-1.617.627-2.184 1.172A2.961 2.961 0 0 0 0 6v6c0 .847.262 1.584.746 2.148.484.565 1.163.954 1.969 1.227 1.611.546 3.77.66 6.289.625 2.515 0 4.67-.114 6.28-.65.805-.269 1.483-.65 1.968-1.21.485-.559.748-1.293.748-2.14V6c0-.875-.353-1.622-.92-2.166-.567-.544-1.326-.907-2.185-1.168-1.719-.522-3.873-.639-5.89-.666h-.008Zm-.002 1h.01c1.98.027 4.073.159 5.601.623.766.233 1.382.549 1.784.934.401.385.611.818.611 1.443v6c0 .653-.174 1.106-.502 1.484-.328.378-.837.685-1.531.916-1.39.464-3.484.6-5.967.6h-.008c-2.48.034-4.57-.102-5.957-.572-.694-.235-1.202-.548-1.531-.932C1.175 13.112 1 12.653 1 12V6c0-.625.21-1.06.611-1.447.402-.387 1.02-.702 1.785-.936C4.925 3.151 7.015 3.018 8.994 3ZM6.416 5.008a.5.5 0 0 0-.164.058A.5.5 0 0 0 6 5.5v7a.5.5 0 0 0 .752.432l6-3.5a.5.5 0 0 0 0-.864l-6-3.5a.5.5 0 0 0-.336-.06ZM7 6.37 11.508 9 7 11.629Z"/>
</svg>
