<svg xmlns="http://www.w3.org/2000/svg" viewBox="0 0 18 18" fill="currentColor" height="18px" width="18px">
    <path d="M12.842.984C11.345.97 9.64 1.415 8.006 2.072 5.39 3.124 2.95 4.746 1.937 6.5A7.008 7.008 0 0 0 4.5 16.063a7.005 7.005 0 0 0 7.338-.211l1.408.812a2.507 2.507 0 0 0 3.416-.916 2.505 2.505 0 0 0-.916-3.414l-.793-.457c.708-1.364 1.43-2.968 1.832-4.543.29-1.13.418-2.25.22-3.266-.196-1.015-.758-1.931-1.755-2.502h-.002c-.686-.395-1.508-.572-2.406-.582Zm-.018 1.041c.778.001 1.446.13 1.926.407l.002.002c.752.43 1.119 1.03 1.273 1.826.155.795.058 1.783-.209 2.826-.466 1.826-1.443 3.807-2.275 5.305a47.82 47.82 0 0 1-.346.609 6.134 6.134 0 0 1-.26.41c-.024.036-.048.073-.074.108a5.982 5.982 0 0 1-.183.24l-.03.035-.011.016a5.89 5.89 0 0 1-.182.21l-.01.012-.027.03a5.99 5.99 0 0 1-.389.386l-.025.024-.037.031a5.974 5.974 0 0 1-.444.355.5.5 0 0 0-.003.004 5.991 5.991 0 0 1-6.52.336A5.994 5.994 0 0 1 2.803 7c.782-1.355 3.103-3.005 5.576-4 1.546-.622 3.148-.976 4.445-.975ZM11 4a1 1 0 0 0-1 1 1 1 0 0 0 1 1 1 1 0 0 0 1-1 1 1 0 0 0-1-1zm2 2a1 1 0 0 0-1 1 1 1 0 0 0 1 1 1 1 0 0 0 1-1 1 1 0 0 0-1-1ZM6 7a1 1 0 0 0-1 1 1 1 0 0 0 1 1 1 1 0 0 0 1-1 1 1 0 0 0-1-1Zm3 0a1 1 0 0 0-1 1 1 1 0 0 0 1 1 1 1 0 0 0 1-1 1 1 0 0 0-1-1Zm-3 3a1 1 0 0 0-1 1 1 1 0 0 0 1 1 1 1 0 0 0 1-1 1 1 0 0 0-1-1zm3 0a1 1 0 0 0-1 1 1 1 0 0 0 1 1 1 1 0 0 0 1-1 1 1 0 0 0-1-1zm5.479 2.76.767.441c.728.42.969 1.32.549 2.047a1.486 1.486 0 0 1-2.049.549l-1.05-.606a6.99 6.99 0 0 0 1.216-1.45l.025-.04c.044-.065.086-.132.126-.201.064-.112.133-.233.203-.36l.039-.072z"/>
    <path d="M12.834 1.506C9.203 1.483 3.829 4.224 2.371 6.75a6.5 6.5 0 0 0 9.445 8.512l1.68.968c.96.554 2.179.228 2.733-.732a1.994 1.994 0 0 0-.733-2.73l-1.209-.698C16.045 8.786 18.1 3.77 15 2c-.583-.337-1.328-.489-2.166-.494Zm.795 11.744zm-.197.32zm-.184.266zm-.21.273c-.05.06-.1.118-.151.176.05-.058.101-.116.15-.176z" opacity=".2"/>
</svg>
