<?xml version="1.0" encoding="UTF-8" standalone="no"?>
<!-- Created with Inkscape (http://www.inkscape.org/) -->

<svg
   version="1.1"
   id="svg2"
   width="146"
   height="128"
   viewBox="0 0 146 128"
   sodipodi:docname="inset-pictogram.svg"
   inkscape:version="1.1 (c68e22c387, 2021-05-23)"
   inkscape:export-filename="/home/micahilbery/Projects/micahilbery.github.io/assets/images/edw/inset-pictogram.png"
   inkscape:export-xdpi="288"
   inkscape:export-ydpi="288"
   xmlns:inkscape="http://www.inkscape.org/namespaces/inkscape"
   xmlns:sodipodi="http://sodipodi.sourceforge.net/DTD/sodipodi-0.dtd"
   xmlns:xlink="http://www.w3.org/1999/xlink"
   xmlns="http://www.w3.org/2000/svg"
   xmlns:svg="http://www.w3.org/2000/svg">
  <defs
     id="defs6">
    <linearGradient
       inkscape:collect="always"
       id="linearGradient2062">
      <stop
         style="stop-color:#452981;stop-opacity:1"
         offset="0"
         id="stop2058" />
      <stop
         style="stop-color:#7239b3;stop-opacity:1"
         offset="1"
         id="stop2060" />
    </linearGradient>
    <linearGradient
       inkscape:collect="always"
       id="linearGradient2309">
      <stop
         style="stop-color:#cd9ef7;stop-opacity:1"
         offset="0"
         id="stop2305" />
      <stop
         style="stop-color:#a56de2;stop-opacity:1"
         offset="1"
         id="stop2307" />
    </linearGradient>
    <linearGradient
       id="linearGradient3373">
      <stop
         offset="0"
         style="stop-color:#95a3ab;stop-opacity:1"
         id="stop3365" />
      <stop
         offset="1"
         style="stop-color:#667885;stop-opacity:1"
         id="stop3371" />
    </linearGradient>
    <linearGradient
       id="linearGradient3075">
      <stop
         style="stop-color:#95a3ab;stop-opacity:1"
         offset="0"
         id="stop3071" />
      <stop
         style="stop-color:#667885;stop-opacity:1"
         offset="1"
         id="stop3073" />
    </linearGradient>
    <radialGradient
       cx="4.9929786"
       cy="43.5"
       r="2.5"
       fx="4.9929786"
       fy="43.5"
       id="radialGradient3013"
       xlink:href="#linearGradient3688-166-749"
       gradientUnits="userSpaceOnUse"
       gradientTransform="matrix(2.003784,0,0,1.4,27.98813,-17.4)" />
    <linearGradient
       id="linearGradient3688-166-749">
      <stop
         id="stop2883"
         style="stop-color:#181818;stop-opacity:1"
         offset="0" />
      <stop
         id="stop2885"
         style="stop-color:#181818;stop-opacity:0"
         offset="1" />
    </linearGradient>
    <radialGradient
       cx="4.9929786"
       cy="43.5"
       r="2.5"
       fx="4.9929786"
       fy="43.5"
       id="radialGradient3015"
       xlink:href="#linearGradient3688-166-749"
       gradientUnits="userSpaceOnUse"
       gradientTransform="matrix(2.003784,0,0,1.4,-20.01187,-104.4)" />
    <linearGradient
       x1="25.058096"
       y1="47.027729"
       x2="25.058096"
       y2="39.999443"
       id="linearGradient6647"
       xlink:href="#linearGradient3702-501-757"
       gradientUnits="userSpaceOnUse" />
    <linearGradient
       id="linearGradient3702-501-757">
      <stop
         id="stop2895"
         style="stop-color:#181818;stop-opacity:0"
         offset="0" />
      <stop
         id="stop2897"
         style="stop-color:#181818;stop-opacity:1"
         offset="0.5" />
      <stop
         id="stop2899"
         style="stop-color:#181818;stop-opacity:0"
         offset="1" />
    </linearGradient>
    <linearGradient
       xlink:href="#linearGradient3075"
       id="linearGradient856"
       x1="23.528315"
       y1="6.08318"
       x2="23.528315"
       y2="44.23307"
       gradientUnits="userSpaceOnUse" />
    <linearGradient
       id="linearGradient854">
      <stop
         style="stop-color:#ffa154;stop-opacity:1"
         offset="0"
         id="stop850" />
      <stop
         style="stop-color:#f37329;stop-opacity:1"
         offset="1"
         id="stop852" />
    </linearGradient>
    <linearGradient
       x1="38.999996"
       y1="5.9999938"
       x2="38.999996"
       y2="41.945408"
       id="linearGradient3058"
       xlink:href="#linearGradient3924-1"
       gradientUnits="userSpaceOnUse"
       gradientTransform="matrix(2.6666667,0,0,2.6666667,9.0000099,2.6666819)" />
    <linearGradient
       id="linearGradient3924-1">
      <stop
         id="stop3926-3"
         style="stop-color:#ffffff;stop-opacity:1"
         offset="0" />
      <stop
         id="stop3928-91"
         style="stop-color:#ffffff;stop-opacity:0.23529412"
         offset="0.02781997" />
      <stop
         id="stop3930-6"
         style="stop-color:#ffffff;stop-opacity:0.15686275"
         offset="0.97369862" />
      <stop
         id="stop3932-6"
         style="stop-color:#ffffff;stop-opacity:0.39215687"
         offset="1" />
    </linearGradient>
    <radialGradient
       xlink:href="#linearGradient8838-4"
       id="radialGradient3300-8"
       gradientUnits="userSpaceOnUse"
       gradientTransform="matrix(0.3823536,7.5555777e-8,-1.8372241e-8,0.1115198,-5.9254271,36.335849)"
       cx="99.189415"
       cy="185.29727"
       fx="99.189415"
       fy="185.29727"
       r="62.769119" />
    <linearGradient
       id="linearGradient8838-4">
      <stop
         id="stop8840-4"
         style="stop-color:#000000;stop-opacity:1"
         offset="0" />
      <stop
         id="stop8842-8"
         style="stop-color:#000000;stop-opacity:0"
         offset="1" />
    </linearGradient>
    <radialGradient
       xlink:href="#linearGradient8838-4"
       id="radialGradient4192-6"
       gradientUnits="userSpaceOnUse"
       gradientTransform="matrix(0.2549024,5.3967361e-8,-1.2248161e-8,0.07965545,6.7163816,44.240666)"
       cx="99.189415"
       cy="185.29727"
       fx="99.189415"
       fy="185.29727"
       r="62.769119" />
    <radialGradient
       xlink:href="#linearGradient2867-449-88-871-390-598-476-591-434-148-57-177-3-8-8"
       id="radialGradient3543"
       gradientUnits="userSpaceOnUse"
       gradientTransform="matrix(0,5.0000024,-5.2894057,-1.3609237e-7,68.694364,-17.989501)"
       cx="1.1978998"
       cy="8.4497671"
       fx="1.1978998"
       fy="8.4497671"
       r="19.99999" />
    <linearGradient
       id="linearGradient2867-449-88-871-390-598-476-591-434-148-57-177-3-8-8">
      <stop
         offset="0"
         style="stop-color:#90dbec;stop-opacity:1"
         id="stop3750-8-9-0" />
      <stop
         offset="0.26238"
         style="stop-color:#42baea;stop-opacity:1"
         id="stop3752-3-2-2" />
      <stop
         offset="0.704952"
         style="stop-color:#3689e6;stop-opacity:1"
         id="stop3754-7-2-2" />
      <stop
         offset="1"
         style="stop-color:#2b63a0;stop-opacity:1"
         id="stop3756-9-3-05" />
    </linearGradient>
    <linearGradient
       xlink:href="#linearGradient4011-8"
       id="linearGradient3540"
       gradientUnits="userSpaceOnUse"
       gradientTransform="matrix(1.054054,0,0,1.054054,-51.611004,-2.7279013)"
       x1="71.204407"
       y1="6.2375584"
       x2="71.204407"
       y2="44.340794" />
    <linearGradient
       id="linearGradient4011-8">
      <stop
         offset="0"
         style="stop-color:#ffffff;stop-opacity:1"
         id="stop4013-9" />
      <stop
         offset="0.507761"
         style="stop-color:#ffffff;stop-opacity:0.23529412"
         id="stop4015-2" />
      <stop
         offset="0.83456558"
         style="stop-color:#ffffff;stop-opacity:0.15686275"
         id="stop4017-28" />
      <stop
         offset="1"
         style="stop-color:#ffffff;stop-opacity:0.39215687"
         id="stop4019-23" />
    </linearGradient>
    <linearGradient
       xlink:href="#linearGradient1115"
       id="linearGradient856-3"
       x1="24"
       y1="6"
       x2="24"
       y2="44"
       gradientUnits="userSpaceOnUse"
       gradientTransform="translate(204,98)" />
    <linearGradient
       id="linearGradient1115">
      <stop
         id="stop1111"
         offset="0"
         style="stop-color:#95a3ab;stop-opacity:1" />
      <stop
         id="stop1113"
         offset="1"
         style="stop-color:#667885;stop-opacity:1" />
    </linearGradient>
    <linearGradient
       xlink:href="#linearGradient1115-0"
       id="linearGradient856-32"
       x1="24"
       y1="32"
       x2="24"
       y2="44"
       gradientUnits="userSpaceOnUse"
       gradientTransform="matrix(2.6666667,0,0,2.6666667,8.9999992,-8e-7)" />
    <linearGradient
       id="linearGradient1115-0">
      <stop
         id="stop1111-6"
         offset="0"
         style="stop-color:#95a3ab;stop-opacity:1" />
      <stop
         id="stop1113-1"
         offset="1"
         style="stop-color:#485a6c;stop-opacity:1" />
    </linearGradient>
    <linearGradient
       xlink:href="#linearGradient1115-4"
       id="linearGradient856-7"
       x1="24"
       y1="32"
       x2="24"
       y2="44"
       gradientUnits="userSpaceOnUse" />
    <linearGradient
       id="linearGradient1115-4">
      <stop
         id="stop1111-4"
         offset="0"
         style="stop-color:#fafafa;stop-opacity:1" />
      <stop
         id="stop1113-3"
         offset="1"
         style="stop-color:#abacae;stop-opacity:1" />
    </linearGradient>
    <clipPath
       clipPathUnits="userSpaceOnUse"
       id="clipPath8030">
      <rect
         style="font-variation-settings:normal;opacity:1;vector-effect:none;fill:url(#linearGradient8034);fill-opacity:1;stroke:none;stroke-width:1;stroke-linecap:butt;stroke-linejoin:miter;stroke-miterlimit:4;stroke-dasharray:none;stroke-dashoffset:0;stroke-opacity:1;-inkscape-stroke:none;marker:none;stop-color:#000000;stop-opacity:1"
         id="rect8032"
         width="270"
         height="128"
         x="0"
         y="0" />
    </clipPath>
    <linearGradient
       inkscape:collect="always"
       xlink:href="#linearGradient1115-4"
       id="linearGradient8034"
       gradientUnits="userSpaceOnUse"
       gradientTransform="translate(80,73.986685)"
       x1="24"
       y1="32"
       x2="24"
       y2="44" />
    <linearGradient
       xlink:href="#linearGradient1115-4"
       id="linearGradient891"
       x1="66.996674"
       y1="89"
       x2="66.996674"
       y2="117.80992"
       gradientUnits="userSpaceOnUse" />
    <linearGradient
       xlink:href="#linearGradient3924"
       id="linearGradient3965"
       gradientUnits="userSpaceOnUse"
       gradientTransform="matrix(2.7297298,0,0,2.7297298,-1.5135175,1.488319)"
       x1="23.99999"
       y1="4.999989"
       x2="23.99999"
       y2="43" />
    <linearGradient
       id="linearGradient3924">
      <stop
         id="stop3926"
         style="stop-color:#ffffff;stop-opacity:1"
         offset="0" />
      <stop
         id="stop3928"
         style="stop-color:#ffffff;stop-opacity:0.23529412"
         offset="0.06316455" />
      <stop
         id="stop3930"
         style="stop-color:#ffffff;stop-opacity:0.15686275"
         offset="0.95056331" />
      <stop
         id="stop3932"
         style="stop-color:#ffffff;stop-opacity:0.39215687"
         offset="1" />
    </linearGradient>
    <linearGradient
       xlink:href="#linearGradient1115-0"
       id="linearGradient891-7"
       x1="66.996674"
       y1="89"
       x2="66.996674"
       y2="117.80992"
       gradientUnits="userSpaceOnUse"
       gradientTransform="translate(7,-5)" />
    <linearGradient
       inkscape:collect="always"
       xlink:href="#linearGradient2309"
       id="linearGradient2311"
       x1="76"
       y1="0"
       x2="76"
       y2="128"
       gradientUnits="userSpaceOnUse" />
    <linearGradient
       inkscape:collect="always"
       xlink:href="#linearGradient2062"
       id="linearGradient2064"
       x1="73"
       y1="12"
       x2="73"
       y2="108"
       gradientUnits="userSpaceOnUse" />
  </defs>
  <sodipodi:namedview
     id="namedview4"
     pagecolor="#ffffff"
     bordercolor="#666666"
     borderopacity="1.0"
     inkscape:pageshadow="2"
     inkscape:pageopacity="0.0"
     inkscape:pagecheckerboard="0"
     showgrid="true"
     inkscape:zoom="4"
     inkscape:cx="72.999999"
     inkscape:cy="29.125"
     inkscape:window-width="2560"
     inkscape:window-height="1379"
     inkscape:window-x="1920"
     inkscape:window-y="30"
     inkscape:window-maximized="1"
     inkscape:current-layer="g8">
    <inkscape:grid
       type="xygrid"
       id="grid851"
       empspacing="4"
       visible="true"
       enabled="true" />
    <inkscape:grid
       type="xygrid"
       id="grid853"
       empspacing="2"
       spacingy="0.5"
       spacingx="0.5"
       dotted="true"
       enabled="true" />
  </sodipodi:namedview>
  <g
     inkscape:groupmode="layer"
     inkscape:label="Image"
     id="g8">
    <rect
       style="opacity:1;fill:url(#linearGradient2311);fill-opacity:1;stroke:none;stroke-linecap:butt;stroke-linejoin:round;stroke-opacity:1;-inkscape-stroke:none;stop-color:#000000"
       id="rect10483"
       width="146"
       height="128"
       x="0"
       y="0" />
    <path
       style="line-height:normal;font-variant-ligatures:normal;font-variant-position:normal;font-variant-caps:normal;font-variant-numeric:normal;font-variant-alternates:normal;font-feature-settings:normal;text-indent:0;text-align:start;text-decoration:none;text-decoration-line:none;text-decoration-style:solid;text-decoration-color:#000000;text-transform:none;text-orientation:mixed;shape-padding:0;opacity:0.3;isolation:auto;mix-blend-mode:normal;fill:#ffffff;stroke-width:1.99999;marker:none;fill-opacity:1"
       d="m 72.999606,16 c -0.759008,0 -1.260008,0.329997 -1.656008,0.644994 a 6.591026,6.5909381 0 0 0 -1.062007,1.106989 25.362099,25.361761 0 0 0 -2.094007,3.23097 c -1.470006,2.588976 -3.111013,5.981943 -4.731019,9.422912 -1.620008,3.443967 -3.216014,6.932934 -4.551018,9.656908 -0.669003,1.361988 -1.272005,2.534978 -1.764006,3.389969 -0.489003,0.848992 -1.041006,1.433986 -0.861005,1.295988 0.180002,-0.135 -0.495001,0.218998 -1.410004,0.443995 a 54.300214,54.299489 0 0 1 -3.597013,0.713994 c -2.871012,0.491996 -6.519027,1.013991 -10.140042,1.568985 -3.615014,0.554996 -7.197029,1.14899 -10.005039,1.817983 -1.401006,0.335997 -2.610011,0.683993 -3.591014,1.10099 -0.987004,0.416995 -1.971009,0.740992 -2.39401,2.11798 -0.426002,1.376987 0.180001,2.177979 0.735004,3.11097 0.558002,0.935991 1.332005,1.958982 2.277008,3.095972 1.890007,2.270977 4.455018,4.958953 7.068028,7.643928 2.616011,2.681976 5.280021,5.354946 7.332029,7.529931 1.023004,1.085985 1.899007,2.051978 2.520009,2.80497 0.618004,0.755993 0.972004,1.454985 0.918006,1.280993 -0.054,-0.174 0.048,0.629992 -0.03,1.625985 -0.081,0.995992 -0.243002,2.315977 -0.465002,3.830962 -0.444001,3.02997 -1.104004,6.83994 -1.719007,10.625896 -0.615003,3.785966 -1.182005,7.541926 -1.443005,10.541906 -0.129,1.49999 -0.186001,2.80797 -0.114,3.89996 0.036,0.549 0.096,1.04098 0.240002,1.52698 0.141,0.483 0.345001,1.02 0.936004,1.47299 0.591002,0.45 1.191003,0.504 1.701006,0.495 0.510002,-0.009 0.990003,-0.102 1.506006,-0.24 a 23.460093,23.459779 0 0 0 3.525014,-1.32899 c 2.64301,-1.19098 5.868023,-2.92197 9.105035,-4.70695 3.240012,-1.78499 6.477026,-3.62397 9.075036,-4.99796 1.302004,-0.69 2.445011,-1.25998 3.312011,-1.64398 0.870008,-0.384 1.632008,-0.513 1.377008,-0.513 -0.258,0 0.51,0.129 1.380007,0.51 0.87,0.387 2.013008,0.95998 3.312008,1.64698 2.601015,1.37399 5.841022,3.21297 9.075037,4.99796 3.240015,1.78498 6.46203,3.51597 9.108036,4.70695 1.320008,0.597 2.490008,1.05899 3.525015,1.33199 0.516,0.135 0.999001,0.228 1.506011,0.237 0.51,0.009 1.11,-0.042 1.701,-0.495 0.591,-0.44999 0.795,-0.98999 0.936,-1.47299 0.141,-0.486 0.201,-0.97798 0.24,-1.52698 0.069,-1.09199 0.015,-2.39997 -0.114,-3.89996 -0.261,-2.99998 -0.831,-6.75594 -1.443,-10.541906 -0.615,-3.785956 -1.278,-7.595926 -1.719,-10.625896 -0.22201,-1.514985 -0.39001,-2.83497 -0.47101,-3.830962 -0.078,-0.995993 0.03,-1.799985 -0.024,-1.625985 -0.054,0.173992 0.3,-0.525 0.91801,-1.280993 0.621,-0.752992 1.494,-1.718985 2.52,-2.80497 2.04901,-2.174985 4.71002,-4.847955 7.32603,-7.529931 2.61302,-2.684975 5.17501,-5.372951 7.06802,-7.643928 0.945,-1.13699 1.725,-2.159981 2.28002,-3.095972 0.55798,-0.932991 1.158,-1.733983 0.73198,-3.11097 -0.42598,-1.376988 -1.404,-1.700985 -2.388,-2.11798 a 23.415091,23.414779 0 0 0 -3.60001,-1.10099 c -2.80801,-0.668993 -6.38402,-1.262987 -9.99904,-1.817983 -3.61801,-0.554994 -7.266026,-1.079989 -10.140033,-1.568985 a 54.312214,54.311489 0 0 1 -3.591014,-0.713994 c -0.918,-0.224997 -1.599007,-0.578994 -1.419007,-0.443995 0.18,0.138 -0.366,-0.446996 -0.858,-1.298988 a 60.987239,60.986426 0 0 1 -1.761008,-3.389969 c -1.335007,-2.720974 -2.931007,-6.209941 -4.551015,-9.653908 -1.620007,-3.440969 -3.261015,-6.833936 -4.731022,-9.422912 a 25.362099,25.361761 0 0 0 -2.094008,-3.23397 6.6210262,6.6209378 0 0 0 -1.068007,-1.103989 C 74.256606,16.329997 73.758606,16 72.999606,16 Z"
       overflow="visible"
       fill="url(#I)"
       id="path1572" />
    <path
       style="line-height:normal;font-variant-ligatures:normal;font-variant-position:normal;font-variant-caps:normal;font-variant-numeric:normal;font-variant-alternates:normal;font-feature-settings:normal;text-indent:0;text-align:start;text-decoration:none;text-decoration-line:none;text-decoration-style:solid;text-decoration-color:#000000;text-transform:none;text-orientation:mixed;shape-padding:0;isolation:auto;mix-blend-mode:normal;fill:url(#linearGradient2064);stroke-width:1.99999;marker:none;fill-opacity:1"
       d="m 72.999606,12 c -0.759008,0 -1.260008,0.329997 -1.656008,0.644994 a 6.591026,6.5909381 0 0 0 -1.062007,1.106989 25.362099,25.361761 0 0 0 -2.094007,3.23097 c -1.470006,2.588976 -3.111013,5.981943 -4.731019,9.422912 -1.620008,3.443967 -3.216014,6.932934 -4.551018,9.656908 -0.669003,1.361988 -1.272005,2.534978 -1.764006,3.389969 -0.489003,0.848992 -1.041006,1.433986 -0.861005,1.295988 0.180002,-0.135 -0.495001,0.218998 -1.410004,0.443995 a 54.300214,54.299489 0 0 1 -3.597013,0.713994 c -2.871012,0.491996 -6.519027,1.013991 -10.140042,1.568985 -3.615014,0.554996 -7.197029,1.14899 -10.005039,1.817983 -1.401006,0.335997 -2.610011,0.683993 -3.591014,1.10099 -0.987004,0.416995 -1.971009,0.740992 -2.39401,2.11798 -0.426002,1.376987 0.180001,2.177979 0.735004,3.11097 0.558002,0.935991 1.332005,1.958982 2.277008,3.095972 1.890007,2.270977 4.455018,4.958953 7.068028,7.643928 2.616011,2.681976 5.280021,5.354946 7.332029,7.529931 1.023004,1.085985 1.899007,2.051978 2.520009,2.80497 0.618004,0.755993 0.972004,1.454985 0.918006,1.280993 -0.054,-0.174 0.048,0.629992 -0.03,1.625985 -0.081,0.995992 -0.243002,2.315977 -0.465002,3.830962 -0.444001,3.02997 -1.104004,6.83994 -1.719007,10.625896 -0.615003,3.78597 -1.182005,7.541926 -1.443005,10.541906 -0.129,1.49999 -0.186001,2.80797 -0.114,3.89996 0.036,0.549 0.096,1.04098 0.240002,1.52698 0.141,0.483 0.345001,1.02 0.936004,1.47299 0.591002,0.45 1.191003,0.504 1.701006,0.495 0.510002,-0.009 0.990003,-0.102 1.506006,-0.24 a 23.460093,23.459779 0 0 0 3.525014,-1.32899 c 2.64301,-1.19098 5.868023,-2.92197 9.105035,-4.70695 3.240012,-1.78499 6.477026,-3.62397 9.075036,-4.99796 1.302004,-0.69 2.445011,-1.259981 3.312011,-1.643981 0.870008,-0.384 1.632008,-0.513 1.377008,-0.513 -0.258,0 0.51,0.129 1.380007,0.51 0.87,0.387 2.013008,0.959981 3.312008,1.646981 2.601015,1.37399 5.841022,3.21297 9.075037,4.99796 3.240015,1.78498 6.46203,3.51597 9.108036,4.70695 1.320008,0.597 2.490008,1.05899 3.525015,1.33199 0.516,0.135 0.999001,0.228 1.506011,0.237 0.51,0.009 1.11,-0.042 1.701,-0.495 0.591,-0.44999 0.795,-0.98999 0.936,-1.47299 0.141,-0.486 0.201,-0.97798 0.24,-1.52698 0.069,-1.09199 0.015,-2.39997 -0.114,-3.89996 -0.261,-2.99998 -0.831,-6.755936 -1.443,-10.541906 -0.615,-3.785956 -1.278,-7.595926 -1.719,-10.625896 -0.22201,-1.514985 -0.39001,-2.83497 -0.47101,-3.830962 -0.078,-0.995993 0.03,-1.799985 -0.024,-1.625985 -0.054,0.173992 0.3,-0.525 0.91801,-1.280993 0.621,-0.752992 1.494,-1.718985 2.52,-2.80497 2.04901,-2.174985 4.71002,-4.847955 7.32603,-7.529931 2.61302,-2.684975 5.17501,-5.372951 7.06802,-7.643928 0.945,-1.13699 1.725,-2.159981 2.28002,-3.095972 0.55798,-0.932991 1.158,-1.733983 0.73198,-3.11097 -0.42598,-1.376988 -1.404,-1.700985 -2.388,-2.11798 a 23.415091,23.414779 0 0 0 -3.60001,-1.10099 c -2.80801,-0.668993 -6.38402,-1.262987 -9.99904,-1.817983 -3.61801,-0.554994 -7.266026,-1.079989 -10.140033,-1.568985 a 54.312214,54.311489 0 0 1 -3.591014,-0.713994 c -0.918,-0.224997 -1.599007,-0.578994 -1.419007,-0.443995 0.18,0.138 -0.366,-0.446996 -0.858,-1.298988 a 60.987239,60.986426 0 0 1 -1.761008,-3.389969 c -1.335007,-2.720974 -2.931007,-6.209941 -4.551015,-9.653908 -1.620007,-3.440969 -3.261015,-6.833936 -4.731022,-9.422912 a 25.362099,25.361761 0 0 0 -2.094008,-3.23397 6.6210262,6.6209378 0 0 0 -1.068007,-1.103989 C 74.256606,12.329997 73.758606,12 72.999606,12 Z"
       overflow="visible"
       fill="url(#I)"
       id="path233-62" />
    <path
       id="path2539"
       style="line-height:normal;font-variant-ligatures:normal;font-variant-position:normal;font-variant-caps:normal;font-variant-numeric:normal;font-variant-alternates:normal;font-feature-settings:normal;text-indent:0;text-align:start;text-decoration:none;text-decoration-line:none;text-decoration-style:solid;text-decoration-color:#000000;text-transform:none;text-orientation:mixed;shape-padding:0;isolation:auto;mix-blend-mode:normal;fill:#000000;stroke-width:1.99999;marker:none;fill-opacity:1;opacity:0.07"
       d="M 73 12 C 72.240992 12 71.73975 12.329534 71.34375 12.644531 A 6.591026 6.5909381 0 0 0 70.28125 13.751953 A 25.362099 25.361761 0 0 0 68.1875 16.982422 C 66.717494 19.571398 65.077037 22.965281 63.457031 26.40625 C 61.837023 29.850217 60.241254 33.338526 58.90625 36.0625 C 58.237247 37.424488 57.632626 38.598134 57.140625 39.453125 C 56.651622 40.302117 56.101249 40.886045 56.28125 40.748047 C 56.461252 40.613047 55.786097 40.968362 54.871094 41.193359 A 54.300214 54.299489 0 0 1 51.273438 41.90625 C 48.402425 42.398246 44.753827 42.921569 41.132812 43.476562 C 37.517798 44.031559 33.936916 44.623976 31.128906 45.292969 C 29.7279 45.628966 28.518112 45.977534 27.537109 46.394531 C 26.550105 46.811526 25.565579 47.134731 25.142578 48.511719 C 24.716576 49.888706 25.323903 50.690056 25.878906 51.623047 C 26.364024 52.436782 27.038247 53.331932 27.820312 54.294922 C 28.752336 53.924432 29.848878 53.599952 31.128906 53.292969 C 33.936916 52.623976 37.517798 52.031559 41.132812 51.476562 C 44.753827 50.921569 48.402425 50.398246 51.273438 49.90625 A 54.300214 54.299489 0 0 0 54.871094 49.193359 C 55.786097 48.968362 56.461252 48.613047 56.28125 48.748047 C 56.101249 48.886045 56.651622 48.302117 57.140625 47.453125 C 57.632626 46.598134 58.237247 45.424488 58.90625 44.0625 C 60.241254 41.338526 61.837023 37.850217 63.457031 34.40625 C 65.077037 30.965281 66.717494 27.571398 68.1875 24.982422 A 25.362099 25.361761 0 0 1 70.28125 21.751953 A 6.591026 6.5909381 0 0 1 71.34375 20.644531 C 71.73975 20.329534 72.240992 20 73 20 C 73.759 20 74.25725 20.329534 74.65625 20.644531 A 6.6210262 6.6209378 0 0 1 75.722656 21.748047 A 25.362099 25.361761 0 0 1 77.818359 24.982422 C 79.288366 27.571398 80.928821 30.965281 82.548828 34.40625 C 84.168836 37.850217 85.764602 41.339573 87.099609 44.060547 A 60.987239 60.986426 0 0 0 88.861328 47.449219 C 89.353328 48.301211 89.89875 48.886047 89.71875 48.748047 C 89.53875 48.613048 90.218719 48.968362 91.136719 49.193359 A 54.312214 54.311489 0 0 0 94.728516 49.90625 C 97.602523 50.395246 101.25113 50.921568 104.86914 51.476562 C 108.48416 52.031558 112.05918 52.623976 114.86719 53.292969 A 23.415091 23.414779 0 0 1 118.17188 54.304688 C 118.9588 53.337673 119.6388 52.439679 120.12305 51.623047 C 120.68103 50.690056 121.28149 49.888706 120.85547 48.511719 C 120.42949 47.134731 119.4508 46.811526 118.4668 46.394531 A 23.415091 23.414779 0 0 0 114.86719 45.292969 C 112.05918 44.623976 108.48416 44.031558 104.86914 43.476562 C 101.25113 42.921568 97.602523 42.395246 94.728516 41.90625 A 54.312214 54.311489 0 0 1 91.136719 41.193359 C 90.218719 40.968362 89.53875 40.613048 89.71875 40.748047 C 89.89875 40.886047 89.353328 40.301211 88.861328 39.449219 A 60.987239 60.986426 0 0 1 87.099609 36.060547 C 85.764602 33.339573 84.168836 29.850217 82.548828 26.40625 C 80.928821 22.965281 79.288366 19.571398 77.818359 16.982422 A 25.362099 25.361761 0 0 0 75.722656 13.748047 A 6.6210262 6.6209378 0 0 0 74.65625 12.644531 C 74.25725 12.329534 73.759 12 73 12 z M 45.257812 80.953125 C 44.83049 83.710374 44.301544 86.847551 43.779297 90.0625 C 43.164294 93.84847 42.596938 97.603536 42.335938 100.60352 C 42.206938 102.10351 42.150655 103.41192 42.222656 104.50391 C 42.258656 105.05291 42.318889 105.54525 42.462891 106.03125 C 42.489586 106.1227 42.542761 106.22007 42.576172 106.31445 C 42.874855 103.79182 43.312236 100.93773 43.779297 98.0625 C 44.3943 94.276544 45.054046 90.465517 45.498047 87.435547 C 45.720047 85.920562 45.881891 84.601461 45.962891 83.605469 C 46.040891 82.609476 45.940141 81.804516 45.994141 81.978516 C 46.041215 82.130199 45.735496 81.587751 45.257812 80.953125 z M 100.74609 80.955078 C 100.26957 81.588573 99.964703 82.130004 100.01172 81.978516 C 100.06572 81.804516 99.957156 82.609476 100.03516 83.605469 C 100.11616 84.601461 100.28385 85.920562 100.50586 87.435547 C 100.94686 90.465517 101.61156 94.276544 102.22656 98.0625 C 102.69147 100.93851 103.1303 103.79328 103.42969 106.31641 C 103.46335 106.2213 103.51611 106.12324 103.54297 106.03125 C 103.68397 105.54525 103.7442 105.05291 103.7832 104.50391 C 103.8522 103.41192 103.79697 102.10351 103.66797 100.60352 C 103.40697 97.603536 102.83856 93.84847 102.22656 90.0625 C 101.70443 86.848268 101.17219 83.711924 100.74609 80.955078 z " />
    <path
       id="path2498"
       style="line-height:normal;font-variant-ligatures:normal;font-variant-position:normal;font-variant-caps:normal;font-variant-numeric:normal;font-variant-alternates:normal;font-feature-settings:normal;text-indent:0;text-align:start;text-decoration:none;text-decoration-line:none;text-decoration-style:solid;text-decoration-color:#000000;text-transform:none;text-orientation:mixed;shape-padding:0;isolation:auto;mix-blend-mode:normal;fill:#000000;stroke-width:1.99999;marker:none;fill-opacity:1;opacity:0.15"
       d="M 73 12 C 72.240992 12 71.73975 12.329534 71.34375 12.644531 A 6.591026 6.5909381 0 0 0 70.28125 13.751953 A 25.362099 25.361761 0 0 0 68.1875 16.982422 C 66.717494 19.571398 65.077037 22.965281 63.457031 26.40625 C 61.837023 29.850217 60.241254 33.338526 58.90625 36.0625 C 58.237247 37.424488 57.632626 38.598134 57.140625 39.453125 C 56.651622 40.302117 56.101249 40.886045 56.28125 40.748047 C 56.461252 40.613047 55.786097 40.968362 54.871094 41.193359 A 54.300214 54.299489 0 0 1 51.273438 41.90625 C 48.402425 42.398246 44.753827 42.921569 41.132812 43.476562 C 37.517798 44.031559 33.936916 44.623976 31.128906 45.292969 C 29.7279 45.628966 28.518112 45.977534 27.537109 46.394531 C 26.550105 46.811526 25.565579 47.134731 25.142578 48.511719 C 24.747522 49.788679 25.243507 50.572931 25.759766 51.423828 C 26.247033 50.907453 26.890021 50.667917 27.537109 50.394531 C 28.518112 49.977534 29.7279 49.628966 31.128906 49.292969 C 33.936916 48.623976 37.517798 48.031559 41.132812 47.476562 C 44.753827 46.921569 48.402425 46.398246 51.273438 45.90625 A 54.300214 54.299489 0 0 0 54.871094 45.193359 C 55.786097 44.968362 56.461252 44.613047 56.28125 44.748047 C 56.101249 44.886045 56.651622 44.302117 57.140625 43.453125 C 57.632626 42.598134 58.237247 41.424488 58.90625 40.0625 C 60.241254 37.338526 61.837023 33.850217 63.457031 30.40625 C 65.077037 26.965281 66.717494 23.571398 68.1875 20.982422 A 25.362099 25.361761 0 0 1 70.28125 17.751953 A 6.591026 6.5909381 0 0 1 71.34375 16.644531 C 71.73975 16.329534 72.240992 16 73 16 C 73.759 16 74.25725 16.329534 74.65625 16.644531 A 6.6210262 6.6209378 0 0 1 75.722656 17.748047 A 25.362099 25.361761 0 0 1 77.818359 20.982422 C 79.288366 23.571398 80.928821 26.965281 82.548828 30.40625 C 84.168836 33.850217 85.764602 37.339573 87.099609 40.060547 A 60.987239 60.986426 0 0 0 88.861328 43.449219 C 89.353328 44.301211 89.89875 44.886047 89.71875 44.748047 C 89.53875 44.613048 90.218719 44.968362 91.136719 45.193359 A 54.312214 54.311489 0 0 0 94.728516 45.90625 C 97.602523 46.395246 101.25113 46.921568 104.86914 47.476562 C 108.48416 48.031558 112.05918 48.623976 114.86719 49.292969 A 23.415091 23.414779 0 0 1 118.4668 50.394531 C 119.11318 50.668452 119.7538 50.909239 120.24023 51.427734 C 120.75897 50.575381 121.25112 49.790556 120.85547 48.511719 C 120.42949 47.134731 119.4508 46.811526 118.4668 46.394531 A 23.415091 23.414779 0 0 0 114.86719 45.292969 C 112.05918 44.623976 108.48416 44.031558 104.86914 43.476562 C 101.25113 42.921568 97.602523 42.395246 94.728516 41.90625 A 54.312214 54.311489 0 0 1 91.136719 41.193359 C 90.218719 40.968362 89.53875 40.613048 89.71875 40.748047 C 89.89875 40.886047 89.353328 40.301211 88.861328 39.449219 A 60.987239 60.986426 0 0 1 87.099609 36.060547 C 85.764602 33.339573 84.168836 29.850217 82.548828 26.40625 C 80.928821 22.965281 79.288366 19.571398 77.818359 16.982422 A 25.362099 25.361761 0 0 0 75.722656 13.748047 A 6.6210262 6.6209378 0 0 0 74.65625 12.644531 C 74.25725 12.329534 73.759 12 73 12 z M 45.720703 77.595703 C 45.644081 78.219139 45.604684 78.707828 45.498047 79.435547 C 45.054046 82.465517 44.3943 86.276544 43.779297 90.0625 C 43.164294 93.84847 42.596938 97.603536 42.335938 100.60352 C 42.206938 102.10351 42.150655 103.41192 42.222656 104.50391 C 42.239317 104.75798 42.263987 104.99772 42.296875 105.23242 C 42.312751 105.01685 42.316653 104.82775 42.335938 104.60352 C 42.596938 101.60354 43.164294 97.848466 43.779297 94.0625 C 44.3943 90.276544 45.054046 86.465517 45.498047 83.435547 C 45.720047 81.920562 45.881891 80.601461 45.962891 79.605469 C 46.040891 78.609476 45.940141 77.804516 45.994141 77.978516 C 46.023652 78.073608 45.91142 77.888919 45.720703 77.595703 z M 100.28125 77.601562 C 100.09258 77.891882 99.982362 78.073105 100.01172 77.978516 C 100.06572 77.804516 99.957156 78.609476 100.03516 79.605469 C 100.11616 80.601461 100.28385 81.920562 100.50586 83.435547 C 100.94686 86.465517 101.61156 90.276544 102.22656 94.0625 C 102.83856 97.848466 103.40697 101.60354 103.66797 104.60352 C 103.68719 104.82704 103.6913 105.01555 103.70703 105.23047 C 103.73988 104.99634 103.7652 104.75731 103.7832 104.50391 C 103.8522 103.41192 103.79697 102.10351 103.66797 100.60352 C 103.40697 97.603536 102.83856 93.84847 102.22656 90.0625 C 101.61156 86.276544 100.94686 82.465517 100.50586 79.435547 C 100.39956 78.710153 100.35916 78.223384 100.28125 77.601562 z " />
  </g>
</svg>
