<?xml version="1.0" encoding="UTF-8" standalone="no"?>
<!-- Created with Inkscape (http://www.inkscape.org/) -->

<svg
   version="1.1"
   id="svg2"
   width="146"
   height="128"
   viewBox="0 0 146 128"
   sodipodi:docname="outset-pictogram.svg"
   inkscape:version="1.1 (c68e22c387, 2021-05-23)"
   inkscape:export-filename="/home/micahilbery/Projects/micahilbery.github.io/assets/images/edw/outset-pictogram.png"
   inkscape:export-xdpi="288"
   inkscape:export-ydpi="288"
   xmlns:inkscape="http://www.inkscape.org/namespaces/inkscape"
   xmlns:sodipodi="http://sodipodi.sourceforge.net/DTD/sodipodi-0.dtd"
   xmlns:xlink="http://www.w3.org/1999/xlink"
   xmlns="http://www.w3.org/2000/svg"
   xmlns:svg="http://www.w3.org/2000/svg">
  <defs
     id="defs6">
    <linearGradient
       inkscape:collect="always"
       id="linearGradient2309">
      <stop
         style="stop-color:#cd9ef7;stop-opacity:1"
         offset="0"
         id="stop2305" />
      <stop
         style="stop-color:#a56de2;stop-opacity:1"
         offset="1"
         id="stop2307" />
    </linearGradient>
    <linearGradient
       id="linearGradient3373">
      <stop
         offset="0"
         style="stop-color:#95a3ab;stop-opacity:1"
         id="stop3365" />
      <stop
         offset="1"
         style="stop-color:#667885;stop-opacity:1"
         id="stop3371" />
    </linearGradient>
    <linearGradient
       id="linearGradient3075">
      <stop
         style="stop-color:#95a3ab;stop-opacity:1"
         offset="0"
         id="stop3071" />
      <stop
         style="stop-color:#667885;stop-opacity:1"
         offset="1"
         id="stop3073" />
    </linearGradient>
    <radialGradient
       cx="4.9929786"
       cy="43.5"
       r="2.5"
       fx="4.9929786"
       fy="43.5"
       id="radialGradient3013"
       xlink:href="#linearGradient3688-166-749"
       gradientUnits="userSpaceOnUse"
       gradientTransform="matrix(2.003784,0,0,1.4,27.98813,-17.4)" />
    <linearGradient
       id="linearGradient3688-166-749">
      <stop
         id="stop2883"
         style="stop-color:#181818;stop-opacity:1"
         offset="0" />
      <stop
         id="stop2885"
         style="stop-color:#181818;stop-opacity:0"
         offset="1" />
    </linearGradient>
    <radialGradient
       cx="4.9929786"
       cy="43.5"
       r="2.5"
       fx="4.9929786"
       fy="43.5"
       id="radialGradient3015"
       xlink:href="#linearGradient3688-166-749"
       gradientUnits="userSpaceOnUse"
       gradientTransform="matrix(2.003784,0,0,1.4,-20.01187,-104.4)" />
    <linearGradient
       x1="25.058096"
       y1="47.027729"
       x2="25.058096"
       y2="39.999443"
       id="linearGradient6647"
       xlink:href="#linearGradient3702-501-757"
       gradientUnits="userSpaceOnUse" />
    <linearGradient
       id="linearGradient3702-501-757">
      <stop
         id="stop2895"
         style="stop-color:#181818;stop-opacity:0"
         offset="0" />
      <stop
         id="stop2897"
         style="stop-color:#181818;stop-opacity:1"
         offset="0.5" />
      <stop
         id="stop2899"
         style="stop-color:#181818;stop-opacity:0"
         offset="1" />
    </linearGradient>
    <linearGradient
       xlink:href="#linearGradient3075"
       id="linearGradient856"
       x1="23.528315"
       y1="6.08318"
       x2="23.528315"
       y2="44.23307"
       gradientUnits="userSpaceOnUse" />
    <linearGradient
       id="linearGradient854">
      <stop
         style="stop-color:#ffa154;stop-opacity:1"
         offset="0"
         id="stop850" />
      <stop
         style="stop-color:#f37329;stop-opacity:1"
         offset="1"
         id="stop852" />
    </linearGradient>
    <linearGradient
       x1="38.999996"
       y1="5.9999938"
       x2="38.999996"
       y2="41.945408"
       id="linearGradient3058"
       xlink:href="#linearGradient3924-1"
       gradientUnits="userSpaceOnUse"
       gradientTransform="matrix(2.6666667,0,0,2.6666667,9.0000099,2.6666819)" />
    <linearGradient
       id="linearGradient3924-1">
      <stop
         id="stop3926-3"
         style="stop-color:#ffffff;stop-opacity:1"
         offset="0" />
      <stop
         id="stop3928-91"
         style="stop-color:#ffffff;stop-opacity:0.23529412"
         offset="0.02781997" />
      <stop
         id="stop3930-6"
         style="stop-color:#ffffff;stop-opacity:0.15686275"
         offset="0.97369862" />
      <stop
         id="stop3932-6"
         style="stop-color:#ffffff;stop-opacity:0.39215687"
         offset="1" />
    </linearGradient>
    <radialGradient
       xlink:href="#linearGradient8838-4"
       id="radialGradient3300-8"
       gradientUnits="userSpaceOnUse"
       gradientTransform="matrix(0.3823536,7.5555777e-8,-1.8372241e-8,0.1115198,-5.9254271,36.335849)"
       cx="99.189415"
       cy="185.29727"
       fx="99.189415"
       fy="185.29727"
       r="62.769119" />
    <linearGradient
       id="linearGradient8838-4">
      <stop
         id="stop8840-4"
         style="stop-color:#000000;stop-opacity:1"
         offset="0" />
      <stop
         id="stop8842-8"
         style="stop-color:#000000;stop-opacity:0"
         offset="1" />
    </linearGradient>
    <radialGradient
       xlink:href="#linearGradient8838-4"
       id="radialGradient4192-6"
       gradientUnits="userSpaceOnUse"
       gradientTransform="matrix(0.2549024,5.3967361e-8,-1.2248161e-8,0.07965545,6.7163816,44.240666)"
       cx="99.189415"
       cy="185.29727"
       fx="99.189415"
       fy="185.29727"
       r="62.769119" />
    <radialGradient
       xlink:href="#linearGradient2867-449-88-871-390-598-476-591-434-148-57-177-3-8-8"
       id="radialGradient3543"
       gradientUnits="userSpaceOnUse"
       gradientTransform="matrix(0,5.0000024,-5.2894057,-1.3609237e-7,68.694364,-17.989501)"
       cx="1.1978998"
       cy="8.4497671"
       fx="1.1978998"
       fy="8.4497671"
       r="19.99999" />
    <linearGradient
       id="linearGradient2867-449-88-871-390-598-476-591-434-148-57-177-3-8-8">
      <stop
         offset="0"
         style="stop-color:#90dbec;stop-opacity:1"
         id="stop3750-8-9-0" />
      <stop
         offset="0.26238"
         style="stop-color:#42baea;stop-opacity:1"
         id="stop3752-3-2-2" />
      <stop
         offset="0.704952"
         style="stop-color:#3689e6;stop-opacity:1"
         id="stop3754-7-2-2" />
      <stop
         offset="1"
         style="stop-color:#2b63a0;stop-opacity:1"
         id="stop3756-9-3-05" />
    </linearGradient>
    <linearGradient
       xlink:href="#linearGradient4011-8"
       id="linearGradient3540"
       gradientUnits="userSpaceOnUse"
       gradientTransform="matrix(1.054054,0,0,1.054054,-51.611004,-2.7279013)"
       x1="71.204407"
       y1="6.2375584"
       x2="71.204407"
       y2="44.340794" />
    <linearGradient
       id="linearGradient4011-8">
      <stop
         offset="0"
         style="stop-color:#ffffff;stop-opacity:1"
         id="stop4013-9" />
      <stop
         offset="0.507761"
         style="stop-color:#ffffff;stop-opacity:0.23529412"
         id="stop4015-2" />
      <stop
         offset="0.83456558"
         style="stop-color:#ffffff;stop-opacity:0.15686275"
         id="stop4017-28" />
      <stop
         offset="1"
         style="stop-color:#ffffff;stop-opacity:0.39215687"
         id="stop4019-23" />
    </linearGradient>
    <linearGradient
       xlink:href="#linearGradient1115"
       id="linearGradient856-3"
       x1="24"
       y1="6"
       x2="24"
       y2="44"
       gradientUnits="userSpaceOnUse"
       gradientTransform="translate(204,98)" />
    <linearGradient
       id="linearGradient1115">
      <stop
         id="stop1111"
         offset="0"
         style="stop-color:#95a3ab;stop-opacity:1" />
      <stop
         id="stop1113"
         offset="1"
         style="stop-color:#667885;stop-opacity:1" />
    </linearGradient>
    <linearGradient
       xlink:href="#linearGradient1115-0"
       id="linearGradient856-32"
       x1="24"
       y1="32"
       x2="24"
       y2="44"
       gradientUnits="userSpaceOnUse"
       gradientTransform="matrix(2.6666667,0,0,2.6666667,8.9999992,-8e-7)" />
    <linearGradient
       id="linearGradient1115-0">
      <stop
         id="stop1111-6"
         offset="0"
         style="stop-color:#95a3ab;stop-opacity:1" />
      <stop
         id="stop1113-1"
         offset="1"
         style="stop-color:#485a6c;stop-opacity:1" />
    </linearGradient>
    <linearGradient
       xlink:href="#linearGradient1115-4"
       id="linearGradient856-7"
       x1="24"
       y1="32"
       x2="24"
       y2="44"
       gradientUnits="userSpaceOnUse" />
    <linearGradient
       id="linearGradient1115-4">
      <stop
         id="stop1111-4"
         offset="0"
         style="stop-color:#fafafa;stop-opacity:1" />
      <stop
         id="stop1113-3"
         offset="1"
         style="stop-color:#abacae;stop-opacity:1" />
    </linearGradient>
    <clipPath
       clipPathUnits="userSpaceOnUse"
       id="clipPath8030">
      <rect
         style="font-variation-settings:normal;opacity:1;vector-effect:none;fill:url(#linearGradient8034);fill-opacity:1;stroke:none;stroke-width:1;stroke-linecap:butt;stroke-linejoin:miter;stroke-miterlimit:4;stroke-dasharray:none;stroke-dashoffset:0;stroke-opacity:1;-inkscape-stroke:none;marker:none;stop-color:#000000;stop-opacity:1"
         id="rect8032"
         width="270"
         height="128"
         x="0"
         y="0" />
    </clipPath>
    <linearGradient
       inkscape:collect="always"
       xlink:href="#linearGradient1115-4"
       id="linearGradient8034"
       gradientUnits="userSpaceOnUse"
       gradientTransform="translate(80,73.986685)"
       x1="24"
       y1="32"
       x2="24"
       y2="44" />
    <linearGradient
       xlink:href="#linearGradient1115-4"
       id="linearGradient891"
       x1="66.996674"
       y1="89"
       x2="66.996674"
       y2="117.80992"
       gradientUnits="userSpaceOnUse" />
    <linearGradient
       xlink:href="#linearGradient3924"
       id="linearGradient3965"
       gradientUnits="userSpaceOnUse"
       gradientTransform="matrix(2.7297298,0,0,2.7297298,-1.5135175,1.488319)"
       x1="23.99999"
       y1="4.999989"
       x2="23.99999"
       y2="43" />
    <linearGradient
       id="linearGradient3924">
      <stop
         id="stop3926"
         style="stop-color:#ffffff;stop-opacity:1"
         offset="0" />
      <stop
         id="stop3928"
         style="stop-color:#ffffff;stop-opacity:0.23529412"
         offset="0.06316455" />
      <stop
         id="stop3930"
         style="stop-color:#ffffff;stop-opacity:0.15686275"
         offset="0.95056331" />
      <stop
         id="stop3932"
         style="stop-color:#ffffff;stop-opacity:0.39215687"
         offset="1" />
    </linearGradient>
    <linearGradient
       xlink:href="#linearGradient1115-0"
       id="linearGradient891-7"
       x1="66.996674"
       y1="89"
       x2="66.996674"
       y2="117.80992"
       gradientUnits="userSpaceOnUse"
       gradientTransform="translate(7,-5)" />
    <linearGradient
       inkscape:collect="always"
       xlink:href="#linearGradient2309"
       id="linearGradient2311"
       x1="76"
       y1="0"
       x2="76"
       y2="128"
       gradientUnits="userSpaceOnUse" />
  </defs>
  <sodipodi:namedview
     id="namedview4"
     pagecolor="#ffffff"
     bordercolor="#666666"
     borderopacity="1.0"
     inkscape:pageshadow="2"
     inkscape:pageopacity="0.0"
     inkscape:pagecheckerboard="0"
     showgrid="true"
     inkscape:zoom="5.6568543"
     inkscape:cx="69.473241"
     inkscape:cy="58.601474"
     inkscape:window-width="2560"
     inkscape:window-height="1379"
     inkscape:window-x="1920"
     inkscape:window-y="30"
     inkscape:window-maximized="1"
     inkscape:current-layer="g8">
    <inkscape:grid
       type="xygrid"
       id="grid851"
       empspacing="4"
       visible="true"
       enabled="true" />
    <inkscape:grid
       type="xygrid"
       id="grid853"
       empspacing="2"
       spacingy="0.5"
       spacingx="0.5"
       dotted="true"
       enabled="true" />
  </sodipodi:namedview>
  <g
     inkscape:groupmode="layer"
     inkscape:label="Image"
     id="g8">
    <rect
       style="opacity:1;fill:url(#linearGradient2311);fill-opacity:1;stroke:none;stroke-linecap:butt;stroke-linejoin:round;stroke-opacity:1;-inkscape-stroke:none;stop-color:#000000"
       id="rect10483"
       width="146"
       height="128"
       x="0"
       y="0" />
    <path
       style="line-height:normal;font-variant-ligatures:normal;font-variant-position:normal;font-variant-caps:normal;font-variant-numeric:normal;font-variant-alternates:normal;font-feature-settings:normal;text-indent:0;text-align:start;text-decoration:none;text-decoration-line:none;text-decoration-style:solid;text-decoration-color:#000000;text-transform:none;text-orientation:mixed;shape-padding:0;opacity:0.07;isolation:auto;mix-blend-mode:normal;fill:#000000;stroke:#000000;stroke-width:8;stroke-opacity:1;marker:none"
       d="m 72.999606,16 c -0.759008,0 -1.260008,0.329997 -1.656008,0.644994 a 6.591026,6.5909381 0 0 0 -1.062007,1.106989 25.362099,25.361761 0 0 0 -2.094007,3.23097 c -1.470006,2.588976 -3.111013,5.981943 -4.731019,9.422912 -1.620008,3.443967 -3.216014,6.932934 -4.551018,9.656908 -0.669003,1.361988 -1.272005,2.534978 -1.764006,3.389969 -0.489003,0.848992 -1.041006,1.433986 -0.861005,1.295988 0.180002,-0.135 -0.495001,0.218998 -1.410004,0.443995 a 54.300214,54.299489 0 0 1 -3.597013,0.713994 c -2.871012,0.491996 -6.519027,1.013991 -10.140042,1.568985 -3.615014,0.554996 -7.197029,1.14899 -10.005039,1.817983 -1.401006,0.335997 -2.610011,0.683993 -3.591014,1.10099 -0.987004,0.416995 -1.971009,0.740992 -2.39401,2.11798 -0.426002,1.376987 0.180001,2.177979 0.735004,3.11097 0.558002,0.935991 1.332005,1.958982 2.277008,3.095972 1.890007,2.270977 4.455018,4.958953 7.068028,7.643928 2.616011,2.681976 5.280021,5.354946 7.332029,7.529931 1.023004,1.085985 1.899007,2.051978 2.520009,2.80497 0.618004,0.755993 0.972004,1.454985 0.918006,1.280993 -0.054,-0.174 0.048,0.629992 -0.03,1.625985 -0.081,0.995992 -0.243002,2.315977 -0.465002,3.830962 -0.444001,3.02997 -1.104004,6.83994 -1.719007,10.625896 -0.615003,3.785966 -1.182005,7.541926 -1.443005,10.541906 -0.129,1.49999 -0.186001,2.80797 -0.114,3.89996 0.036,0.549 0.096,1.04098 0.240002,1.52698 0.141,0.483 0.345001,1.02 0.936004,1.47299 0.591002,0.45 1.191003,0.504 1.701006,0.495 0.510002,-0.009 0.990003,-0.102 1.506006,-0.24 a 23.460093,23.459779 0 0 0 3.525014,-1.32899 c 2.64301,-1.19098 5.868023,-2.92197 9.105035,-4.70695 3.240012,-1.78499 6.477026,-3.62397 9.075036,-4.99796 1.302004,-0.69 2.445011,-1.25998 3.312011,-1.64398 0.870008,-0.384 1.632008,-0.513 1.377008,-0.513 -0.258,0 0.51,0.129 1.380007,0.51 0.87,0.387 2.013008,0.95998 3.312008,1.64698 2.601015,1.37399 5.841022,3.21297 9.075037,4.99796 3.240015,1.78498 6.46203,3.51597 9.108036,4.70695 1.320008,0.597 2.490008,1.05899 3.525015,1.33199 0.516,0.135 0.999001,0.228 1.506011,0.237 0.51,0.009 1.11,-0.042 1.701,-0.495 0.591,-0.44999 0.795,-0.98999 0.936,-1.47299 0.141,-0.486 0.201,-0.97798 0.24,-1.52698 0.069,-1.09199 0.015,-2.39997 -0.114,-3.89996 -0.261,-2.99998 -0.831,-6.75594 -1.443,-10.541906 -0.615,-3.785956 -1.278,-7.595926 -1.719,-10.625896 -0.22201,-1.514985 -0.39001,-2.83497 -0.47101,-3.830962 -0.078,-0.995993 0.03,-1.799985 -0.024,-1.625985 -0.054,0.173992 0.3,-0.525 0.91801,-1.280993 0.621,-0.752992 1.494,-1.718985 2.52,-2.80497 2.04901,-2.174985 4.71002,-4.847955 7.32603,-7.529931 2.61302,-2.684975 5.17501,-5.372951 7.06802,-7.643928 0.945,-1.13699 1.725,-2.159981 2.28002,-3.095972 0.55798,-0.932991 1.158,-1.733983 0.73198,-3.11097 -0.42598,-1.376988 -1.404,-1.700985 -2.388,-2.11798 a 23.415091,23.414779 0 0 0 -3.60001,-1.10099 c -2.80801,-0.668993 -6.38402,-1.262987 -9.99904,-1.817983 -3.61801,-0.554994 -7.266026,-1.079989 -10.140033,-1.568985 a 54.312214,54.311489 0 0 1 -3.591014,-0.713994 c -0.918,-0.224997 -1.599007,-0.578994 -1.419007,-0.443995 0.18,0.138 -0.366,-0.446996 -0.858,-1.298988 a 60.987239,60.986426 0 0 1 -1.761008,-3.389969 c -1.335007,-2.720974 -2.931007,-6.209941 -4.551015,-9.653908 -1.620007,-3.440969 -3.261015,-6.833936 -4.731022,-9.422912 a 25.362099,25.361761 0 0 0 -2.094008,-3.23397 6.6210262,6.6209378 0 0 0 -1.068007,-1.103989 C 74.256606,16.329997 73.758606,16 72.999606,16 Z"
       overflow="visible"
       fill="url(#I)"
       id="path1610" />
    <path
       style="line-height:normal;font-variant-ligatures:normal;font-variant-position:normal;font-variant-caps:normal;font-variant-numeric:normal;font-variant-alternates:normal;font-feature-settings:normal;text-indent:0;text-align:start;text-decoration:none;text-decoration-line:none;text-decoration-style:solid;text-decoration-color:#000000;text-transform:none;text-orientation:mixed;shape-padding:0;opacity:0.15;isolation:auto;mix-blend-mode:normal;fill:#000000;stroke-width:1.99999;marker:none"
       d="m 72.999606,16 c -0.759008,0 -1.260008,0.329997 -1.656008,0.644994 a 6.591026,6.5909381 0 0 0 -1.062007,1.106989 25.362099,25.361761 0 0 0 -2.094007,3.23097 c -1.470006,2.588976 -3.111013,5.981943 -4.731019,9.422912 -1.620008,3.443967 -3.216014,6.932934 -4.551018,9.656908 -0.669003,1.361988 -1.272005,2.534978 -1.764006,3.389969 -0.489003,0.848992 -1.041006,1.433986 -0.861005,1.295988 0.180002,-0.135 -0.495001,0.218998 -1.410004,0.443995 a 54.300214,54.299489 0 0 1 -3.597013,0.713994 c -2.871012,0.491996 -6.519027,1.013991 -10.140042,1.568985 -3.615014,0.554996 -7.197029,1.14899 -10.005039,1.817983 -1.401006,0.335997 -2.610011,0.683993 -3.591014,1.10099 -0.987004,0.416995 -1.971009,0.740992 -2.39401,2.11798 -0.426002,1.376987 0.180001,2.177979 0.735004,3.11097 0.558002,0.935991 1.332005,1.958982 2.277008,3.095972 1.890007,2.270977 4.455018,4.958953 7.068028,7.643928 2.616011,2.681976 5.280021,5.354946 7.332029,7.529931 1.023004,1.085985 1.899007,2.051978 2.520009,2.80497 0.618004,0.755993 0.972004,1.454985 0.918006,1.280993 -0.054,-0.174 0.048,0.629992 -0.03,1.625985 -0.081,0.995992 -0.243002,2.315977 -0.465002,3.830962 -0.444001,3.02997 -1.104004,6.83994 -1.719007,10.625896 -0.615003,3.785966 -1.182005,7.541926 -1.443005,10.541906 -0.129,1.49999 -0.186001,2.80797 -0.114,3.89996 0.036,0.549 0.096,1.04098 0.240002,1.52698 0.141,0.483 0.345001,1.02 0.936004,1.47299 0.591002,0.45 1.191003,0.504 1.701006,0.495 0.510002,-0.009 0.990003,-0.102 1.506006,-0.24 a 23.460093,23.459779 0 0 0 3.525014,-1.32899 c 2.64301,-1.19098 5.868023,-2.92197 9.105035,-4.70695 3.240012,-1.78499 6.477026,-3.62397 9.075036,-4.99796 1.302004,-0.69 2.445011,-1.25998 3.312011,-1.64398 0.870008,-0.384 1.632008,-0.513 1.377008,-0.513 -0.258,0 0.51,0.129 1.380007,0.51 0.87,0.387 2.013008,0.95998 3.312008,1.64698 2.601015,1.37399 5.841022,3.21297 9.075037,4.99796 3.240015,1.78498 6.46203,3.51597 9.108036,4.70695 1.320008,0.597 2.490008,1.05899 3.525015,1.33199 0.516,0.135 0.999001,0.228 1.506011,0.237 0.51,0.009 1.11,-0.042 1.701,-0.495 0.591,-0.44999 0.795,-0.98999 0.936,-1.47299 0.141,-0.486 0.201,-0.97798 0.24,-1.52698 0.069,-1.09199 0.015,-2.39997 -0.114,-3.89996 -0.261,-2.99998 -0.831,-6.75594 -1.443,-10.541906 -0.615,-3.785956 -1.278,-7.595926 -1.719,-10.625896 -0.22201,-1.514985 -0.39001,-2.83497 -0.47101,-3.830962 -0.078,-0.995993 0.03,-1.799985 -0.024,-1.625985 -0.054,0.173992 0.3,-0.525 0.91801,-1.280993 0.621,-0.752992 1.494,-1.718985 2.52,-2.80497 2.04901,-2.174985 4.71002,-4.847955 7.32603,-7.529931 2.61302,-2.684975 5.17501,-5.372951 7.06802,-7.643928 0.945,-1.13699 1.725,-2.159981 2.28002,-3.095972 0.55798,-0.932991 1.158,-1.733983 0.73198,-3.11097 -0.42598,-1.376988 -1.404,-1.700985 -2.388,-2.11798 a 23.415091,23.414779 0 0 0 -3.60001,-1.10099 c -2.80801,-0.668993 -6.38402,-1.262987 -9.99904,-1.817983 -3.61801,-0.554994 -7.266026,-1.079989 -10.140033,-1.568985 a 54.312214,54.311489 0 0 1 -3.591014,-0.713994 c -0.918,-0.224997 -1.599007,-0.578994 -1.419007,-0.443995 0.18,0.138 -0.366,-0.446996 -0.858,-1.298988 a 60.987239,60.986426 0 0 1 -1.761008,-3.389969 c -1.335007,-2.720974 -2.931007,-6.209941 -4.551015,-9.653908 -1.620007,-3.440969 -3.261015,-6.833936 -4.731022,-9.422912 a 25.362099,25.361761 0 0 0 -2.094008,-3.23397 6.6210262,6.6209378 0 0 0 -1.068007,-1.103989 C 74.256606,16.329997 73.758606,16 72.999606,16 Z"
       overflow="visible"
       fill="url(#I)"
       id="path1572" />
    <path
       style="line-height:normal;font-variant-ligatures:normal;font-variant-position:normal;font-variant-caps:normal;font-variant-numeric:normal;font-variant-alternates:normal;font-feature-settings:normal;text-indent:0;text-align:start;text-decoration:none;text-decoration-line:none;text-decoration-style:solid;text-decoration-color:#000000;text-transform:none;text-orientation:mixed;shape-padding:0;isolation:auto;mix-blend-mode:normal;fill:#fafafa;stroke-width:1.99999;marker:none"
       d="m 72.999606,12 c -0.759008,0 -1.260008,0.329997 -1.656008,0.644994 a 6.591026,6.5909381 0 0 0 -1.062007,1.106989 25.362099,25.361761 0 0 0 -2.094007,3.23097 c -1.470006,2.588976 -3.111013,5.981943 -4.731019,9.422912 -1.620008,3.443967 -3.216014,6.932934 -4.551018,9.656908 -0.669003,1.361988 -1.272005,2.534978 -1.764006,3.389969 -0.489003,0.848992 -1.041006,1.433986 -0.861005,1.295988 0.180002,-0.135 -0.495001,0.218998 -1.410004,0.443995 a 54.300214,54.299489 0 0 1 -3.597013,0.713994 c -2.871012,0.491996 -6.519027,1.013991 -10.140042,1.568985 -3.615014,0.554996 -7.197029,1.14899 -10.005039,1.817983 -1.401006,0.335997 -2.610011,0.683993 -3.591014,1.10099 -0.987004,0.416995 -1.971009,0.740992 -2.39401,2.11798 -0.426002,1.376987 0.180001,2.177979 0.735004,3.11097 0.558002,0.935991 1.332005,1.958982 2.277008,3.095972 1.890007,2.270977 4.455018,4.958953 7.068028,7.643928 2.616011,2.681976 5.280021,5.354946 7.332029,7.529931 1.023004,1.085985 1.899007,2.051978 2.520009,2.80497 0.618004,0.755993 0.972004,1.454985 0.918006,1.280993 -0.054,-0.174 0.048,0.629992 -0.03,1.625985 -0.081,0.995992 -0.243002,2.315977 -0.465002,3.830962 -0.444001,3.02997 -1.104004,6.83994 -1.719007,10.625896 -0.615003,3.78597 -1.182005,7.541926 -1.443005,10.541906 -0.129,1.49999 -0.186001,2.80797 -0.114,3.89996 0.036,0.549 0.096,1.04098 0.240002,1.52698 0.141,0.483 0.345001,1.02 0.936004,1.47299 0.591002,0.45 1.191003,0.504 1.701006,0.495 0.510002,-0.009 0.990003,-0.102 1.506006,-0.24 a 23.460093,23.459779 0 0 0 3.525014,-1.32899 c 2.64301,-1.19098 5.868023,-2.92197 9.105035,-4.70695 3.240012,-1.78499 6.477026,-3.62397 9.075036,-4.99796 1.302004,-0.69 2.445011,-1.259981 3.312011,-1.643981 0.870008,-0.384 1.632008,-0.513 1.377008,-0.513 -0.258,0 0.51,0.129 1.380007,0.51 0.87,0.387 2.013008,0.959981 3.312008,1.646981 2.601015,1.37399 5.841022,3.21297 9.075037,4.99796 3.240015,1.78498 6.46203,3.51597 9.108036,4.70695 1.320008,0.597 2.490008,1.05899 3.525015,1.33199 0.516,0.135 0.999001,0.228 1.506011,0.237 0.51,0.009 1.11,-0.042 1.701,-0.495 0.591,-0.44999 0.795,-0.98999 0.936,-1.47299 0.141,-0.486 0.201,-0.97798 0.24,-1.52698 0.069,-1.09199 0.015,-2.39997 -0.114,-3.89996 -0.261,-2.99998 -0.831,-6.755936 -1.443,-10.541906 -0.615,-3.785956 -1.278,-7.595926 -1.719,-10.625896 -0.22201,-1.514985 -0.39001,-2.83497 -0.47101,-3.830962 -0.078,-0.995993 0.03,-1.799985 -0.024,-1.625985 -0.054,0.173992 0.3,-0.525 0.91801,-1.280993 0.621,-0.752992 1.494,-1.718985 2.52,-2.80497 2.04901,-2.174985 4.71002,-4.847955 7.32603,-7.529931 2.61302,-2.684975 5.17501,-5.372951 7.06802,-7.643928 0.945,-1.13699 1.725,-2.159981 2.28002,-3.095972 0.55798,-0.932991 1.158,-1.733983 0.73198,-3.11097 -0.42598,-1.376988 -1.404,-1.700985 -2.388,-2.11798 a 23.415091,23.414779 0 0 0 -3.60001,-1.10099 c -2.80801,-0.668993 -6.38402,-1.262987 -9.99904,-1.817983 -3.61801,-0.554994 -7.266026,-1.079989 -10.140033,-1.568985 a 54.312214,54.311489 0 0 1 -3.591014,-0.713994 c -0.918,-0.224997 -1.599007,-0.578994 -1.419007,-0.443995 0.18,0.138 -0.366,-0.446996 -0.858,-1.298988 a 60.987239,60.986426 0 0 1 -1.761008,-3.389969 c -1.335007,-2.720974 -2.931007,-6.209941 -4.551015,-9.653908 -1.620007,-3.440969 -3.261015,-6.833936 -4.731022,-9.422912 a 25.362099,25.361761 0 0 0 -2.094008,-3.23397 6.6210262,6.6209378 0 0 0 -1.068007,-1.103989 C 74.256606,12.329997 73.758606,12 72.999606,12 Z"
       overflow="visible"
       fill="url(#I)"
       id="path233-62" />
  </g>
</svg>
