<svg xmlns="http://www.w3.org/2000/svg" viewBox="0 0 16 16">
    <path d="M8 1C6.338 1 5 2.338 5 4v1.018A4.97 4.97 0 0 0 3 9v1c0 2.77 2.23 5 5 5s5-2.23 5-5V9a4.97 4.97 0 0 0-2-3.982V4c0-1.662-1.338-3-3-3z" opacity=".2"/>
    <path d="M8 0C5.784 0 4 1.784 4 4v.531a6.036 6.036 0 0 0-1.193 1.467H2V6A.994.994 0 0 1 .996 4.996V4H0v.996c0 1.1.9 2 2 2v.002h.348A5.972 5.972 0 0 0 2 9H0v1h2c0 .703.127 1.374.348 2H2v.002c-1.1 0-2 .9-2 2v.996h.996v-.996A.994.994 0 0 1 2 12.998V13h.805A5.98 5.98 0 0 0 8 16a5.98 5.98 0 0 0 5.195-3H14v-.002a.994.994 0 0 1 1.004 1.004v.996H16v-.996c0-1.1-.9-2-2-2V12h-.348c.22-.626.348-1.297.348-2h2V9h-2c0-.704-.126-1.376-.348-2.002H14v-.002c1.1 0 2-.9 2-2V4h-.996v.996A.994.994 0 0 1 14 6v-.002h-.807A6.038 6.038 0 0 0 12 4.53V4c0-2.216-1.784-4-4-4zm0 1c1.662 0 3 1.338 3 3v1c0 .5-1.259 1-2 1H7c-.741 0-2-.5-2-1V4c0-1.662 1.338-3 3-3zM4.193 5.775C4.651 6.67 5.891 7 7 7v7.9A4.989 4.989 0 0 1 3 10V9c0-1.236.452-2.358 1.193-3.225zm7.614 0A4.937 4.937 0 0 1 13 9v1a4.989 4.989 0 0 1-4 4.9V7c1.11 0 2.349-.33 2.807-1.225z"/>
</svg>
