<svg xmlns="http://www.w3.org/2000/svg" viewBox="0 0 16 16">
    <path d="M8 0a8 8 0 0 0-8 8 8 8 0 0 0 6 7.734v-2.73H5c-.289 0-.528-.13-.709-.274a2.788 2.788 0 0 1-.457-.488c-.265-.342-.503-.7-.688-.885-.132-.132-.415-.25-.677-.302-.262-.053.06-.053.06-.053-.669.035-.722-.969-.052-1.004h.052s-.232.002.131.074c.363.073.828.209 1.195.576.316.316.548.7.768.983.11.142.215.257.29.316.073.06.096.053.087.053h1c0-1.108.892-2 2-2H6c-1.662 0-3-1.338-3-3 0-1.028.513-1.929 1.297-2.469l-.15-.088a.293.293 0 0 1-.108-.4l.518-.897a.292.292 0 0 1 .4-.107l.897.518c.14.08.188.26.107.4l-.03.049C5.956 4.006 5.978 4 6 4h4c.023 0 .045.005.068.006l-.029-.049a.293.293 0 0 1 .107-.4l.897-.518c.14-.08.32-.033.4.107l.518.897c.08.14.033.32-.107.4l-.15.088A2.988 2.988 0 0 1 13 7c0 1.662-1.338 3-3 3H8c1.108 0 2 .892 2 2v3.74A8 8 0 0 0 16 8a8 8 0 0 0-8-8z"/>
</svg>
