<?xml version="1.0" encoding="UTF-8" standalone="no"?>
<!-- Created with Inkscape (http://www.inkscape.org/) -->

<svg
   xmlns:dc="http://purl.org/dc/elements/1.1/"
   xmlns:cc="http://creativecommons.org/ns#"
   xmlns:rdf="http://www.w3.org/1999/02/22-rdf-syntax-ns#"
   xmlns:svg="http://www.w3.org/2000/svg"
   xmlns="http://www.w3.org/2000/svg"
   xmlns:sodipodi="http://sodipodi.sourceforge.net/DTD/sodipodi-0.dtd"
   xmlns:inkscape="http://www.inkscape.org/namespaces/inkscape"
   width="16"
   height="16"
   viewBox="0 0 16.000001 16.000001"
   id="svg2"
   version="1.1"
   inkscape:version="0.91 r13725"
   sodipodi:docname="mti-logo-16.svg">
  <defs
     id="defs4" />
  <sodipodi:namedview
     id="base"
     pagecolor="#ffffff"
     bordercolor="#666666"
     borderopacity="1.0"
     inkscape:pageopacity="0.0"
     inkscape:pageshadow="2"
     inkscape:zoom="1"
     inkscape:cx="-50.420493"
     inkscape:cy="-26.245893"
     inkscape:document-units="px"
     inkscape:current-layer="layer1"
     showgrid="true"
     units="px"
     inkscape:window-width="1920"
     inkscape:window-height="1017"
     inkscape:window-x="0"
     inkscape:window-y="30"
     inkscape:window-maximized="1"
     showguides="true"
     inkscape:guide-bbox="true"
     showborder="true">
    <inkscape:grid
       type="xygrid"
       id="grid3340"
       empspacing="4"
       empcolor="#3fabff"
       empopacity="0.25098039"
       visible="true" />
    <inkscape:grid
       type="xygrid"
       id="grid3342"
       spacingy="0.50000002"
       spacingx="0.50000002"
       empspacing="4"
       color="#ff3fff"
       opacity="0.1254902"
       empcolor="#a097ff"
       empopacity="0.25098039"
       dotted="true"
       visible="true" />
    <sodipodi:guide
       position="8.0000005,8.0000005"
       orientation="0,1"
       id="guide4136" />
    <sodipodi:guide
       position="8.0000005,8.0000005"
       orientation="1,0"
       id="guide4138" />
  </sodipodi:namedview>
  <metadata
     id="metadata7">
    <rdf:RDF>
      <cc:Work
         rdf:about="">
        <dc:format>image/svg+xml</dc:format>
        <dc:type
           rdf:resource="http://purl.org/dc/dcmitype/StillImage" />
        <dc:title></dc:title>
      </cc:Work>
    </rdf:RDF>
  </metadata>
  <g
     inkscape:label="Layer 1"
     inkscape:groupmode="layer"
     id="layer1"
     transform="translate(0,-1036.3622)">
    <path
       style="fill:#000000;stroke:none"
       d="M 7 0 L 7 9 L 5 9 L 5 11 L 7 11 L 7 16 L 9 16 L 9 11 L 11 11 L 11 9 L 9 9 L 9 0 L 7 0 z M 2 1 L 2 5 L 2 9 L 0 9 L 0 11 L 2 11 L 2 15 L 4 15 L 4 6.5 L 6 8 L 6 5 L 2 1 z M 14 1 L 10 5 L 10 8 L 12 6.5 L 12 15 L 14 15 L 14 11 L 16 11 L 16 9 L 14 9 L 14 5 L 14 1 z "
       transform="translate(-4.7683724e-7,1036.3622)"
       id="rect4140" />
  </g>
</svg>
