<?xml version="1.0" encoding="UTF-8" standalone="no"?>
<!-- Created with Inkscape (http://www.inkscape.org/) -->

<svg
   xmlns:dc="http://purl.org/dc/elements/1.1/"
   xmlns:cc="http://creativecommons.org/ns#"
   xmlns:rdf="http://www.w3.org/1999/02/22-rdf-syntax-ns#"
   xmlns:svg="http://www.w3.org/2000/svg"
   xmlns="http://www.w3.org/2000/svg"
   xmlns:sodipodi="http://sodipodi.sourceforge.net/DTD/sodipodi-0.dtd"
   xmlns:inkscape="http://www.inkscape.org/namespaces/inkscape"
   width="64"
   height="64"
   viewBox="0 0 64.000004 64.000004"
   id="svg2"
   version="1.1"
   inkscape:version="0.91 r13725"
   sodipodi:docname="mti-logo-64.svg">
  <defs
     id="defs4" />
  <sodipodi:namedview
     id="base"
     pagecolor="#ffffff"
     bordercolor="#666666"
     borderopacity="1.0"
     inkscape:pageopacity="0.0"
     inkscape:pageshadow="2"
     inkscape:zoom="2"
     inkscape:cx="43.366587"
     inkscape:cy="57.66023"
     inkscape:document-units="px"
     inkscape:current-layer="layer1"
     showgrid="true"
     units="px"
     inkscape:window-width="1920"
     inkscape:window-height="1017"
     inkscape:window-x="0"
     inkscape:window-y="30"
     inkscape:window-maximized="1"
     showguides="true"
     inkscape:guide-bbox="true"
     showborder="true">
    <inkscape:grid
       type="xygrid"
       id="grid3340"
       empspacing="4"
       empcolor="#3fabff"
       empopacity="0.25098039"
       visible="true" />
    <inkscape:grid
       type="xygrid"
       id="grid3342"
       spacingy="0.50000002"
       spacingx="0.50000002"
       empspacing="4"
       color="#ff3fff"
       opacity="0.1254902"
       empcolor="#a097ff"
       empopacity="0.25098039"
       dotted="true"
       visible="true" />
    <sodipodi:guide
       position="16.000001,16.000001"
       orientation="0,1"
       id="guide4136" />
    <sodipodi:guide
       position="16.000001,16.000001"
       orientation="1,0"
       id="guide4138" />
  </sodipodi:namedview>
  <metadata
     id="metadata7">
    <rdf:RDF>
      <cc:Work
         rdf:about="">
        <dc:format>image/svg+xml</dc:format>
        <dc:type
           rdf:resource="http://purl.org/dc/dcmitype/StillImage" />
        <dc:title></dc:title>
      </cc:Work>
    </rdf:RDF>
  </metadata>
  <g
     inkscape:label="Layer 1"
     inkscape:groupmode="layer"
     id="layer1"
     transform="translate(0,-988.36219)">
    <path
       style="fill:#000000;stroke:none"
       d="m 30.000004,988.36219 0,34.00001 -12.000002,0 0,4 12.000002,0 0,26 4.000001,0 0,-26 12.000002,0 0,-4 -12.000002,0 0,-34.00001 -4.000001,0 z m -18.000003,8 0,4.00001 0,2 0,20 -12.00000195367449,0 0,4 12.00000195367449,0 0,18 4.000001,0 0,-38 12.000002,12 0,-6 -12.000002,-12 -4.000001,-4.00001 z m 40.000007,0 -4,4.00001 -12.000003,12 0,6 12.000003,-12 0,38 4,0 0,-18 12.000002,0 0,-4 -12.000002,0 0,-20 0,-2 0,-4.00001 z"
       id="rect4138"
       inkscape:connector-curvature="0" />
  </g>
</svg>
