<?xml version="1.0" encoding="UTF-8" standalone="no"?>
<!-- Created with Inkscape (http://www.inkscape.org/) -->

<svg
   xmlns:dc="http://purl.org/dc/elements/1.1/"
   xmlns:cc="http://creativecommons.org/ns#"
   xmlns:rdf="http://www.w3.org/1999/02/22-rdf-syntax-ns#"
   xmlns:svg="http://www.w3.org/2000/svg"
   xmlns="http://www.w3.org/2000/svg"
   xmlns:sodipodi="http://sodipodi.sourceforge.net/DTD/sodipodi-0.dtd"
   xmlns:inkscape="http://www.inkscape.org/namespaces/inkscape"
   width="256"
   height="256"
   viewBox="0 0 256.00002 256.00002"
   id="svg2"
   version="1.1"
   inkscape:version="0.91 r13725"
   sodipodi:docname="mti-logo-256.svg">
  <defs
     id="defs4" />
  <sodipodi:namedview
     id="base"
     pagecolor="#ffffff"
     bordercolor="#666666"
     borderopacity="1.0"
     inkscape:pageopacity="0.0"
     inkscape:pageshadow="2"
     inkscape:zoom="2"
     inkscape:cx="77.866587"
     inkscape:cy="101.16023"
     inkscape:document-units="px"
     inkscape:current-layer="layer1"
     showgrid="true"
     units="px"
     inkscape:window-width="1920"
     inkscape:window-height="1017"
     inkscape:window-x="0"
     inkscape:window-y="30"
     inkscape:window-maximized="1"
     showguides="true"
     inkscape:guide-bbox="true"
     showborder="true">
    <inkscape:grid
       type="xygrid"
       id="grid3340"
       empspacing="4"
       empcolor="#3fabff"
       empopacity="0.25098039"
       visible="true" />
    <inkscape:grid
       type="xygrid"
       id="grid3342"
       spacingy="0.50000002"
       spacingx="0.50000002"
       empspacing="4"
       color="#ff3fff"
       opacity="0.1254902"
       empcolor="#a097ff"
       empopacity="0.25098039"
       dotted="true"
       visible="true" />
  </sodipodi:namedview>
  <metadata
     id="metadata7">
    <rdf:RDF>
      <cc:Work
         rdf:about="">
        <dc:format>image/svg+xml</dc:format>
        <dc:type
           rdf:resource="http://purl.org/dc/dcmitype/StillImage" />
        <dc:title></dc:title>
      </cc:Work>
    </rdf:RDF>
  </metadata>
  <g
     inkscape:label="Layer 1"
     inkscape:groupmode="layer"
     id="layer1"
     transform="translate(0,-796.36216)">
    <path
       style="fill:#000000;stroke:none"
       d="m 120.00002,796.36216 0,136.00004 -48.000008,0 0,16 48.000008,0 0,104 16.00001,0 0,-104 48.00001,0 0,-16 -48.00001,0 0,-136.00004 -16.00001,0 z m -72.000012,32 0,16.00004 0,8 0,80 -48.00000895367448,0 0,16 48.00000895367448,0 0,72 16.000004,0 0,-152 48.000008,48 0,-24 -48.000008,-48 -16.000004,-16.00004 z m 160.000032,0 -16,16.00004 -48.00001,48 0,24 48.00001,-48 0,152 16,0 0,-72 48,0 0,-16 -48,0 0,-80 0,-8 0,-16.00004 z"
       id="rect4138"
       inkscape:connector-curvature="0" />
  </g>
</svg>
