<?xml version="1.0" encoding="UTF-8" standalone="no"?>
<!-- Created with Inkscape (http://www.inkscape.org/) -->

<svg
   xmlns:dc="http://purl.org/dc/elements/1.1/"
   xmlns:cc="http://creativecommons.org/ns#"
   xmlns:rdf="http://www.w3.org/1999/02/22-rdf-syntax-ns#"
   xmlns:svg="http://www.w3.org/2000/svg"
   xmlns="http://www.w3.org/2000/svg"
   xmlns:sodipodi="http://sodipodi.sourceforge.net/DTD/sodipodi-0.dtd"
   xmlns:inkscape="http://www.inkscape.org/namespaces/inkscape"
   width="128"
   height="128"
   viewBox="0 0 128.00001 128.00001"
   id="svg2"
   version="1.1"
   inkscape:version="0.91 r13725"
   sodipodi:docname="mti-logo-128.svg">
  <defs
     id="defs4" />
  <sodipodi:namedview
     id="base"
     pagecolor="#ffffff"
     bordercolor="#666666"
     borderopacity="1.0"
     inkscape:pageopacity="0.0"
     inkscape:pageshadow="2"
     inkscape:zoom="2"
     inkscape:cx="77.866587"
     inkscape:cy="101.16023"
     inkscape:document-units="px"
     inkscape:current-layer="layer1"
     showgrid="true"
     units="px"
     inkscape:window-width="1920"
     inkscape:window-height="1017"
     inkscape:window-x="0"
     inkscape:window-y="30"
     inkscape:window-maximized="1"
     showguides="true"
     inkscape:guide-bbox="true"
     showborder="true">
    <inkscape:grid
       type="xygrid"
       id="grid3340"
       empspacing="4"
       empcolor="#3fabff"
       empopacity="0.25098039"
       visible="true" />
    <inkscape:grid
       type="xygrid"
       id="grid3342"
       spacingy="0.50000002"
       spacingx="0.50000002"
       empspacing="4"
       color="#ff3fff"
       opacity="0.1254902"
       empcolor="#a097ff"
       empopacity="0.25098039"
       dotted="true"
       visible="true" />
  </sodipodi:namedview>
  <metadata
     id="metadata7">
    <rdf:RDF>
      <cc:Work
         rdf:about="">
        <dc:format>image/svg+xml</dc:format>
        <dc:type
           rdf:resource="http://purl.org/dc/dcmitype/StillImage" />
        <dc:title></dc:title>
      </cc:Work>
    </rdf:RDF>
  </metadata>
  <g
     inkscape:label="Layer 1"
     inkscape:groupmode="layer"
     id="layer1"
     transform="translate(0,-924.36218)">
    <path
       style="fill:#000000;stroke:none"
       d="m 60.000009,924.36218 0,68.00002 -24.000004,0 0,8 24.000004,0 0,52 8.000002,0 0,-52 24.000005,0 0,-8 -24.000005,0 0,-68.00002 -8.000002,0 z m -36.000006,16 0,8.00002 0,4 0,40 -24.00000395367449,0 0,8 24.00000395367449,0 0,36 8.000002,0 0,-76 24.000004,24 0,-12 -24.000004,-24 -8.000002,-8.00002 z m 80.000017,0 -8.000002,8.00002 -24.000006,24 0,12 24.000006,-24 0,76 8.000002,0 0,-36 24,0 0,-8 -24,0 0,-40 0,-4 0,-8.00002 z"
       id="rect4138"
       inkscape:connector-curvature="0" />
  </g>
</svg>
