<svg xmlns="http://www.w3.org/2000/svg" viewBox="0 0 18 18" fill="currentColor" height="18px" width="18px">
    <path d="M14.358 8.047a.982.982 0 0 0-.869-.545h-3V2a.5.5 0 0 0-.5-.5H7.987a.5.5 0 0 0-.5.5l.002 5.5h-3c-.78 0-1.268.937-.818 1.576a.5.5 0 0 0 .039.051l4.498 5.998-.041-.05a1.004 1.004 0 0 0 1.64 0l-.04.05 4.501-6a.984.984 0 0 0 .09-1.078z" opacity=".2"/>
    <path d="M7.988 1c-.546 0-1 .454-1 1l.002 5h-2.5C3.31 7 2.583 8.397 3.264 9.363a.5.5 0 0 0 .017.026c.986 1.227 3.269 4.286 4.698 6.197.149.214.335.287.503.338.168.05.337.07.506.07.17 0 .34-.02.508-.07.168-.05.353-.123.502-.338l4.666-6.152c.365-.466.42-1.097.15-1.612a1.515 1.515 0 0 0-1.32-.82.5.5 0 0 0-.006 0h-2.5V2c0-.546-.453-1-1-1zm0 1h2v5.502a.5.5 0 0 0 .5.5h2.996a.5.5 0 0 1 .444.283.503.503 0 0 1-.051.531.5.5 0 0 0-.006.006L9.19 14.998a.5.5 0 0 0-.011.016c.06-.086.073-.061.027-.047a.844.844 0 0 1-.434 0c-.045-.014-.032-.038.028.047a.5.5 0 0 0-.01-.014c-1.421-1.902-3.68-4.928-4.709-6.21v-.003C3.863 8.475 4.111 8 4.49 8h3a.5.5 0 0 0 .5-.5z"/>
</svg>
