<svg xmlns="http://www.w3.org/2000/svg" viewBox="0 0 18 18" fill="currentColor" height="18px" width="18px">
    <path d="M8.04 14.358a.982.982 0 0 1-.545-.87v-3H1.993a.5.5 0 0 1-.5-.5V7.988a.5.5 0 0 1 .5-.5l5.5.002v-3c0-.78.937-1.268 1.576-.818a.5.5 0 0 1 .051.039l5.998 4.498-.05-.041a1.004 1.004 0 0 1 0 1.64l.05-.04-6 4.5a.984.984 0 0 1-1.078.09z" opacity=".2"/>
    <path d="M1 7.987c0-.546.454-1 1-1l5 .002v-2.5c0-1.18 1.397-1.907 2.363-1.227a.5.5 0 0 1 .026.018c1.227.985 4.286 3.269 6.197 4.697.214.15.287.336.338.504.05.168.07.336.07.506 0 .17-.02.34-.07.508-.05.168-.123.352-.338.502l-6.152 4.666a1.493 1.493 0 0 1-1.612.15 1.515 1.515 0 0 1-.82-1.32.5.5 0 0 1 0-.006v-2.5H2c-.546 0-1-.454-1-1zm1 0v2h5.502a.5.5 0 0 1 .5.5v2.996a.5.5 0 0 0 .283.443c.162.085.378.07.531-.05a.5.5 0 0 1 .006-.006l6.176-4.682a.5.5 0 0 1 .016-.012c-.086.06-.061.073-.047.028a.844.844 0 0 0 0-.434c-.014-.046-.038-.032.047.027a.5.5 0 0 1-.014-.01c-1.902-1.42-4.928-3.68-6.21-4.708h-.003C8.475 3.86 8 4.11 8 4.489v3a.5.5 0 0 1-.5.5Z"/>
</svg>
