<svg xmlns="http://www.w3.org/2000/svg" viewBox="0 0 18 18" fill="currentColor" height="18px" width="18px">
    <path d="M14.358 9.947a.982.982 0 0 1-.869.545h-3v5.502a.5.5 0 0 1-.5.5H7.987a.5.5 0 0 1-.5-.5l.002-5.5h-3c-.78 0-1.268-.937-.818-1.576a.5.5 0 0 1 .039-.05l4.498-5.999-.041.05a1.004 1.004 0 0 1 1.64 0l-.04-.05 4.501 6a.984.984 0 0 1 .09 1.078z" opacity=".2"/>
    <path d="M7.988 16.994c-.546 0-1-.454-1-1l.002-5h-2.5c-1.18 0-1.907-1.397-1.226-2.363a.5.5 0 0 1 .017-.026C4.267 7.378 6.55 4.32 7.98 2.408c.149-.214.335-.287.503-.338.168-.05.337-.07.506-.07.17 0 .34.02.508.07.168.051.353.124.502.338l4.666 6.153c.365.465.42 1.097.15 1.61a1.515 1.515 0 0 1-1.32.821.5.5 0 0 1-.006 0h-2.5v5.002c0 .547-.453 1-1 1zm0-1h2v-5.502a.5.5 0 0 1 .5-.5h2.996a.5.5 0 0 0 .444-.283.503.503 0 0 0-.051-.531.5.5 0 0 1-.006-.006L9.19 2.996a.5.5 0 0 1-.011-.016c.06.086.073.061.027.047a.844.844 0 0 0-.434 0c-.045.014-.032.039.028-.047a.5.5 0 0 1-.01.014C7.368 4.896 5.11 7.922 4.08 9.205v.002c-.217.312.031.787.41.787h3a.5.5 0 0 1 .5.5z"/>
</svg>
