<svg xmlns="http://www.w3.org/2000/svg" viewBox="0 0 18 18" fill="currentColor" height="18px" width="18px">
    <path d="M9.954 14.358a.982.982 0 0 0 .545-.87v-3H16a.5.5 0 0 0 .5-.5V7.988a.5.5 0 0 0-.5-.5l-5.5.002v-3c0-.78-.937-1.268-1.576-.818a.5.5 0 0 0-.051.039L2.876 8.208l.05-.041a1.004 1.004 0 0 0 0 1.64l-.05-.04 6 4.5a.984.984 0 0 0 1.078.09z" opacity=".2"/>
    <path d="M16.994 7.987c0-.546-.454-1-1-1l-5 .002v-2.5c0-1.18-1.397-1.907-2.363-1.227a.5.5 0 0 0-.026.018c-1.227.985-4.286 3.269-6.197 4.697-.214.15-.287.336-.338.504-.05.168-.07.336-.07.506 0 .17.02.34.07.508.051.168.124.352.338.502l6.153 4.666c.465.365 1.097.419 1.61.15.494-.258.816-.764.821-1.32a.5.5 0 0 0 0-.006v-2.5h5.002c.547 0 1-.454 1-1zm-1 0v2h-5.502a.5.5 0 0 0-.5.5v2.996a.5.5 0 0 1-.283.443.503.503 0 0 1-.531-.05.5.5 0 0 0-.006-.006L2.996 9.188a.5.5 0 0 0-.016-.012c.086.06.061.073.047.028a.844.844 0 0 1 0-.434c.014-.046.039-.032-.047.027a.5.5 0 0 0 .014-.01c1.902-1.42 4.928-3.68 6.211-4.708h.002c.312-.218.787.031.787.41v3a.5.5 0 0 0 .5.5z"/>
</svg>
