<svg xmlns="http://www.w3.org/2000/svg" viewBox="0 0 18 18" fill="currentColor" height="18px" width="18px">
    <path d="M12.5 4c0 1.933-1.567 2.45-3.5 2.45S5.5 5.933 5.5 4a3.5 3.5 0 1 1 7 0z" opacity=".2"/>
    <path d="M8.5 6.5h1l2.01 7.5s-1.01-.5-2.51-.5c-1.5 0-2.5.5-2.5.5Z" opacity=".4"/>
    <path d="M5.5 4.5c-1.844 1.235-2 3.488-2 6 0 1.933.478 3.687 1.404 4.959.186.204.382.391.584.564L5.5 16l.5-1 .5-1 2-7.5h1l2.01 7.5h-.01l.5 1 .5 1 .041.082c.197-.188.383-.395.555-.623.926-1.272 1.404-3.026 1.404-4.96 0-2.5-.168-4.761-2-6-1.5 2.5-5.5 2.5-7 0z" opacity=".1"/>
    <path d="M9 0C6.797 0 5 1.797 5 4c0 .081.004.16.01.238-.9.684-1.416 1.625-1.686 2.657-.009.033-.015.067-.023.101-1.016-.033-1.524-.327-1.854-.832-.35-.537-.491-1.44-.447-2.646a.5.5 0 1 0-1-.036c-.048 1.293.062 2.391.61 3.229.494.757 1.353 1.197 2.51 1.275A17.494 17.494 0 0 0 3.005 10H.5a.5.5 0 0 0 0 1h2.512c.03.71.12 1.395.277 2.043-1.018.126-1.838.532-2.394 1.2-.682.815-.944 1.948-.895 3.275a.5.5 0 1 0 1-.036c-.043-1.173.195-2.04.662-2.6.408-.487 1.009-.796 1.92-.866.234.635.54 1.22.918 1.738C5.507 17.136 7.059 18.02 9 18.02c1.941 0 3.493-.884 4.5-2.266a7.137 7.137 0 0 0 .918-1.738c.911.07 1.512.379 1.92.867.467.559.705 1.426.662 2.6a.5.5 0 1 0 1 .035c.049-1.327-.213-2.46-.895-3.276-.556-.667-1.376-1.073-2.394-1.199.156-.648.248-1.334.277-2.043H17.5a.5.5 0 0 0 0-1h-2.506a17.188 17.188 0 0 0-.119-2.014c1.16-.077 2.02-.517 2.516-1.275.547-.838.657-1.936.609-3.229a.5.5 0 1 0-1 .036c.044 1.207-.096 2.109-.447 2.646-.331.507-.84.8-1.862.832L14.67 6.9c-.271-1.032-.785-1.976-1.68-2.662.006-.078.01-.157.01-.238 0-2.203-1.797-4-4-4Zm0 1c1.663 0 3 1.337 3 3 0 .831-.274 1.223-.777 1.518-.504.295-1.301.431-2.223.431-.922 0-1.719-.136-2.223-.431C6.274 5.223 6 4.83 6 4c0-1.663 1.337-3 3-3ZM5.29 5.314c.223.459.565.822.983 1.067.469.274 1.01.426 1.59.502L5.697 14.1c-.03.026-.05.046-.05.046l.029.03-.317 1.056c-.016-.022-.034-.043-.05-.066C4.41 13.767 4.008 12.103 4 10.5c0-1.245.044-2.4.293-3.352.193-.737.494-1.344.996-1.834Zm7.42.002c.498.491.8 1.101.993 1.838.25.954.297 2.107.297 3.346-.029 1.825-.434 3.184-1.309 4.666-.016.023-.034.044-.05.066l-.317-1.056.03-.03-.051-.046-2.166-7.217c.58-.076 1.121-.228 1.59-.502.418-.245.76-.607.984-1.065zM8.89 6.947 9 6.95l.111-.002.97 3.229A3.26 3.26 0 0 0 9 10c-.415 0-.775.07-1.08.176ZM9 11c.639 0 1.014.202 1.25.39.174.14.256.254.287.305l.5 1.666A5.668 5.668 0 0 0 9 13c-.831 0-1.512.16-2.037.361L7.46 11.7c.03-.05.112-.167.289-.308C7.986 11.2 8.361 11 9 11Zm0 3c.917 0 1.587.227 2.027.447.177.088.309.17.407.237l.414 1.38c-.749.61-1.686.956-2.848.956s-2.1-.346-2.848-.956l.414-1.38a3.36 3.36 0 0 1 .407-.237C7.413 14.227 8.083 14 9 14Z"/>
</svg>
