<svg xmlns="http://www.w3.org/2000/svg" viewBox="0 0 18 18" fill="currentColor" height="18px" width="18px">
    <path d="M4 2c-1.108 0-2 .892-2 2v1h14V4c0-1.108-.892-2-2-2Z" opacity=".2"/>
    <path d="M4 1C2.347 1 1 2.346 1 4v10c0 1.653 1.347 3 3 3h10c1.653 0 3-1.347 3-3V4c0-1.654-1.347-3-3-3Zm0 1h10c1.117 0 2 .883 2 2v1H2V4c0-1.117.883-2 2-2Zm.5 1a.5.5 0 0 0 0 1h2a.5.5 0 0 0 0-1zm7 0a.5.5 0 0 0 0 1h2a.5.5 0 0 0 0-1zM2 6h14v8c0 1.116-.883 2-2 2H4c-1.117 0-2-.884-2-2Z"/>
    <path d="M4.5 7a.5.5 0 0 0-.5.5.5.5 0 0 0 .5.5h1a.5.5 0 0 0 .5-.5.5.5 0 0 0-.5-.5Zm4 0a.5.5 0 0 0-.5.5.5.5 0 0 0 .5.5h1a.5.5 0 0 0 .5-.5.5.5 0 0 0-.5-.5Zm4 0a.5.5 0 0 0-.5.5.5.5 0 0 0 .5.5h1a.5.5 0 0 0 .5-.5.5.5 0 0 0-.5-.5Zm-8 2a.5.5 0 0 0-.5.5.5.5 0 0 0 .5.5h1a.5.5 0 0 0 .5-.5.5.5 0 0 0-.5-.5Zm4 0a.5.5 0 0 0-.5.5.5.5 0 0 0 .5.5h1a.5.5 0 0 0 .5-.5.5.5 0 0 0-.5-.5Zm4 0a.5.5 0 0 0-.5.5.5.5 0 0 0 .5.5h1a.5.5 0 0 0 .5-.5.5.5 0 0 0-.5-.5Zm-8 2a.5.5 0 0 0-.5.5.5.5 0 0 0 .5.5h1a.5.5 0 0 0 .5-.5.5.5 0 0 0-.5-.5Zm4 0a.5.5 0 0 0-.5.5.5.5 0 0 0 .5.5h1a.5.5 0 0 0 .5-.5.5.5 0 0 0-.5-.5Zm4 0a.5.5 0 0 0-.5.5.5.5 0 0 0 .5.5h1a.5.5 0 0 0 .5-.5.5.5 0 0 0-.5-.5Zm-8 2a.5.5 0 0 0-.5.5.5.5 0 0 0 .5.5h1a.5.5 0 0 0 .5-.5.5.5 0 0 0-.5-.5Zm4 0a.5.5 0 0 0-.5.5.5.5 0 0 0 .5.5h1a.5.5 0 0 0 .5-.5.5.5 0 0 0-.5-.5Zm4 0a.5.5 0 0 0-.5.5.5.5 0 0 0 .5.5h1a.5.5 0 0 0 .5-.5.5.5 0 0 0-.5-.5Z" opacity=".4"/>
</svg>
