<svg xmlns="http://www.w3.org/2000/svg" viewBox="0 0 18 18" fill="currentColor" height="18px" width="18px">
    <path d="M5 1c-1.099 0-2 .901-2 2 0 .595.332 1.029.445 1.238a.5.5 0 0 0 .02.033s.394.61.787 1.34c.196.365.39.76.531 1.108.141.348.217.667.217.783 0 .03-.132.557-.37 1.125-.237.568-.56 1.25-.884 1.9a76.215 76.215 0 0 1-1.299 2.48.5.5 0 0 0-.002.005c-.113.21-.443.643-.445 1.236a.5.5 0 0 0 0 .002c0 .55.193 1.154.51 1.69C2.826 16.474 3.3 17 4 17h9c.7 0 1.174-.525 1.49-1.06.317-.536.51-1.14.51-1.69 0-.596-.331-1.027-.45-1.246a.5.5 0 0 0-.001-.006s-.65-1.178-1.297-2.477c-.324-.649-.648-1.329-.885-1.896A6.837 6.837 0 0 1 12 7.502c0-.117.076-.434.217-.781.14-.348.334-.74.53-1.104a22.18 22.18 0 0 1 .782-1.336.5.5 0 0 0 .022-.035C13.669 4.027 14 3.596 14 3c0-1.099-.901-2-2-2Zm0 1h7c.558 0 1 .442 1 1 0 .148-.166.467-.326.766l-.004.007c-.02.03-.402.62-.805 1.37a12.48 12.48 0 0 0-.576 1.203c-.162.4-.288.769-.289 1.152-.001.469.193.911.445 1.514.252.602.581 1.296.91 1.957a75.457 75.457 0 0 0 1.317 2.511c.161.3.328.621.328.77 0 .279-.143.799-.37 1.182-.226.382-.502.568-.63.568H4c-.128 0-.404-.186-.63-.568-.227-.383-.37-.903-.37-1.182.001-.146.167-.47.322-.758l.002-.004c.002-.003.658-1.193 1.317-2.515.33-.662.661-1.356.914-1.96C5.807 8.41 6 7.968 6 7.499c-.001-.384-.127-.753-.29-1.154-.161-.402-.372-.82-.58-1.205a22.195 22.195 0 0 0-.806-1.377C4.167 3.47 4 3.145 4 3c0-.558.442-1 1-1Z"/>
    <path d="M4.5 5.5h8m-8 4h8"/>
    <path d="M5.25 5.5h6.5s-.25 1-.25 2 .25 2 .25 2h-6.5s.25-1 .25-2-.25-2-.25-2z" opacity=".2"/>
</svg>
