<svg xmlns="http://www.w3.org/2000/svg" viewBox="0 0 18 18" fill="currentColor" height="18px" width="18px">
    <path d="M7 2C5.347 2 4 3.347 4 5v.102c-2.238.26-4 2.091-4 4.398 0 2.405 1.901 4.332 4.275 4.455C4.691 15.114 5.702 16 7 16h7c1.653 0 3-1.347 3-3V5c0-1.653-1.347-3-3-3Zm0 1h7c1.117 0 2 .883 2 2v8c0 1.117-.883 2-2 2H7a1.985 1.985 0 0 1-1.959-1.598L4.961 13H4.5A3.481 3.481 0 0 1 1 9.5C1 7.552 2.552 6 4.5 6H5V5c0-1.117.883-2 2-2Zm0 1c-.545 0-1 .455-1 1v1c0 .417.224.784.518 1.035.293.251.66.426 1.074.565.829.276 1.866.4 2.908.4 1.042 0 2.08-.124 2.908-.4.415-.139.781-.314 1.074-.565C14.776 6.784 15 6.417 15 6V5c0-.545-.455-1-1-1Zm0 1h7v1c0 .083-.026.154-.17.277-.144.124-.403.262-.738.373-.671.224-1.634.35-2.592.35-.958 0-1.92-.126-2.592-.35-.335-.111-.594-.249-.738-.373C7.026 6.154 7 6.083 7 6ZM4.5 7A2.506 2.506 0 0 0 2 9.5C2 10.876 3.124 12 4.5 12H5V7ZM4 8.205v2.59c-.558-.217-1-.653-1-1.295 0-.642.442-1.078 1-1.295Z"/>
    <path d="M7 5h7v1c0 .083-.026.154-.17.277-.144.124-.403.262-.738.373-.671.224-1.634.35-2.592.35-.958 0-1.92-.126-2.592-.35-.335-.111-.594-.249-.738-.373C7.026 6.154 7 6.083 7 6Z" opacity=".4"/>
</svg>
