<svg xmlns="http://www.w3.org/2000/svg" viewBox="0 0 18 18" fill="currentColor" height="18px" width="18px">
    <path d="M6 0c-.799 0-1.443.507-1.762 1.19C2.972 1.54 2 2.624 2 4c0 .26.116.503.27.68.153.176.342.305.556.418.06.032.125.062.19.091l.986 9.364C4.139 15.857 5.122 17 6.5 17h5c1.378 0 2.36-1.143 2.498-2.447l.986-9.364c.065-.029.13-.06.19-.091a1.87 1.87 0 0 0 .556-.418c.154-.177.27-.42.27-.68 0-1.375-.972-2.46-2.238-2.81C13.442.506 12.799 0 12 0Zm0 1h4.043a.748.748 0 0 0 .707 1h.5a.748.748 0 0 0 .707-1H12a.99.99 0 0 1 .951.691l.094.29.016.001a.748.748 0 0 1-.125.188C12.669 2.475 11.689 3 9 3c-2.69 0-3.669-.525-3.936-.83a.748.748 0 0 1-.125-.188l.016-.002.094-.289A.99.99 0 0 1 6 1ZM4.006 2.264c.05.188.143.382.305.566C4.919 3.525 6.189 4 9 4c2.81 0 4.081-.475 4.69-1.17a1.41 1.41 0 0 0 .304-.566A1.98 1.98 0 0 1 15 3.994c-.002.003-.006.01-.023.03a.99.99 0 0 1-.268.19c-.283.15-.757.301-1.34.42C12.204 4.875 10.6 5 9 5c-1.6 0-3.204-.126-4.37-.365-.582-.12-1.056-.27-1.339-.42a.99.99 0 0 1-.268-.192L3 3.994a1.98 1.98 0 0 1 1.006-1.73Zm.053 3.267c.12.03.243.058.373.084C5.704 5.876 7.349 6 9 6c1.65 0 3.296-.124 4.568-.385.13-.026.252-.054.373-.084l-.16 1.516C13.607 7.114 11.278 8 9 8c-2.278 0-4.607-.886-4.781-.953Zm.277 2.623C5.21 8.452 7.078 9 9 9c1.922 0 3.79-.548 4.664-.846l-.324 3.084c-.715.276-2.268.762-4.34.762s-3.625-.486-4.34-.762Zm.44 4.18c.911.3 2.392.666 4.224.666a13.63 13.63 0 0 0 4.225-.666l-.223 2.113c-.095.9-.664 1.553-1.502 1.553h-5c-.838 0-1.407-.654-1.502-1.553l-.223-2.113Z"/>
    <path d="M4.336 8.154C5.21 8.452 7.078 9 9 9c1.922 0 3.79-.548 4.664-.846l-.324 3.084c-.715.276-2.268.762-4.34.762s-3.625-.486-4.34-.762ZM6 1h4.043a.748.748 0 0 0 .707 1h.5a.748.748 0 0 0 .707-1H12a.99.99 0 0 1 .951.691l.094.29.016.001a.748.748 0 0 1-.125.188C12.669 2.475 11.689 3 9 3c-2.69 0-3.669-.525-3.936-.83a.748.748 0 0 1-.125-.188l.016-.002.094-.289A.99.99 0 0 1 6 1ZM4.006 2.264c.05.188.143.382.305.566C4.919 3.525 6.189 4 9 4c2.81 0 4.081-.475 4.69-1.17a1.41 1.41 0 0 0 .304-.566A1.98 1.98 0 0 1 15 3.994c-.002.003-.006.01-.023.03a.99.99 0 0 1-.268.19c-.283.15-.757.301-1.34.42C12.204 4.875 10.6 5 9 5c-1.6 0-3.204-.126-4.37-.365-.582-.12-1.056-.27-1.339-.42a.99.99 0 0 1-.268-.192L3 3.994a1.98 1.98 0 0 1 1.006-1.73z" opacity=".2"/>
</svg>
