<svg xmlns="http://www.w3.org/2000/svg" viewBox="0 0 18 18" fill="currentColor" height="18px" width="18px">
    <path d="M3 2C1.347 2 0 3.346 0 5v8c0 1.653 1.347 3 3 3h12c1.653 0 3-1.347 3-3V5c0-1.654-1.347-3-3-3Zm0 1h12c1.117 0 2 .883 2 2v8c0 1.116-.883 2-2 2H3c-1.117 0-2-.884-2-2V5c0-1.117.883-2 2-2Zm.477 2.002a.5.5 0 0 0-.346.162.5.5 0 0 0 .033.705L5.92 8.373l-2.774 2.773a.5.5 0 0 0 0 .707.5.5 0 0 0 .708 0L6.66 9.047l2.004 1.822a.5.5 0 0 0 .672 0l2.004-1.822 2.806 2.806a.5.5 0 0 0 .708 0 .5.5 0 0 0 0-.707L12.08 8.373l2.756-2.504a.5.5 0 0 0 .033-.705.5.5 0 0 0-.705-.033L9 9.824 3.836 5.131a.5.5 0 0 0-.36-.13z"/>
    <path d="M17 5v8c0 1.108-.892 2-2 2H3c-1.108 0-2-.892-2-2V5c0-1.108.892-2 2-2h12c1.108 0 2 .892 2 2z" opacity=".2"/>
</svg>
