<svg xmlns="http://www.w3.org/2000/svg" viewBox="0 0 18 18" fill="currentColor" height="18px" width="18px">
    <path d="M13.762-.018a3.115 3.115 0 0 0-.332.024.5.5 0 0 0-.284.14l-12 12-.09.09-.89 2.977C-.25 17.25.25 18.25 2.799 17.879l2.969-.94.086-.085 12-12a.5.5 0 0 0 .14-.284s.298-1.985-1.14-3.424c-1.08-1.078-2.466-1.18-3.092-1.164zm.277 1.002c.485.009 1.373.135 2.107.87.98.978.877 2.23.856 2.437L14.953 6.34c-.112-.667-.4-1.495-1.1-2.194-.698-.698-1.526-.987-2.193-1.1L13.71.999a2.93 2.93 0 0 1 .33-.014ZM10.824 3.98c.476-.008 1.526.078 2.322.875.858.857.89 2.01.872 2.421L6.244 15.05a2.683 2.683 0 0 0-.05-.176c-.223-.668-.671-1.307-1.215-1.852-.545-.544-1.184-.992-1.852-1.214a2.687 2.687 0 0 0-.176-.051l7.774-7.774c.03 0 .062-.003.1-.003zm-8.428 8.697c.119.002.255.027.415.08.457.152 1.005.517 1.46.973.456.455.82 1.003.973 1.46.143.429.09.685-.092.897l-2.332.738a1.564 1.564 0 0 0-.466-1.178 1.576 1.576 0 0 0-1.133-.468l.697-2.33a.683.683 0 0 1 .478-.172z"/>
    <path d="M13.5.75 11.5 3s1.667.666 2.25 1.25C14.333 4.833 15 6.5 15 6.5l2.25-2s-.25-2-1-2.75-2.75-1-2.75-1Z" opacity=".4"/>
    <path d="M11 3.25 2.5 11.5l1 1L12 4ZM14 5l-9 9 1 1.5L14.75 7Z" opacity=".2"/>
    <path d="M3.5 12.5 5 14l9-9-1.75-1.25Z" opacity=".1"/>
</svg>
