<svg xmlns="http://www.w3.org/2000/svg" viewBox="0 0 18 18" fill="currentColor" height="18px" width="18px">
    <path d="M2.5 2c-.277 0-.5.223-.5.5v4c0 .277.223.5.5.5h4c.277 0 .5-.223.5-.5v-4c0-.277-.223-.5-.5-.5Zm9 0c-.277 0-.5.223-.5.5v4c0 .277.223.5.5.5h4c.277 0 .5-.223.5-.5v-4c0-.277-.223-.5-.5-.5Zm0 9c-.277 0-.5.223-.5.5v4c0 .277.223.5.5.5h4c.277 0 .5-.223.5-.5v-4c0-.277-.223-.5-.5-.5Zm-9 1c-.277 0-.5.223-.5.5v3c0 .277.223.5.5.5h3c.277 0 .5-.223.5-.5v-3c0-.277-.223-.5-.5-.5Z" opacity=".2"/>
    <path d="M2.5 1C1.678 1 1 1.678 1 2.5v4C1 7.322 1.678 8 2.5 8H4v1h1V8h1v2h1V8h-.5C7.322 8 8 7.322 8 6.5V5h1V4h1v1H9v2h1v-.5c0 .822.678 1.5 1.5 1.5h.5v1h1V8h1v1h1v1h-1V9h-1v1h-1.5c-.822 0-1.5.678-1.5 1.5V11H9v1H8v-1H7v1.5c0-.822-.678-1.5-1.5-1.5H5v-1H4v1H2.5c-.822 0-1.5.678-1.5 1.5v3c0 .822.678 1.5 1.5 1.5h3c.822 0 1.5-.678 1.5-1.5V14h1v-1h2v1H8v2h1v-1h1v.5c0 .822.678 1.5 1.5 1.5h4c.822 0 1.5-.678 1.5-1.5v-4c0-.822-.678-1.5-1.5-1.5h.5V8h-.5c.822 0 1.5-.678 1.5-1.5v-4c0-.822-.678-1.5-1.5-1.5h-4c-.822 0-1.5.678-1.5 1.5V1H9v2H8v-.5C8 1.678 7.322 1 6.5 1ZM9 16v1h1v-1Zm-1 0H7v1h1Zm-4-6V9H2V8H1v3h1v-1ZM2.5 2h4c.286 0 .5.214.5.5v4c0 .286-.214.5-.5.5h-4a.488.488 0 0 1-.5-.5v-4c0-.286.214-.5.5-.5Zm9 0h4c.286 0 .5.214.5.5v4c0 .286-.214.5-.5.5h-4a.488.488 0 0 1-.5-.5v-4c0-.286.214-.5.5-.5Zm-8 1c-.277 0-.5.223-.5.5v2c0 .277.223.5.5.5h2c.277 0 .5-.223.5-.5v-2c0-.277-.223-.5-.5-.5Zm9 0c-.277 0-.5.223-.5.5v2c0 .277.223.5.5.5h2c.277 0 .5-.223.5-.5v-2c0-.277-.223-.5-.5-.5ZM8 8v2h2V8Zm3.5 3h4c.286 0 .5.214.5.5v4c0 .286-.214.5-.5.5h-4a.488.488 0 0 1-.5-.5v-4c0-.286.214-.5.5-.5Zm-9 1h3c.286 0 .5.214.5.5v3c0 .286-.214.5-.5.5h-3a.488.488 0 0 1-.5-.5v-3c0-.286.214-.5.5-.5Zm10 0c-.277 0-.5.223-.5.5v2c0 .277.223.5.5.5h2c.277 0 .5-.223.5-.5v-2c0-.277-.223-.5-.5-.5Zm-9 1c-.277 0-.5.223-.5.5v1c0 .277.223.5.5.5h1c.277 0 .5-.223.5-.5v-1c0-.277-.223-.5-.5-.5Z"/>
</svg>
