<svg xmlns="http://www.w3.org/2000/svg" viewBox="0 0 18 18" fill="currentColor" height="18px" width="18px">
    <path d="M5.5 15.022a2.5 2.5 0 0 1-2.499 2.5A2.5 2.5 0 0 1 .5 15.025a2.5 2.5 0 0 1 2.496-2.503A2.5 2.5 0 0 1 5.5 15.017" opacity=".4"/>
    <path d="M2.988 6.523C2.144 6.527 1.5 6.5.5 6.5v3c1 0 1.624.03 2.492.023A5.5 5.5 0 0 1 8.5 15.012v.011c-.006.862 0 1.477 0 2.477h3c0-1-.002-1.637 0-2.477v-.017a8.5 8.5 0 0 0-8.512-8.483Z" opacity=".2"/>
    <path d="M2.979.523C2.16.532 1.5.5.539.5a4.008 4.008 0 0 0-.039.518V3.5c1 0 1.646.036 2.482.023C9.332 3.513 14.487 8.651 14.5 15v.023c-.01.834 0 1.477 0 2.477h2.482c.101 0 .426-.02.518-.047 0-.953-.008-1.615 0-2.43v-.029C17.484 6.99 10.984.512 2.979.524Z" opacity=".1"/>
    <path d="M.54 0a.5.5 0 0 0-.483.373C.01.548.019.608.012.725A4.752 4.752 0 0 0 0 1.018V3.5a.5.5 0 0 0 .5.5c.985 0 1.632.036 2.482.023A10.994 10.994 0 0 1 14 15.002v.021c-.01.84 0 1.483 0 2.477a.5.5 0 0 0 .5.5h2.482c.083 0 .185-.006.301-.016.116-.009.19 0 .358-.05a.5.5 0 0 0 .359-.48c0-.957-.008-1.618 0-2.427v-.035C17.983 6.717 11.254.012 2.979.023a.5.5 0 0 0-.006 0C2.17.032 1.51 0 .539 0ZM1 1.004c.694.008 1.304.026 1.979.02h.005c7.733-.009 14 6.24 14.016 13.972v.024c-.006.667-.002 1.281 0 1.98h-2c-.002-.701-.008-1.312 0-1.97v-.032C14.987 8.379 9.602 3.013 2.982 3.023h-.007c-.653.01-1.268-.01-1.975-.02V1.005ZM.5 6a.5.5 0 0 0-.5.5v3a.5.5 0 0 0 .5.5c.988 0 1.612.03 2.492.023A4.994 4.994 0 0 1 8 15.013v.01c-.006.864 0 1.48 0 2.477a.5.5 0 0 0 .5.5h3a.5.5 0 0 0 .5-.5c0-1-.002-1.636 0-2.475v-.021c-.01-4.962-4.05-8.987-9.012-8.98h-.002C2.154 6.026 1.51 6 .5 6ZM1 7.004c.698.007 1.306.022 1.988.02h.002A7.994 7.994 0 0 1 11 15.007v.013c-.002.672 0 1.28 0 1.979H9c-.001-.695-.005-1.288 0-1.973v-.017a6.006 6.006 0 0 0-6.012-5.987c-.682.006-1.285-.011-1.988-.02v-2zm1.996 5.02a3.007 3.007 0 0 0-2.996 3 3.009 3.009 0 0 0 3.002 2.998c1.518 0 2.662-1.193 2.855-2.66v-.69l-.003-.003c-.2-1.462-1.343-2.649-2.858-2.647Zm0 1A1.993 1.993 0 0 1 5 15.02l.002.001-.002.002c0 1.11-.888 2-1.998 2-1.11 0-2-.888-2.002-1.998-.001-1.11.886-2 1.996-2.002z"/>
</svg>
