<?xml version="1.0" encoding="UTF-8" standalone="no"?>
<!-- Created with Inkscape (http://www.inkscape.org/) -->

<svg
   xmlns:dc="http://purl.org/dc/elements/1.1/"
   xmlns:cc="http://creativecommons.org/ns#"
   xmlns:rdf="http://www.w3.org/1999/02/22-rdf-syntax-ns#"
   xmlns:svg="http://www.w3.org/2000/svg"
   xmlns="http://www.w3.org/2000/svg"
   xmlns:sodipodi="http://sodipodi.sourceforge.net/DTD/sodipodi-0.dtd"
   xmlns:inkscape="http://www.inkscape.org/namespaces/inkscape"
   id="svg2"
   version="1.1"
   inkscape:version="0.91 r13725"
   width="64"
   height="64"
   viewBox="0 0 64 64"
   sodipodi:docname="paper.svg">
  <metadata
     id="metadata8">
    <rdf:RDF>
      <cc:Work
         rdf:about="">
        <dc:format>image/svg+xml</dc:format>
        <dc:type
           rdf:resource="http://purl.org/dc/dcmitype/StillImage" />
        <dc:title />
      </cc:Work>
    </rdf:RDF>
  </metadata>
  <defs
     id="defs6" />
  <sodipodi:namedview
     pagecolor="#434343"
     bordercolor="#666666"
     borderopacity="1"
     objecttolerance="10"
     gridtolerance="10"
     guidetolerance="10"
     inkscape:pageopacity="0"
     inkscape:pageshadow="2"
     inkscape:window-width="1920"
     inkscape:window-height="1017"
     id="namedview4"
     showgrid="false"
     showborder="true"
     inkscape:zoom="1"
     inkscape:cx="-228.15496"
     inkscape:cy="-10.23944"
     inkscape:window-x="0"
     inkscape:window-y="30"
     inkscape:window-maximized="1"
     inkscape:current-layer="svg2" />
  <path
     inkscape:connector-curvature="0"
     id="path3374"
     d="M 0.33375,0 C 0.32675,0.361006 0.49315,0.539276 1.3,0 L 0.33375,0 Z M 1.3575,0 C 1.3495,0.714071 0.78131,1.174988 0,1.5475 l 0,1.575 C 1.01985,3.268066 1.60193,3.816217 0.04,4.4325 0.0253,4.433396 0.0144,4.4376 0,4.4388 l 0,2.365 c 0.90427,-1.539999 -0.23136,1.092739 1.05125,0.805 0.77768,-2.384292 3.13256,-1.055423 1.3,0.67375 -0.41249,3.271456 2.56062,5.537366 5.13,3.2275 C 7.36389,10.257126 3.77072,8.79268 4.6575,7.08005 7.94464,5.682241 2.27867,3.731984 5.03125,3.3738 9.10895,3.31011 7.43811,7.777329 5.865,8.8888 7.52272,10.45765 8.2799,6.609478 9.86125,5.88755 8.65596,8.38621 15.89895,6.605963 12.5375,5.3513 12.92174,6.967241 11.26526,7.505272 11.125,5.24755 12.38693,2.170628 8.92077,1.781536 7.84125,0 L 5.6025,0 C 6.40791,0.389947 6.60272,2.019515 8.31875,2.105 12.75832,4.011529 6.64576,3.483362 5.42875,1.856251 2.96396,-1.952025 2.96774,3.431118 4.22,5.0875 5.45413,7.930676 0.77966,4.413722 2.0775,2.8875 1.50804,2.062094 1.9935,0.904983 2.72625,0 L 1.3575,0 Z m 8.98125,0 c 0.31691,0.571564 0.71488,1.166996 1.095,1.5575 C 13.4136,2.732434 12.40335,0.961198 11.64625,0 l -1.3075,0 z M 12.46,0 c 0.30748,0.793201 0.6664,1.591614 0.93625,2.42375 C 10.11612,4.868257 14.18798,3.356557 15.72,3.516251 15.46616,2.787182 14.28153,1.322269 13.72625,0 L 12.46,0 Z m 3.7075,0 c -0.12958,0.274008 -0.34829,0.559916 -0.69,0.86125 -0.37502,4.056122 3.9418,-3.314519 4.40875,0.26625 -1.56006,-1.308937 -1.98794,2.172569 -1.00125,2.29375 1.97859,-3.452628 -0.34847,2.43794 2.44375,1.25625 1.45128,-3.862283 0.52374,4.097607 2.27,1.33375 C 21.46606,3.392546 27.64629,3.07277 24.32,4.87125 24.01117,7.914182 27.23148,5.566568 28.18,4.316251 29.87274,6.363161 30.20871,3.106996 28.2337,2.9825 26.4725,2.745391 19.30677,3.137628 21.8575,0.37875 21.97735,0.232897 22.05532,0.121834 22.14625,0 L 16.1675,0 Z m 6.96,0 C 23.091,0.121509 23.0453,0.287439 23.01125,0.39 l -0.355,0.42 c 1.90182,0.936323 2.1643,0.295429 2.1225,-0.81 L 23.1275,0 Z M 26.375,0 C 26.3647,0.297861 26.3484,0.603622 26.3512,0.8875 26.59069,3.005628 27.33242,1.392718 27.54495,0 l -1.17,0 z m 3.24375,0 c 0.14308,1.666946 0.38783,3.322946 1.74125,4.4875 -1.58685,-3.599502 1.24363,-5.273583 4.33375,-2.101249 2.84776,2.222821 -1.30903,-0.498704 -0.1375,1.932499 -1.87382,3.105548 -1.11955,-1.137465 -2.5425,-1.89 -0.33499,0.612562 -0.002,4.722486 2.42875,5.295 0.46275,4.725738 1.9497,-4.428292 4.17125,-1.33375 -1.12232,1.234691 -3.0447,2.587177 -0.0187,1.25375 3.59644,-0.537966 -1.34281,-6.657092 2.77625,-3.988749 -0.50231,2.566738 1.484,1.373518 1.86125,3.12125 2.02687,-2.906395 1.35563,0.755746 -0.3925,1.358749 -0.86214,-1.015245 -1.33744,-0.792377 -2.59,0.8075 -4.51629,-0.760085 -3.46955,3.010731 -0.65,5.08 2.83907,1.027769 -1.20228,-2.818204 -0.9875,-3.996249 0.58704,0.177372 3.1574,-0.0193 4.43,-0.03125 -2.55041,1.673091 0.5624,3.496924 -0.41,5.447499 -1.31504,-0.179846 -6.87315,2.735107 -3.66875,-0.3775 -1.81625,-0.29805 -1.36807,-2.563843 -3.1475,-2.529999 1.13702,-3.728956 -3.39907,-1.501168 -4.4525,-2.94375 2.3118,-2.429635 0.16191,-1.668673 -1.7875,-1.73375 1.91174,-1.58002 -0.46623,-2.17615 -2.715,-1.94125 1.90698,3.926766 -4.23123,1.925619 -6.66875,1.4825 -0.76074,-0.86684 -3.80703,-6.085052 -4.03875,-2.427501 2.96902,2.902686 -1.03242,5.83859 -1.65625,9.276251 1.85767,-0.502124 5.12651,-0.535936 7.4025,-0.76125 1.15454,-3.060299 6.1829,-6.690638 8.79375,-3.182502 -0.85119,0.796992 -0.50878,1.180858 1.00125,1.885001 1.27795,0.697773 7.11438,3.196025 4.21375,3.81375 -1.97478,-2.646918 -1.43039,2.636674 -3.08,0.5575 -3.01966,-4.339045 -1.53287,7.069183 -5.11625,4.63125 0.43308,-3.588344 -2.52511,-0.637106 -0.295,0.8775 2.49107,1.690822 -2.01626,1.577335 0.915,2.778751 -1.16868,0.09479 -0.26413,2.281863 -1.71875,2.386248 -2.02118,-1.776756 -3.03967,-1.059932 -5.38,-0.616249 -4.64461,-0.0051 -1.47787,-3.905893 1.48125,-2.765 -1.11607,1.105069 -1.51734,1.883998 0.3075,0.67625 0.0161,-1.973637 -0.62431,-4.043541 2.2825,-3.81375 -1.67945,-3.983671 -4.41483,1.337089 -5.8075,2.109999 0.3257,-3.575454 -2.97381,0.923294 -2.21625,2.67875 -2.563,-2.018824 -4.95924,-4.726815 -7.47625,-5.616249 -3.92212,0.834383 2.75472,2.581572 3.62875,3.8 2.85039,2.132063 -0.74237,1.034832 -1.6,2.4 -2.78418,2.257984 0.40294,-1.302298 -0.18875,-2.7 -2.01912,-0.249548 -2.62835,-0.117047 -3.5425,-2.025 -2.38373,-2.541398 -2.48363,2.210455 -3.8575,1.11375 1.66598,-4.341869 -3.03405,1.259141 -0.0113,1.21125 1.16435,0.546262 2.47289,4.271312 2.73375,0.73375 -2.2316,-1.07357 -0.17222,-3.078957 0.58375,-0.30375 0.79028,3.16557 1.29626,-0.261016 3.1175,-0.0013 -3.53677,3.047086 4.80632,6.50396 3.955,3.157499 -3.57698,1.19192 -0.56934,-1.339911 1.27625,-0.683749 4.12049,1.870488 8.91992,1.76646 13.32125,1.134999 2.89163,-1.113639 -2.28763,-1.249355 0.74625,-2.8225 2.08774,1.062233 5.94202,-1.971218 2.18625,-2.34875 -0.61939,2.087872 -0.65654,-0.508858 -1.8375,0.263751 -2.20929,3.354278 -0.68632,-1.149795 0.12625,-2.23 -0.0593,1.396447 6.66513,2.028552 4.01625,3.13125 0.62029,2.128023 3.72476,-0.02954 5.1875,-0.53125 0.11826,5.264006 7.11333,0.835085 6.29375,4.15125 -2.23456,1.181253 -5.58254,0.829901 -6.2075,-1.2875 -3.5432,-2.499151 -0.31978,2.515424 -0.8725,4.325 -1.06571,2.151248 -2.26709,5.010365 -4.79625,6.99 -2.65119,0.278654 0.77023,-1.501015 1.12875,-2.372501 1.5383,-0.809012 0.0227,-5.651116 0.24,-3.06875 -1.20609,1.173423 -0.83405,5.142067 -2.8175,2.945001 0.63288,-5.225197 -9.11065,3.070618 -3.50375,0.71875 3.6708,-1.856597 2.19623,2.459372 3.77375,3.7125 1.70165,-1.793399 6.94412,-2.390553 6.7725,0.512499 -0.59537,0.702765 1.25569,2.427 0.69375,4.19125 1.99249,-0.205844 2.25461,0.230432 0.18625,1.335001 -1.77726,2.188023 -2.03268,-4.397808 -2.87375,-2.35 -2.17599,3.930919 3.76265,4.765917 5.79875,1.94125 3.38609,-1.858269 -0.63891,-2.977187 -0.745,-5.406251 1.34852,0.29798 3.36069,-4.51112 3.9,-1.438749 1.9758,1.626679 2.00647,3.06959 -0.71625,3.48 2.90434,1.738202 -2.96522,3.345954 0.83875,4.865 -0.71048,0.003 -3.83074,-2.086722 -3.5225,1.03 -3.93294,1.823728 -7.53832,-1.979334 -11.41375,-0.27125 -0.0693,-1.272333 -2.16899,-2.388147 -1.39,0.2 2.96502,1.637593 7.16914,1.514551 10.385,2.23875 0.45861,-0.677054 0.79873,1.903788 0.99,2.553749 -2.83547,-3.007006 -1.21867,1.289376 -2.38125,3.192501 2.4583,1.699834 0.57029,-2.531931 2.335,-1.950001 -0.26916,2.753483 1.48205,4.023883 4.2675,3.537503 4.7284,-0.308231 -1.17731,-0.824813 -1.9325,-1.756251 1.48849,-2.762845 -1.38645,-2.09924 -1.3325,-4.636251 0.56578,-0.749417 3.03993,-5.735429 3.5425,-2.265 1.60733,-2.428015 1.49599,1.125107 3.17625,1.66875 3.99329,-0.196598 1.02792,2.964088 -1.15125,3.01875 2.28819,1.247081 -1.90304,2.630674 -1.0775,-0.5725 2.31939,-3.595219 -4.19687,-4.106231 -2.45625,-0.5725 2.67376,0.773269 -0.81222,3.440482 0.83,2.75 3.29001,-0.136851 5.54334,2.913264 6.48625,6.0225 -1.13359,0.874188 -1.34861,2.072716 -1.28625,3.38 l 1.45625,0 c 0.25436,-1.197824 0.94424,-2.065965 2.405,-1.693748 -1.27658,0.78226 -1.31759,1.555591 -0.78,1.693748 l 0.38875,0 c 0.35903,-0.06993 0.82029,-0.311488 1.3175,-0.807501 0.003,0.274816 0.0293,0.542982 0.0675,0.807501 l 3.7475,0 C 59.74112,62.971834 56.52395,61.668135 55.5,61.497447 c -3.38188,-1.383609 3.16235,-4.4888 -1.34375,-3.482496 0.46032,-1.857875 -2.84269,-0.311386 -3.15875,-2.930001 -0.10749,-3.878732 2.25937,1.88522 3.5475,0.0025 2.81922,-2.31412 6.47868,1.264081 7.77375,4.273745 -1.39488,-1.37303 -5.27669,0.115104 -4.51001,-2.361248 1.1239,-3.102671 -1.50676,0.12793 -1.775,-1.347501 -1.4822,-1.478702 1.39827,3.725792 1.73125,4.5925 1.44791,3.035424 -0.93194,-1.763226 0.89001,0.05126 -0.81065,3.040371 3.45787,2.07575 5.345,2.092499 l 0,-4.472499 C 63.01719,57.523034 62.01523,57.052769 61.48499,55.998708 62.73928,56.037428 63.50101,55.630446 64,54.977459 l 0,-1.38625 c -0.26613,0.724224 -2.72771,-3.149581 -4.30875,-0.757501 1.39009,2.101415 0.97023,2.165093 -0.93625,0.7 -3.6454,-3.462977 6.62407,-1.311079 2.2675,-4.117499 0.4943,-1.618691 1.71539,-2.519904 2.9775,-3.233751 l 0,-1.013749 c -0.0513,0.04154 -0.0804,0.0718 -0.13501,0.114999 -2.00843,4.434114 -5.05797,-1.742272 -6.9075,1.38 1.29623,-0.333048 4.48863,1.049959 1.2675,1.471251 -3.61262,-1.090616 0.44708,1.937775 -1.89125,3.1325 1.13328,2.578881 -1.19337,1.286011 -2.12874,3.3225 -1.5187,-2.339671 1.72244,-6.539008 1.66625,-9.636251 -1.4973,-3.20197 2.36499,-1.973171 2.48624,-4.466249 -2.75749,3.657277 -0.6795,-2.111707 1.20626,-2.59875 4.04412,-0.552644 -1.35687,-2.739986 -3.2725,-1.09 -2.9325,-0.834973 3.11587,-1.403874 3.77125,-2.6575 2.43221,3.430062 0.86684,-1.020406 2.29499,-2.575 0.64733,0.4146 1.24254,0.590914 1.64251,0.526249 l 0,-1.9 c -0.12811,-0.203786 -0.27437,-0.419082 -0.45876,-0.656249 0.16239,0.06425 0.315,0.09422 0.45876,0.09875 l 0,-3.172501 c -0.54141,-0.921171 -1.35653,-1.88465 -1.04626,-0.06375 -1.6883,1.558124 -1.13899,-2.135632 0.93251,-1.4825 0.0323,0.0038 0.0776,0.0016 0.11375,0.0038 l 0,-1.25375 c -1.8265,0.352128 -4.35602,2.728762 -3.26125,-0.2125 3.25058,-1.768333 -1.01404,-1.325336 -1.16126,-3.12375 2.57267,0.528165 -1.25472,-1.825448 0.56626,-2.2425 1.43372,0.985248 2.49715,2.131577 3.85625,2.88875 l 0,-2.80875 c -1.69795,0.282488 -4.62727,-3.886176 -1.61876,-2.5075 0.6922,0.60774 1.23193,0.81913 1.61876,0.78875 l 0,-2.5525 c -0.15072,-0.166681 -0.31992,-0.32698 -0.52125,-0.46625 -2.19504,-2.490507 0.39728,1.513689 -1.37001,1.395 -1.88306,-3.734778 -1.28479,1.620776 -2.64,2.815 -0.34133,2.44508 -3.17339,0.499017 -3.82624,2.92375 1.79327,2.688685 1.04166,-2.701546 2.79375,-0.0087 -0.20091,3.486747 6.37943,8.22237 1.71249,10.39625 -0.73125,0.194251 0.43275,2.796922 -1.92249,3.33125 -2.0292,-0.752724 -3.01872,-2.908498 -0.26,-2.5325 2.81885,-3.417763 -2.99892,-1.150811 -3.12125,0.475 1.27977,3.629086 -2.29579,2.041523 -4.23875,2.42875 0.0897,1.186439 3.09548,1.464397 4.16625,2.91375 1.61187,-0.2982 5.67558,0.203184 2.12625,1.4775 -2.42437,-1.105218 -0.0241,2.309248 -1.75125,1.64375 -2.84984,-5.5e-4 -1.98393,-3.334446 -3.4575,-3.89125 -3.74317,0.699483 -0.21697,1.437727 -0.11875,3.4775 -1.02476,0.189173 -1.81393,3.346623 0.4075,2.20375 1.78365,-3.830396 2.31794,0.442601 2.125,2.41125 -1.99336,-1.277389 -5.68133,-1.153732 -3.1375,1.83125 -1.08974,4.187515 4.17258,-2.19528 3.22375,0.74625 0.21352,3.676513 -3.46674,1.893575 -4.59375,0.125 -2.41418,-2.594252 0.0376,-3.853111 0.05,-6.32625 0.15666,-2.023282 -1.20386,-6.08145 -4.0975,-5.12625 0.23062,2.749888 -3.38902,2.197952 -3.95625,-0.31375 1.11611,-4.461892 -4.54328,2.423418 -0.92625,0.0075 -2.24492,4.143642 -2.8522,-3.194016 0.805,-2.8525 3.32025,-1.232739 0.87379,3.538789 2.8425,3.43375 -0.53289,-2.158881 0.95547,-0.38661 1.845,-1.84 -1.277,0.179293 -3.28567,-2.881774 -0.66125,-2.355 4.33381,0.743445 -0.21427,-3.08527 2.315,-4.155 0.78742,1.51362 0.85206,2.384953 2.92375,0.3675 1.32445,-3.972733 1.79657,2.729878 -0.61625,1.9625 -2.44348,1.466995 0.1301,0.296042 0.40875,1.6575 2.06971,-1.161697 2.52107,3.169527 3.44375,0.78875 -2.07794,-3.154225 1.66466,-5.295211 1.0975,-8.33625 -1.04777,3.620764 -4.27926,0.115431 -6.40375,2.07625 -0.19766,-0.877286 -2.06381,-3.492447 -1.94375,-5.5225 2.95527,0.384388 0.15873,-5.633603 -1.975,-4.6375 3.70432,2.639201 -1.90322,5.818353 -0.25,7.6975 1.0549,-3.160333 2.86694,-0.01147 1.005,1.06625 -1.49898,-0.317477 -7.77236,-3.941717 -4.02,-4.0975 2.40167,4.130734 2.3004,-2.315417 -0.6525,-1.94 -1.85295,2.729833 -4.5457,-3.401578 -3.9075,0.88875 3.0769,4.192079 -4.59698,0.596167 -4.41125,-1.615 2.50549,-2.689721 0.67878,1.705336 2.6725,1.1575 0.52752,-4.741713 5.47229,-1.520621 8.12,-0.37875 2.71618,2.817956 0.6923,-1.661922 -0.99625,-2.12875 2.48813,-3.850879 7.73899,0.636482 6.7525,4.30875 -2.32412,2.410218 0.3706,1.417818 1.315,-0.0325 1.51021,-2.635818 2.06939,1.583041 2.1325,2.82 -2.11703,1.401974 -1.11053,-2.352246 -1.95,-1.75625 -2.43328,1.842764 1.80695,2.946526 3.2225,3.70875 L 52.7975,19.2875 c 0.74966,1.58496 1.51661,3.249155 2.255,4.785 0.0779,-2.294403 0.30418,-6.384833 -3.32625,-4.52125 -2.85321,1.744562 -1.61788,-0.638874 -1.10125,-2.1475 -1.84033,-0.821767 -2.44705,-3.59592 -4.045,-3.58625 -2.52962,0.548331 -3.77289,-2.610424 -0.84125,-1.725 -1.08677,-0.731502 -0.31273,-4.162291 2.6025,-3.83125 -1.11209,-1.990774 2.23895,-3.188342 2.38625,-0.134999 3.52743,2.731497 -2.39327,0.554031 -3.82,1.157499 -2.63496,2.30413 0.016,0.802007 1.21125,2.11375 1.87694,1.550168 -0.25164,2.606167 0.48625,3.58 2.51327,2.010235 1.59726,-1.901661 3.02125,-1.57 -0.0854,1.640035 0.58147,2.818332 0.825,4.00625 2.70399,1.46481 0.30394,-1.560239 0.43875,-2.88625 -0.14454,-3.392738 1.28409,2.758466 1.665,0.0525 0.0949,3.159161 5.47445,4.479911 4.08375,0.205 -2.22455,-1.651596 1.33597,-1.467612 -0.2025,-3.57875 1.15706,0.94483 3.68191,0.449394 5.56375,1.16875 l 0,-0.996251 C 62.63134,10.86164 61.09279,10.215987 61.08,8.911249 61.83091,9.357836 62.9652,9.539257 64,9.93625 L 64,8.188749 C 63.24239,8.240179 62.66162,8.135849 63.16375,7.372499 63.03308,6.072892 63.38535,5.641815 64,5.58875 L 64,4.3475 C 62.15264,4.896126 58.93178,3.912349 60.53875,7.219999 58.72709,6.414099 54.94762,6.322453 52.47625,4.5825 51.28567,5.630213 49.81099,4.418285 49.29375,1.91 50.969,0.856144 49.65716,-0.519339 47.85,1.26625 47.8759,0.887962 47.74513,0.411349 47.5175,0 l -1.53875,0 c 1.36935,0.682359 1.94519,4.463564 -0.27,4.3775 C 45.3065,2.010893 43.70548,1.556317 41.395,1.7075 41.49975,0.986044 41.8702,0.455657 42.325,0 L 41.3875,0 C 41.3329,0.06457 41.2921,0.129233 41.22375,0.193749 38.73224,1.094167 40.93287,6.652267 38.03375,4.675 34.82492,3.073265 40.15665,1.428944 37.39125,0.81 36.35595,1.449246 35.50592,0.84957 34.94625,0 l -5.3275,0 z m 16.12,12.0925 c 0.1233,0.08299 0.26401,0.139926 0.435,0.14375 -0.15827,-0.06111 -0.29589,-0.101735 -0.435,-0.14375 z M 39.03625,0 c 0.0647,0.128657 0.12797,0.262371 0.18125,0.4325 C 39.49279,0.274236 39.68908,0.132823 39.85125,0 l -0.815,0 z m 6.0025,0 c -0.0197,0.02531 -0.039,0.0434 -0.0587,0.07 0.0443,-0.02797 0.0887,-0.04881 0.1325,-0.07 l -0.0738,0 z M 50.085,0 c 0.96693,0.788264 1.7461,1.684192 1.34875,2.075001 C 48.56307,4.373021 53.83759,1.851134 55.0175,2.93 54.91688,4.817764 57.40536,6.543087 58.525,4.1775 61.75276,3.972761 61.28703,1.709015 59.775,0 l -3.92375,0 c 0.47411,1.342206 1.19905,2.499458 2.5825,2.84 C 57.71377,5.609855 54.69132,2.112645 54.77625,0 L 50.085,0 Z m 10.78375,0 c -0.009,0.05372 -0.0191,0.0985 -0.0275,0.15375 C 60.89455,0.09654 60.96544,0.046532 61.04375,0 l -0.175,0 z M 62.7425,0 C 62.55479,0.476341 63.39317,2.120214 64,3.26125 l 0,-2.3125 C 63.9557,0.798953 63.9439,0.63219 63.9713,0.44375 63.6919,0.225845 63.48104,0.09258 63.30252,0 L 62.74251,0 Z M 48.18,2.17 C 48.31721,2.13953 48.59187,2.534677 49.06625,3.6875 48.94704,7.819271 47.68997,2.278814 48.18,2.17 Z m -11.5,2.696251 c -0.92848,4.142516 -2.19257,0.581834 0,0 z M 14.93625,5.5675 c -0.83122,1.125649 2.95696,4.439973 -1.31875,3.145 0.005,0.220971 0.4116,1.915626 -1.30875,2.62875 3.75174,2.014495 -3.14929,1.95421 -3.475,4.73 2.12895,2.42125 0.52138,-0.185254 1.8825,-0.86625 2.37522,2.575575 -3.17919,3.704274 -2.245,0.3675 0.38746,-4.375679 -5.28942,3.624894 -1.49,0.63625 0.25268,4.121371 4.33329,2.181069 6.67375,3.90375 0.56324,0.800079 1.84862,1.782352 2.45625,0.42875 2.27199,-2.904649 -1.16436,-2.904627 -1.875,-4.91625 -0.44419,-4.056336 4.6935,-6.56427 0.7,-10.0575 z M 53.16,6.246251 C 55.21547,6.321901 58.53308,8.224662 58.43375,10.24 57.2767,11.66312 53.19979,9.551196 52.9075,8.04 55.78755,8.959571 53.0005,6.555651 51.57875,7.4375 51.55175,6.555116 52.2257,6.211864 53.16,6.246251 Z M 3.52125,7.7075 c 0.17005,0.03166 0.34941,0.253024 0.5125,0.78 -1.80193,2.502592 -1.24939,-0.917209 -0.5125,-0.78 z M 55.3675,8.056251 c -0.19229,-0.01087 -0.0778,0.312934 0.69,1.262499 3.22797,1.813589 -0.11312,-1.229883 -0.69,-1.262499 z M 0,8.1075 0,9.715 C 0.58994,10.531747 0.85796,11.629903 0.315,12.56 0.18904,12.719968 0.08657,12.871057 0,13.015 l 0,1.5975 c 0.40005,0.12902 0.99714,-0.333814 0.9925,-1.57 0.28588,1.314099 3.9344,3.797933 4.64125,1.48375 C 3.69753,13.387684 0.95224,11.072967 0,8.1075 Z m 10.5575,0.27 c -1.24876,-0.05428 -2.75219,0.728832 -2.32375,2.885 -0.0645,0.840505 0.27509,2.115394 1.3675,2.025 5.04508,0.637794 -2.5608,-6.310947 1.75375,-2.77375 1.44636,-1.191015 0.45126,-2.081973 -0.7975,-2.136249 z M 20.885,8.595 c 0.92371,-0.02508 1.58816,0.549689 1.05,2.1 -0.0511,2.922325 -1.48526,2.329387 -3.46125,1.29625 C 17.08582,10.346634 19.34548,8.636803 20.885,8.595 Z M 20.51,9.58375 c -0.3149,0.02662 -1.35819,0.798176 -2.07625,1.8025 -0.0307,0.789063 0.98569,-0.210311 0.99625,-0.2725 1.12986,-1.121651 1.32492,-1.550701 1.08,-1.53 z m 38.97625,0.015 c 0.14487,0.01892 0.36949,0.114837 0.695,0.316251 l 0.335,0.399999 c 0.8266,2.766827 -2.04406,-0.848674 -1.03,-0.71625 z m -30.7525,0.64375 c -0.72396,0.01506 -2.01358,0.44522 -2.7025,1.06 -2.70188,2.251191 0.204,1.236187 1.79,1.8825 3.03669,1.334942 1.51254,-0.540736 0.21875,-1.51 1.57521,-1.047294 1.41771,-1.447561 0.69375,-1.4325 z M 52.575,10.34 c 0.39832,0.02675 0.75164,0.15525 0.9775,0.425 0.7186,3.270454 -1.14397,-0.242442 -1.50625,0.7225 0.004,0.340602 -0.13617,0.724506 -0.45875,0.88625 C 48.28016,12.00783 50.84894,10.2241 52.575,10.34 Z m 3.945,1.331249 c 0.40769,0.05998 0.79605,0.399838 1.035,1.1475 -2.82169,-0.544622 0.0591,0.804999 0.0787,2.62875 -0.0125,1.806617 -1.41037,0.756719 -1.72499,-0.201249 -2.00156,-1.414113 -0.61181,-3.754941 0.61124,-3.575001 z m -24.7425,0.83375 c -0.15403,-0.0032 -0.31138,0.01436 -0.47125,0.05625 -1.86581,2.260455 -3.8369,2.419137 -6.58875,2.89 -1.57656,0.203073 -5.08862,6.185046 -5.285,2.9575 -1.82465,-2.782816 -2.50247,1.467694 10e-4,1.9025 0.49261,0.06179 3.18291,1.910169 1.86125,0.153749 1.69449,-0.819196 1.7698,-4.311737 3.5375,-3.2425 -0.10987,2.614758 2.39065,1.043624 3.4575,-0.47875 1.91023,3.128434 2.38798,-3.484789 4.94,-2.424999 2.40443,2.947227 0.8579,-1.765287 -1.4525,-1.813751 z m -14.045,1.3975 c -0.21531,0.04719 -0.37896,0.427153 -0.38875,1.38 2.58404,2.535777 1.1577,-1.548519 0.38875,-1.38 z m -5.16375,0.623751 c 0.36353,-0.08847 0.74356,0.736474 0.75875,2.161249 1.22031,3.515691 -1.74343,1.991593 -1.39875,-0.14875 0.0845,-1.322729 0.35726,-1.943691 0.64,-2.012499 z m 8.99625,0.567499 c -0.57753,-0.04926 -1.75044,0.415545 -2.13125,1.19375 -0.44005,1.350947 2.64564,1.361803 1.74625,-0.05125 0.92297,-0.754512 0.83419,-1.104188 0.385,-1.1425 z m 4.53375,0.675 c 0.34837,-0.04825 0.7582,0.156753 1.135,0.8525 -2.66615,1.715551 -2.18012,-0.707748 -1.135,-0.8525 z M 3.455,16.212499 c -0.20135,-0.01757 -0.38998,0.02381 -0.55875,0.14 -1.8433,2.591817 1.3213,1.845744 2.26625,3.03625 3.31833,2.692374 0.23893,-3.006404 -1.7075,-3.17625 z m -3.31875,0.10125 c -0.0455,0.0037 -0.0907,0.01752 -0.13625,0.025 L 0,17.1875 c 0.0771,-0.04416 0.16028,-0.09795 0.2325,-0.133751 2.25142,0.343429 1.11774,-0.839131 -0.0962,-0.74 z m 0.2975,1.77375 C 0.2876,18.232633 0.14391,18.356422 0,18.47125 l 0,2.4175 C 0.49026,20.93493 0.93626,20.98494 1.30125,21.03 1.55545,22.42926 0.93716,22.828729 0,22.87375 l 0,1.9325 c 0.60103,-0.05827 1.21247,0.09306 1.6625,0.63375 0.57445,2.130957 2.80554,1.898995 3.98375,3.2475 0.81694,0.302032 1.8316,-1.997659 1.88875,1.09125 2.317,-1.067407 1.19726,1.674577 3.24125,1.3975 -1.3138,-3.467449 2.65549,0.276601 1.06375,1.35125 -0.8257,3.528784 1.93777,-0.105085 2.70625,2.2425 0.48972,0.75018 1.25218,1.294959 2.09375,1.5825 2.72213,0.907405 3.0184,-1.130953 0.39375,-1.54375 C 13.01045,34.298696 18.39063,32.358438 16.59,31.225 14.31662,33.336064 13.65186,31.770468 12.4825,29.61875 9.85273,26.292361 5.06522,28.245924 2.73125,24.67125 -1.99846,24.500005 3.98484,21.622614 4.52875,19.815 2.25143,20.509829 1.68134,19.100439 0.43375,18.0875 Z m 15.0875,0.02 c 0.17005,0.03166 0.34941,0.253024 0.5125,0.78 -1.80193,2.502592 -1.24939,-0.917209 -0.5125,-0.78 z M 17.935,21.055 c -0.55315,-0.0035 -1.5406,0.463605 -1.90125,1.504999 l 0.3525,0.06125 0.8475,-0.24375 c 1.37326,-0.844042 1.2544,-1.319048 0.70125,-1.3225 z m 39.64,1.128749 c -3.09142,1.666814 1.2003,7.495731 -3.50875,7.051251 -0.34308,0.638115 0.75034,0.623096 1.06375,0.61125 2.10493,-1.623716 4.39993,0.260221 6.38375,-0.83375 0.0359,-2.857953 -0.85559,1.204751 -1.93,-0.861251 C 58.97209,26.195734 57.60956,24.122525 57.575,22.18375 Z M 34.96,25.31625 c -0.27934,0.0036 -0.55509,0.05705 -0.8225,0.17 -4.08662,1.224425 0.24143,1.101684 1.52375,3.03 0.71511,0.725884 1.41183,1.490615 2.265,2.06 2.68781,-0.669263 -0.26597,-5.295254 -2.96625,-5.26 z M 1.17625,26.84 C 0.96017,26.82094 0.66655,26.8649 0.28125,26.99 0.15732,27.097325 0.09472,27.144705 0,27.22375 l 0,2.4 C 1.26881,28.797988 2.32376,26.941228 1.17625,26.84 Z m 32.51125,0.80875 c -0.4338,-0.0417 -0.98411,0.311733 -1.67375,1.285 -0.006,2.178193 -1.24821,2.319478 -2.12875,0.4175 -2.52543,1.805343 4.11641,1.599622 4.54875,2.79 0.8094,3.286729 1.13357,-4.311794 -0.74625,-4.4925 z M 36.895,28.045 c 0.41012,-0.01523 0.98227,0.210735 1.53875,0.92875 -2.55894,0.305346 -2.441,-0.895241 -1.53875,-0.92875 z m -20.01875,0.5125 c -0.65634,-0.05432 -1.35071,0.240745 -1.99625,1.17 -1.29053,3.070046 0.67371,0.908952 2.08875,0.12625 4.38097,0.978282 -2.98518,4.064197 1.17125,4.69 0.95071,0.391071 1.89471,0.889359 2.925,1.025 2.18428,-1.828234 -3.22451,-1.193155 -2.04625,-2.05125 1.98531,-2.888169 4.29479,0.699471 6.0125,-2.245 2.11161,2.095812 0.44832,-0.264843 1.1775,-0.8625 1.87112,2.806198 2.65607,-1.377602 0.26125,-1.10375 -2.14989,3.078213 -6.02843,-3.303494 -6.72,1.66125 -0.16713,-0.479157 -1.42979,-2.290508 -2.87375,-2.41 z m 28.7725,0.0875 c 0.54586,0.04074 0.89718,0.640949 0.78,1.83625 1.48703,1.695219 -3.59078,0.900052 -2.7275,-0.31625 0.66095,-1.043057 1.40164,-1.560735 1.9475,-1.52 z m -42.735,0.22625 c -0.87174,-0.05823 1.57793,2.460647 0.715,3.6325 C 2.47171,36.203314 7.50781,30.324351 4.13,29.3725 3.49353,29.036344 3.11492,28.884689 2.91375,28.87125 Z M 41.3375,29.23 c 0.18103,-0.01331 0.45202,0.317576 0.83,1.2575 -0.96625,3.228611 -1.47655,-1.209968 -0.83,-1.2575 z M 0,30.86875 0,32.6775 c 0.38296,0.419409 0.78609,0.941144 1.385,0.94 C 3.51594,32.109519 1.349,30.913219 0,30.86875 Z m 7.675,0.52 C 6.85816,31.277834 6.1196,32.861596 6.03375,34.0875 5.74336,36.550263 4.9922,34.510636 3.52125,34.56375 1.8845,34.084765 0.86506,34.496941 0,35.2 l 0,3.35375 c 2.30024,-0.08863 5.97872,0.502666 2.8425,-1.4375 -3.67423,0.598445 -0.76252,-2.6453 1.4525,-1.18625 -0.34717,2.493441 0.67451,-0.225533 2.36125,0.33375 4.00775,2.427525 -0.79219,-2.433145 2.1275,-3.48 -0.3498,-0.943774 -0.73746,-1.344583 -1.10875,-1.395 z m 17.06125,1.17375 c -1.13468,-0.05361 -0.36212,1.977026 1.15875,1.95125 -1.11938,3.006918 1.12564,1.957804 2.22375,3.9625 1.7715,-1.561798 3.38964,3.535012 1.00625,2.64625 -3.99222,-1.693287 -0.74076,2.023645 -1.7575,3.8775 -5.48811,-1.492799 -0.78054,3.531389 1.96375,3.96875 -3.12357,2.119485 -5.28167,-3.293311 -8.35125,-3.92125 -1.57868,-0.0861 -5.35726,1.556866 -4.23125,-1.96875 -1.91034,10e-4 -0.82309,4.882104 -2.0175,1.18 1.3324,-2.469593 -1.10438,-1.061572 -1.6875,-2.33625 -0.99034,-2.044722 -1.49841,-9.571133 -4.395,-7.67875 1.24261,0.992471 2.017,3.38799 -0.5975,4.04 -2.06398,-2.607414 -3.34259,3.439881 -1.1025,0.0038 C 7.05388,40.439233 2.71391,40.277235 0,40.045 l 0,0.945 c 0.18644,0.007 0.36951,0.0084 0.54625,0.0013 -1.06143,4.293775 4.50638,-2.517836 2.9375,1.2175 C 3.33476,45.27129 1.29746,43.594673 0,42.74625 L 0,44.685 c 2.39206,-0.07113 6.06696,-1.50405 4.1,1.30375 -4.94004,1.141279 4.1628,3.229594 1.55875,-0.84 -2.6335,-2.117842 0.28154,-5.781503 2.2375,-2.8675 0.51249,4.476671 -1.11693,-1.826727 -2.86375,0.175 5.34884,2.748499 -2.2931,9.568942 -3.615,3.8575 -2.0529,1.8537 4.15182,5.171595 -0.11875,4.4 C 0.69617,51.167384 0.28535,51.363037 0,51.39 l 0,1.8325 c 0.21946,-0.151189 0.39791,-0.314618 0.50375,-0.4925 1.4719,-1.528895 6.09457,-0.796996 8.04,-2.345 3.5347,4.279255 1.45523,-6.620614 4.005,-2.0975 1.16015,-1.284343 -3.89512,-3.60144 -2.325,-0.16875 -3.46282,0.704752 -1.16051,-5.805249 1.7025,-5.7525 -0.81545,2.183934 0.26547,3.13499 2.30125,3.52 3.64367,1.275504 4.12198,6.871911 8.66625,5.8175 -0.577,0.507902 -1.01534,6.051566 0.575,3.725 2.46559,-3.750339 2.49603,1.885414 5.55,0.988748 0.21744,-1.310127 2.57195,-3.610856 3.44625,-1.721248 -3.29493,1.383564 2.24507,3.677849 -0.985,3.432499 1.8142,1.157549 0.2965,3.635462 -0.24625,5.628749 1.05547,0.924182 2.2207,-2.768224 3.68375,-1.829997 1.74784,-2.212352 -1.51008,-1.251968 -0.95125,-2.128748 1.35969,0.05171 4.21717,-2.984711 4.3525,-0.595002 2.49178,1.768781 1.33073,-2.033645 2.63625,-0.522502 2.88168,2.087859 2.00291,-2.690778 -0.67875,-1.7 -3.83003,1.542726 -2.21433,-3.126074 -4.8425,-3.388749 -4.41436,0.950518 -1.01054,-3.52799 1.13625,-1.7275 2.0703,3.756683 5.23837,-2.720702 0.98875,-2.01625 -3.88484,0.581494 -7.22464,-1.882626 -10.67875,-2.88625 0.28561,-0.17147 5.22129,-1.08182 2.09,-1.15125 -2.05424,-1.473902 1.03423,-1.324957 1.46375,-2.085 -1.29192,-0.252795 -2.41486,-1.829635 0.2475,-1.135 2.86675,-0.784053 2.57588,3.009611 5.065,2.3825 0.25523,-1.76023 4.94363,-4.546322 2.64125,-6.08625 -0.36165,1.689538 -2.21628,0.733617 -3.96125,1.27125 -2.16128,2.782503 -5.82713,-2.114875 -2.455,-1.95 0.27873,-2.478498 -1.40805,-2.193048 -2.3375,-1.32125 -2.60815,2.61542 -0.97206,-3.545913 -3.7925,-3.90375 -0.47918,-0.285291 -0.84315,-0.408878 -1.105,-0.42125 z m 23.9825,0.2525 c -0.23107,0.01811 -0.78809,0.552629 -1.135,1.46125 -0.4859,1.992483 3.31105,0.367424 0.82875,-0.5025 0.46748,-0.675235 0.48597,-0.972839 0.30625,-0.95875 z M 64,33.2625 c -0.49395,0.0043 -0.98874,0.02185 -1.33875,0.02375 -0.23591,2.664612 -2.04136,4.9404 -3.06,7.14875 1.16203,2.266056 4.07634,-0.518243 2.43375,-1.3175 -2.52395,3.332593 -0.12692,-3.007291 1.445,0.15125 -0.12774,1.676202 0.11035,1.876003 0.52,1.4225 l 0,-4.0275 C 63.20488,35.935341 62.6013,34.610371 62.8075,33.97875 62.93873,34.057 63.44562,34.324746 64,34.645 l 0,-1.3825 z M 23.7725,34.925 c -0.25333,-0.0556 -0.56055,0.15867 -0.85625,0.89625 1.89974,1.861452 1.61625,-0.729435 0.85625,-0.89625 z m -2.55125,1.62625 c -1.04191,2.255828 -1.98585,1.758556 -3.9425,0.81625 -3.38202,-1.767291 -5.62708,1.742113 -2.68375,4.01875 0.84007,0.582812 1.51644,-0.115007 2.05375,-0.7075 2.51103,0.604744 7.68111,-1.535073 4.5725,-4.1275 z m 2.8975,0.66125 c -0.19702,-0.05992 -0.38919,0.147197 -0.485,0.875 1.71897,1.885298 1.07607,-0.695234 0.485,-0.875 z M 10.855,37.84125 c -0.13425,0.746771 1.04709,3.067705 0.0937,3.84625 -0.45716,0.462657 -2.12607,2.095888 -2.115,0.4 1.71588,-0.846891 1.18861,-2.484662 2.02125,-4.24625 z m 5.77125,0.6625 c 0.12834,0.0085 0.25946,0.02991 0.39375,0.065 1.87345,1.373724 0.96621,1.16672 -0.58625,0.31875 -2.88135,2.107283 -1.7326,-0.510841 0.1925,-0.38375 z M 25.005,39.0975 c -1.55887,0.19855 -2.55716,3.46615 -3.37125,4.685 2.10702,0.402608 5.45836,-1.025789 4.545,-4.26875 -0.4242,-0.343904 -0.81401,-0.462069 -1.17375,-0.41625 z m 21.40375,0.195 c -0.45941,0.02251 -1.17442,0.420644 -1.575,1.28125 -0.2673,0.702606 0.6198,0.918646 0.8775,0.305 1.45776,-1.023755 1.28817,-1.615194 0.6975,-1.58625 z m -24.115,1.955 c -1.7718,0.467063 -6.31493,-0.682326 -4.97375,1.975 0.19991,0.488552 0.49279,1.256959 1.16625,1.17625 1.00815,-0.350076 4.37819,-2.826178 3.8075,-3.15125 z m 12.705,0.095 c 0.31709,0.0054 0.57762,0.320326 0.525,1.145 -0.18618,0.41947 -0.32597,0.888981 -0.69,1.2 -1.50268,-0.868423 -0.53259,-2.356809 0.165,-2.345 z M 19.15,42.0125 c 0.19703,-0.05992 0.38794,0.147197 0.48375,0.875 -1.71897,1.885299 -1.07482,-0.695234 -0.48375,-0.875 z m 42.49375,0.28125 c -1.13302,-0.0074 -4.49927,1.414606 -1.87125,2.86375 0.91807,0.626277 2.74224,0.80941 2.66125,-0.76375 -0.38898,-0.14197 -3.6159,-1.362382 -1.40125,-1.0725 1.18056,-0.725884 1.12626,-1.024123 0.61125,-1.0275 z M 64,42.42125 c -0.21883,0.208398 -0.4678,0.391185 -0.76625,0.5275 0.27409,0.01429 0.52951,0.02947 0.76625,0.05 l 0,-0.5775 z M 51.0675,44.375 c 0.13484,-0.01826 0.51867,0.356723 1.3,1.4275 0.91117,3.715702 -1.78155,-1.362295 -1.3,-1.4275 z m -33.85125,2.16 c 0.69325,0.08493 2.63453,1.072213 3.43625,0.3975 -2.28104,3.808552 3.27605,-2.228353 2.08375,1.11125 1.13408,0.667493 2.65827,3.278765 0.105,2.05 -0.39692,-0.515049 -1.32084,-0.662123 -1.46625,0.16 -0.0954,0.0019 -2.2402,-1.373582 -3.5425,-2.34375 -0.99856,-1.152527 -1.0322,-1.425958 -0.61625,-1.375 z M 64,46.6375 c -0.1634,1.407694 -1.02288,1.775637 -1.48625,2.97875 3.18153,-0.910973 -1.36944,1.908649 1.25,2.4825 0.13352,0.489331 0.20388,0.824835 0.23625,1.07375 l 0,-6.535 z m -5.13125,2.155 c 0.51397,0.02066 1.16274,0.312737 1.50625,1.02875 0.71044,1.735915 -0.16628,0.870482 -0.91,0.41375 -1.93491,-0.758875 -1.45287,-1.476937 -0.59625,-1.4425 z M 15.6375,49.02375 c -0.45121,0.05904 -0.8489,0.396534 -0.9925,1.18125 -0.14015,0.935331 -0.11648,1.883101 1.13125,1.21875 3.05593,-0.25173 1.21489,-2.577113 -0.13875,-2.4 z m 15.84875,0.72375 c 0.46226,0.01064 0.99597,0.33851 1.3475,1.22625 L 32.65,51.4625 32.1875,51.665 c -2.38749,-0.433236 -1.71822,-1.940912 -0.70125,-1.9175 z m -18.83,0.2125 c -0.94996,0.196769 -2.72302,5.499503 -3.98,1.55875 -2.79901,1.000091 1.42593,2.369192 3.12375,2.4725 3.17116,0.210699 -0.20978,4.658523 -0.56625,2.147503 -1.98935,-2.889226 -0.61918,3.825612 1.70375,0.809996 3.24588,0.821293 -4.42315,2.918899 -2.21375,5.76 0.5225,0.4952 1.32766,0.503027 1.99375,0.622503 4.11509,0.402169 -1.59888,-1.425453 -0.29375,-1.755002 2.57036,0.35193 8.58236,0.349331 5.755,-3.616249 -0.555,-2.450293 1.1086,-3.325561 2.31625,-0.87625 2.38059,-2.650616 -2.42264,-2.578823 -2.86125,-4.035 -0.55481,-1.518872 -7.9572,0.09093 -4.4675,-2.23375 -0.11516,-0.674895 -0.29078,-0.900409 -0.51,-0.855 z m 25.8825,0.37375 c 0.11886,0.01788 0.20209,0.27237 0.20125,0.9125 -1.9158,3.370945 -0.71632,-0.989959 -0.20125,-0.9125 z m -10.745,0.2575 c 0.75476,-5.1e-5 1.5155,0.320984 2.14125,1.19875 2.9758,0.212053 1.11882,2.312465 -0.53125,0.7875 -2.28145,-2.267485 -1.17643,0.628562 -2.85625,0.71 -0.78978,0.0113 -1.57323,0.145326 -2.3375,0.3375 -2.80516,1.549692 -0.99791,-1.11317 0.51125,-1.44 0.57386,-0.700587 1.81458,-1.593663 3.0725,-1.59375 z M 19.0325,51.735 c -0.20896,5.8e-4 -0.21821,0.309497 0.2175,1.1725 l 0.4225,0.44375 c 2.41068,1.147743 -0.0131,-1.617989 -0.64,-1.61625 z M 5.60125,52.655 C 4.7047,52.59201 2.01704,53.349784 1.6775,54.425 0.93416,57.64905 4.24747,57.392013 5.37875,58.886253 5.07496,63.133203 2.13468,59.538355 0,58.66 l 0,4.62375 C 1.12124,63.058445 2.1264,63.086157 2.79,64 l 2.30375,0 C 3.20304,63.228384 -0.11317,60.917786 1.345,60.904999 c 2.10839,1.832179 3.72339,0.0065 5.31875,-0.627501 2.98596,2.107232 -1.2165,1.17104 -0.74,3.010003 C 6.16321,63.615092 6.27302,63.844397 6.29,64 l 1.28875,0 C 9.96844,61.493011 12.05422,57.015667 8.2325,57.086253 6.04366,59.163969 3.0087,55.48593 6.83375,55.687501 11.22727,55.218081 6.04849,53.55046 4.3875,53.76375 6.0332,53.025763 6.13918,52.692792 5.60125,52.655 Z m 8.885,0.8625 c 1.48179,-0.09474 3.36677,3.056042 2.81375,4.732497 0.39267,1.013273 -1.21064,4.58608 -1.605,1.770003 2.64513,-3.722963 -1.79445,0.239514 -3.32375,0.433747 1.16077,-1.223353 4.18555,-4.47351 1.51375,-6.683747 0.18695,-0.159757 0.38957,-0.238966 0.60125,-0.2525 z M 2.425,54.5925 C 2.92035,54.54448 3.70004,55.040941 3.7675,56.122503 3.99956,57.664256 3.19076,57.261325 2.79,56.328749 1.71841,55.232465 1.92965,54.640522 2.425,54.5925 Z M 0,54.66625 0,56.318753 c 0.49526,-0.331316 0.43504,-1.140308 0,-1.652502 z m 38.51875,0.14625 c -0.19702,-0.05992 -0.38919,0.147197 -0.485,0.875001 1.71897,1.885293 1.07607,-0.695235 0.485,-0.875001 z m -3.5575,0.055 c 0.70783,-0.02819 1.15457,0.412773 0.61375,1.886246 l -0.2625,0.517504 c -2.94904,2.589946 1.03814,-2.342848 -1.09375,-1.387501 -3.63766,1.380314 -0.81473,-0.95424 0.7425,-1.016249 z m -9.4725,1.531252 c -0.86001,0.05811 -1.75527,0.885644 -1.00125,2.502496 1.55917,2.898073 -3.04851,3.464563 -2.645,1.042502 3.60033,0.376845 0.0908,-4.900494 -1.24875,-1.13625 1.23542,2.04153 -2.25073,4.064948 -1.01125,5.192499 l 0.7,0 c -0.2961,-1.566854 0.36848,-0.59143 1.225,0 l 1.51375,0 c -1.44748,-2.691084 1.23221,-1.416735 0.68875,0 l 4.13,0 c 0.006,-0.476051 0.0353,-0.972179 0.1075,-1.504998 -2.17815,0.740588 -2.67416,-2.348717 -1.67125,-3.978752 0.89709,-1.463789 0.0725,-2.175584 -0.7875,-2.117497 z m 4.07875,1.22 c -1.16714,0.08529 -2.48949,1.075539 -2.67125,2.068748 3.54399,-1.628614 0.15242,0.387431 -0.4625,1.8725 0.5812,-0.113588 7.22025,-0.423252 4.96625,-2.0725 -0.11127,-1.45424 -0.92473,-1.935091 -1.8325,-1.868748 z m 14.935,0.164998 C 44.16247,57.85482 43.43963,60.79874 42.195,60.9325 40.49775,59.443553 38.65156,64.04026 38.93125,60.638753 35.27041,58.692705 37.8418,61.985153 38.75,64 l 4.145,0 c -0.42614,-0.764076 -2.82084,-1.934022 -1.3925,-2.371251 2.43885,2.329722 3.97898,0.421325 3.23125,-2.268748 -0.024,-1.192314 -0.0982,-1.604064 -0.23125,-1.57625 z M 8.75125,58.257498 c 0.28202,-0.03629 0.58767,0.0886 0.8825,0.477504 l -0.0987,0.342496 -0.2725,0.352506 C 6.75511,61.598087 7.5292,58.414733 8.7513,58.257498 Z m 39.61625,0.123751 c -1.27144,-0.03725 -2.96781,0.611647 -2.58,2.166252 -0.90848,3.098042 4.00845,2.37634 3.7725,-0.05997 -0.72654,1.661869 -2.21214,1.840743 -1.165,-0.158752 2.08987,-1.187673 1.24394,-1.910215 -0.0275,-1.9475 z m 12.3625,2.02 c 0.23228,0.05306 0.53346,0.308512 0.90375,0.886252 -1.61824,2.44841 -1.9103,-1.116262 -0.90375,-0.886252 z m -44.2925,2.12 C 15.72327,62.508259 15.46463,63.181229 15.26125,64 L 18.88,64 c -0.27794,-0.320863 -0.66212,-0.657471 -1.18625,-1.009996 -0.53206,-0.3224 -0.93912,-0.462989 -1.25625,-0.468755 z m 33.19625,0.501254 c -0.19333,-0.0013 -0.39537,0.07866 -0.6025,0.262496 0.008,0.285836 0.004,0.51783 -0.009,0.715001 l 1.7075,0 C 50.42946,63.427648 50.05358,63.025907 49.6335,63.022503 Z M 33.98,63.304999 C 33.68754,63.350819 33.82646,63.62322 34.065,64 L 35.8,64 C 35.63742,63.837338 35.40199,63.669133 35.06625,63.497498 34.49488,63.331815 34.15816,63.277075 33.98,63.304999 Z m 12.615,0.09625 C 46.39772,63.430749 46.2224,63.622164 46.07625,64 l 1.54125,0 C 47.27058,63.662593 46.9108,63.354023 46.595,63.401249 Z m 15.45875,0.166252 C 61.86753,63.564941 61.70054,63.681293 61.56,64 l 1.34875,0 c -0.30431,-0.205292 -0.59741,-0.428723 -0.855,-0.432499 z m -51.4625,0.1725 C 10.36956,63.717221 10.06682,63.796511 9.77125,64 l 1.15,0 c -0.0182,-0.146515 -0.14129,-0.240627 -0.33,-0.259999 z"
     style="opacity:0.05;fill:#d4d4d4;fill-opacity:1" />
</svg>
